<?xml version="1.0" encoding="UTF-8" standalone="no"?>
<!DOCTYPE svg PUBLIC "-//W3C//DTD SVG 1.1//EN" "http://www.w3.org/Graphics/SVG/1.1/DTD/svg11.dtd">
<svg width="82.29" height="41.14" viewBox="0.00 0.00 400.00 200.00" xmlns="http://www.w3.org/2000/svg" xmlns:xlink="http://www.w3.org/1999/xlink">
<g stroke-linecap="round" id="Layer_4">
<path d="M93.82,100.79 C93.78,100.79 93.90,100.78 93.93,100.77 C99.30,100.21 103.51,99.06 108.04,96.78 C111.99,94.73 119.52,90.34 121.52,89.26 C125.26,87.26 131.80,84.59 134.63,84.41 C136.84,84.30 144.47,85.04 147.59,85.88 C149.52,86.42 152.07,87.77 153.30,88.89 C154.01,89.57 156.30,92.41 156.83,93.32 C157.91,95.30 158.80,98.71 158.59,100.43 C158.34,102.22 154.14,107.73 151.68,109.33 C149.10,110.95 143.36,112.30 139.31,112.67 C135.68,112.98 128.62,112.92 124.94,112.50 C121.04,112.04 113.77,110.48 110.68,109.39 C101.57,106.10 95.81,101.10 94.93,100.63 C94.70,100.50 94.50,100.65 94.33,101.07" fill="none" stroke="rgb(0, 0, 0)" stroke-width="3.38" stroke-opacity="1.00" stroke-linejoin="round"/>
<path d="M157.38,93.23 C157.38,93.23 157.39,93.23 157.39,93.23 C160.25,93.05 166.08,91.98 169.16,90.93 C172.36,89.82 181.02,85.31 182.06,84.80 C185.12,83.31 191.50,81.24 194.39,80.83 C197.54,80.44 201.83,81.71 205.05,83.42 C206.43,84.19 208.38,85.65 209.05,86.58 C209.76,87.62 211.50,91.58 211.80,93.00 C212.15,94.74 211.78,98.52 211.19,100.26 C210.24,102.79 205.80,106.80 202.26,108.08 C199.62,109.00 191.20,111.06 187.68,111.56 C184.06,112.05 177.24,111.99 173.41,111.60 C169.33,111.16 163.88,109.55 160.02,107.47 C158.24,106.50 157.45,105.76 156.51,104.39 C156.37,104.48 156.29,104.54 156.27,104.57 C156.24,104.59 156.24,104.61 156.25,104.62" fill="none" stroke="rgb(0, 0, 0)" stroke-width="3.38" stroke-opacity="1.00" stroke-linejoin="round"/>
<path d="M210.15,103.25 C210.15,103.25 210.17,103.15 210.17,103.15 C212.39,104.87 213.25,106.23 212.59,107.74 C211.94,109.17 210.51,110.86 209.35,111.58 C207.14,112.88 200.67,114.71 195.83,115.62 C187.00,117.25 180.58,116.99 179.70,116.96 C179.55,116.95 179.42,116.93 179.33,116.91" fill="none" stroke="rgb(0, 0, 0)" stroke-width="3.38" stroke-opacity="1.00" stroke-linejoin="round"/>
<path d="M208.34,113.07 C208.30,112.78 211.01,114.05 211.31,114.88 C211.51,115.48 208.31,119.11 208.12,119.85 C207.90,120.66 208.01,121.68 208.43,122.91 C208.55,123.24 208.78,123.56 209.11,123.86" fill="none" stroke="rgb(0, 0, 0)" stroke-width="3.38" stroke-opacity="1.00" stroke-linejoin="round"/>
<path d="M211.79,89.59 C211.79,89.59 211.62,89.66 211.62,89.66 C212.76,88.47 213.57,86.40 213.15,84.68 C212.75,83.17 211.09,81.06 209.79,80.16 C206.95,78.32 202.47,77.05 199.04,76.75 C194.99,76.47 189.35,77.22 185.11,78.52 C180.90,79.84 168.32,84.76 167.86,85.00 C167.42,85.22 166.49,85.77 165.06,86.64" fill="none" stroke="rgb(0, 0, 0)" stroke-width="3.38" stroke-opacity="1.00" stroke-linejoin="round"/>
<path d="M205.84,77.75 C203.88,75.85 197.32,73.03 195.33,72.37 C192.24,71.36 185.52,70.56 182.72,71.15 C177.32,72.37 162.37,81.20 162.13,81.37 C161.76,81.64 161.06,82.21 160.03,83.09" fill="none" stroke="rgb(0, 0, 0)" stroke-width="3.38" stroke-opacity="1.00" stroke-linejoin="round"/>
<path d="M188.35,70.71 C187.73,69.75 187.17,69.08 185.38,67.27 C181.75,63.63 176.11,60.03 171.83,58.39 C167.75,56.88 160.97,55.82 157.63,56.55 C154.55,57.26 145.70,60.67 145.34,60.80 C142.35,61.85 135.12,62.89 131.51,62.92 C128.40,62.93 120.04,62.31 116.76,61.89 C112.43,61.33 104.35,59.67 102.05,59.26 C98.12,58.58 92.14,58.52 88.57,59.26 C86.01,59.81 79.91,62.17 77.30,63.73 C74.40,65.51 70.40,69.02 67.77,71.93 C63.22,77.00 56.44,87.93 54.62,93.80 C53.60,97.19 52.85,103.82 53.32,107.44 C53.86,111.24 57.46,119.69 58.58,121.52 C58.75,121.80 59.05,122.16 59.47,122.61" fill="none" stroke="rgb(0, 0, 0)" stroke-width="3.38" stroke-opacity="1.00" stroke-linejoin="round"/>
<path d="M96.32,101.19 C96.34,101.19 96.30,101.24 96.28,101.24 C93.96,101.12 91.83,100.69 90.96,100.00 C90.03,99.19 90.44,97.58 92.01,96.43 C94.88,94.40 102.23,93.44 104.03,93.04 C107.34,92.29 113.35,89.76 115.62,88.07 C118.75,85.56 122.50,83.52 126.02,82.51 C131.69,80.95 139.83,81.07 143.91,81.42 C146.02,81.58 148.72,81.12 149.50,80.38 C150.11,79.74 148.06,78.12 146.39,77.70 C145.96,77.60 135.03,77.03 132.30,77.05 C127.77,77.13 122.67,78.32 119.19,80.25 C116.72,81.63 108.64,86.75 106.79,87.13 C105.46,87.39 101.07,87.56 99.56,87.48 C99.08,87.45 98.25,87.37 97.06,87.23" fill="none" stroke="rgb(0, 0, 0)" stroke-width="3.38" stroke-opacity="1.00" stroke-linejoin="round"/>
<path d="M131.75,73.82 C131.75,73.82 131.82,73.85 131.82,73.85 C131.27,73.65 129.91,73.15 129.09,72.86 C126.36,71.87 120.42,71.57 115.98,71.88 C113.80,72.04 103.50,73.11 101.72,73.66 C100.79,73.96 90.85,80.09 90.58,80.28 C90.38,80.42 90.24,80.55 90.16,80.68" fill="none" stroke="rgb(0, 0, 0)" stroke-width="3.38" stroke-opacity="1.00" stroke-linejoin="round"/>
<path d="M207.98,122.21 C208.09,122.38 208.25,122.61 208.48,122.90 C209.92,124.81 210.44,126.03 210.22,127.44 C209.94,129.02 209.02,130.73 207.68,132.07 C205.61,134.08 200.60,136.77 197.27,137.48 C196.04,137.74 174.04,139.83 168.03,140.16 C158.60,140.52 147.86,139.69 140.94,137.66 C135.51,136.06 111.53,126.85 111.35,126.78 C109.43,125.99 106.91,125.65 105.97,126.18 C104.91,126.86 108.24,132.90 110.37,135.13 C114.82,139.71 125.76,147.36 131.61,150.45 C137.37,153.47 151.09,158.99 158.16,161.31 C162.59,162.72 168.34,164.18 171.31,164.64 C176.72,165.44 189.50,164.33 192.72,163.48 C194.56,162.95 197.81,161.00 199.06,159.51 C199.84,158.54 201.84,153.84 202.00,152.89 C202.23,151.25 201.64,149.33 200.40,147.21 C199.30,145.38 195.78,138.71 194.56,137.99 C194.36,137.88 194.11,137.87 193.80,137.98" fill="none" stroke="rgb(0, 0, 0)" stroke-width="3.38" stroke-opacity="1.00" stroke-linejoin="round"/>
<path d="M130.28,149.11 C130.32,149.12 130.34,149.12 130.35,149.13 C130.36,149.13 130.38,149.14 130.41,149.16 C129.84,147.27 130.39,145.10 132.04,144.07 C133.47,143.21 141.64,143.50 146.03,144.66 C148.68,145.39 157.92,148.41 160.42,149.03 C164.66,150.04 170.76,150.08 173.98,149.75 C178.45,149.26 184.44,147.72 185.29,146.81 C186.27,145.68 186.07,144.03 184.82,142.32 C183.89,141.09 183.38,140.44 183.30,140.37 C183.07,140.18 182.69,140.05 182.16,139.98" fill="none" stroke="rgb(0, 0, 0)" stroke-width="3.38" stroke-opacity="1.00" stroke-linejoin="round"/>
<path d="M209.01,123.33 C201.11,127.19 190.16,131.66 184.01,133.11 C177.39,134.63 160.74,134.71 153.01,133.62 C149.22,133.07 141.73,131.24 138.02,129.71 C135.78,128.78 127.24,124.38 124.42,123.12 C120.57,121.40 113.17,118.81 110.73,118.54 C108.77,118.34 106.99,118.53 104.48,119.17 C102.81,119.66 100.49,120.90 99.59,122.04 C98.71,123.21 97.70,126.42 97.66,127.62 C97.69,130.34 99.64,135.83 101.34,138.67 C103.29,141.83 106.89,145.57 110.33,148.02 C112.82,149.77 121.51,154.45 130.10,158.99 C139.51,163.84 147.57,166.99 157.42,169.49 C160.92,170.35 167.83,171.99 171.23,172.77 C175.07,173.60 180.34,174.13 183.77,173.75 C186.55,173.41 194.74,171.74 198.36,169.98 C201.67,168.34 205.80,165.01 207.54,162.52 C208.74,160.72 209.51,158.49 209.56,156.46 C209.61,152.34 204.60,139.12 203.21,136.22 C203.21,136.22 202.14,136.41 202.14,136.41" fill="none" stroke="rgb(0, 0, 0)" stroke-width="3.38" stroke-opacity="1.00" stroke-linejoin="round"/>
<path d="M202.51,167.78 C204.23,168.87 205.79,170.43 205.74,171.65 C205.62,173.28 203.68,175.47 201.62,176.21 C197.67,177.56 190.90,178.35 187.40,178.76 C178.65,179.61 163.72,180.58 154.57,180.74 C140.11,180.60 103.78,178.29 94.32,177.08 C86.28,175.99 72.71,172.81 65.78,170.17 C62.36,168.84 57.42,165.90 54.89,163.71 C52.57,161.65 48.49,156.01 46.82,153.13 C45.27,150.39 44.25,145.64 43.41,139.99 C42.78,135.33 42.40,128.86 42.54,125.14 C42.71,121.47 44.01,113.59 45.15,110.58 C46.55,107.06 49.36,104.69 53.09,102.25 C52.72,102.50 52.50,102.66 52.41,102.72 C52.33,102.78 52.26,102.82 52.22,102.84" fill="none" stroke="rgb(0, 0, 0)" stroke-width="3.38" stroke-opacity="1.00" stroke-linejoin="round"/>
<path d="M45.44,150.96 C45.44,150.96 45.26,150.94 45.26,150.94 C38.58,159.11 32.46,167.32 29.60,173.63 C27.91,177.42 26.28,183.62 25.75,187.48 C24.91,194.04 25.64,203.76 26.25,206.18 C26.29,206.34 26.34,206.54 26.40,206.78" fill="none" stroke="rgb(0, 0, 0)" stroke-width="3.38" stroke-opacity="1.00" stroke-linejoin="round"/>
<path d="M198.90,177.22 C198.90,177.22 198.97,177.37 198.97,177.37 C199.39,177.41 199.87,177.70 201.26,178.84 C204.14,181.20 207.79,185.17 209.74,187.89 C213.41,193.08 217.08,203.38 217.64,205.86 C218.49,209.72 218.38,209.86 218.37,209.93" fill="none" stroke="rgb(0, 0, 0)" stroke-width="3.38" stroke-opacity="1.00" stroke-linejoin="round"/>
<path d="M134.50,112.86 C134.50,112.86 134.58,112.89 134.58,112.89 C134.21,112.91 133.87,112.90 133.57,112.85 C131.99,112.58 128.41,111.20 126.85,110.13 C125.83,109.41 123.76,106.67 122.76,105.06 C121.82,103.43 121.01,100.55 121.07,98.82 C121.16,97.39 122.65,93.63 123.64,92.24 C124.92,90.51 127.35,88.53 129.06,87.77 C132.62,86.27 138.42,85.69 141.32,86.58 C142.82,87.08 145.21,88.70 146.36,89.99 C147.47,91.29 149.18,94.30 149.62,95.78 C150.03,97.25 150.16,100.35 149.95,102.26 C149.70,104.08 148.47,106.86 147.06,108.83 C145.83,110.50 143.71,111.97 142.11,112.46 C141.80,112.55 141.36,112.62 140.79,112.69" fill="none" stroke="rgb(0, 0, 0)" stroke-width="3.38" stroke-opacity="1.00" stroke-linejoin="round"/>
<path d="M192.33,110.38 C192.39,110.43 192.28,110.49 192.00,110.55 C190.42,110.84 187.87,111.02 186.55,110.80 C184.88,110.49 182.30,109.31 180.82,108.09 C179.20,106.70 177.49,103.93 176.92,101.77 C176.46,99.91 176.35,96.55 176.65,94.94 C177.23,92.19 180.79,87.61 183.19,85.94 C185.45,84.43 190.23,82.99 192.69,83.27 C194.00,83.46 196.59,84.29 197.47,84.96 C198.66,85.90 200.30,88.23 201.11,90.07 C202.83,94.18 203.42,99.19 202.73,103.62 C202.39,105.45 201.15,107.52 199.59,108.69 C198.60,109.42 196.41,110.29 196.29,110.23" fill="none" stroke="rgb(0, 0, 0)" stroke-width="3.38" stroke-opacity="1.00" stroke-linejoin="round"/>
<path d="M137.50,23.47 C137.79,23.38 138.05,23.39 138.29,23.49 C140.58,24.51 144.67,28.79 146.02,32.27 C147.24,35.60 147.84,41.64 147.64,46.17 C147.47,49.59 146.40,54.30 145.93,56.03 C140.78,49.19 134.97,40.11 130.92,32.19 C128.95,28.33 126.42,22.84 126.08,22.57 C125.85,22.40 125.35,22.32 124.58,22.33" fill="none" stroke="rgb(0, 0, 0)" stroke-width="3.38" stroke-opacity="1.00" stroke-linejoin="round"/>
<path d="M138.58,23.39 C138.69,23.45 138.83,23.53 139.01,23.61 C139.55,23.86 147.35,27.51 150.28,29.68 C151.48,30.59 154.38,33.08 155.44,34.14 C157.07,35.83 158.33,38.22 159.05,40.92 C159.38,42.27 161.01,53.97 161.00,54.28 C160.97,54.61 160.83,55.12 160.57,55.81 C160.57,55.81 160.35,55.81 160.35,55.81 C160.35,55.81 160.21,55.70 160.21,55.70" fill="none" stroke="rgb(0, 0, 0)" stroke-width="3.38" stroke-opacity="1.00" stroke-linejoin="round"/>
<path d="M152.80,31.39 C152.80,31.39 152.77,31.60 152.77,31.60 C152.77,31.60 150.23,32.47 150.23,32.47 C151.08,35.45 153.20,43.25 153.43,46.19 C153.60,48.71 153.38,51.47 152.80,54.47 C152.36,56.64 151.67,58.05 150.53,59.40 C150.31,59.64 150.20,59.58 150.13,59.62" fill="none" stroke="rgb(0, 0, 0)" stroke-width="3.38" stroke-opacity="1.00" stroke-linejoin="round"/>
<path d="M144.20,60.67 C141.45,59.20 140.64,58.75 139.26,57.85 C136.21,55.81 129.93,44.28 124.73,34.07 C123.64,31.98 122.46,30.19 121.76,29.91 C120.20,29.35 99.20,35.22 95.54,36.42 C87.73,39.01 76.90,44.00 67.64,48.96 C57.97,54.43 49.84,59.68 43.32,65.06 C37.94,69.55 29.60,77.61 23.84,84.57 C16.10,94.35 12.17,99.67 12.07,100.92 C12.01,102.54 15.43,104.71 19.91,106.80 C26.61,109.81 41.53,116.62 41.87,116.81 C42.11,116.95 42.47,117.20 42.94,117.57" fill="none" stroke="rgb(0, 0, 0)" stroke-width="3.38" stroke-opacity="1.00" stroke-linejoin="round"/>
<path d="M125.98,22.67 C124.56,22.40 123.50,22.39 121.40,22.72 C116.31,23.55 112.07,24.62 108.59,25.93 C99.53,29.48 87.57,34.54 80.74,37.44 C70.17,42.04 57.67,48.19 51.54,51.92 C44.24,56.39 33.37,65.46 28.08,70.66 C22.71,75.96 14.16,86.85 9.61,93.60 C8.54,95.18 6.95,98.21 6.15,100.29 C5.44,102.24 5.66,105.00 6.52,106.29 C8.15,108.49 25.98,115.54 32.82,118.16 C35.48,119.20 41.44,121.55 42.96,122.27 C42.91,122.28 42.88,122.29 42.86,122.29 C42.84,122.29 42.80,122.28 42.75,122.27" fill="none" stroke="rgb(0, 0, 0)" stroke-width="3.38" stroke-opacity="1.00" stroke-linejoin="round"/>
<path d="M147.40,45.37 C147.42,45.36 147.44,45.35 147.46,45.35 C147.48,45.35 147.51,45.35 147.57,45.36 C146.04,43.52 144.95,42.58 142.70,41.36 C138.87,39.26 133.79,36.48 132.55,35.80 C132.55,35.80 131.84,36.11 131.84,36.11" fill="none" stroke="rgb(0, 0, 0)" stroke-width="3.38" stroke-opacity="1.00" stroke-linejoin="round"/>
<path d="M102.56,28.11 C102.59,28.09 102.61,28.07 102.62,28.07 C102.63,28.06 102.65,28.05 102.69,28.03 C102.69,28.03 102.63,28.08 102.63,28.08 C99.65,27.25 94.12,26.73 88.97,26.96 C82.18,27.30 69.34,30.05 62.62,32.55 C57.34,34.55 45.19,41.59 40.17,45.98 C37.57,48.27 32.62,53.70 31.12,56.11 C28.76,60.00 26.86,69.34 27.25,71.51 C27.09,71.57 27.00,71.61 26.96,71.62 C26.93,71.62 26.91,71.61 26.89,71.59" fill="none" stroke="rgb(0, 0, 0)" stroke-width="3.38" stroke-opacity="1.00" stroke-linejoin="round"/>
<path d="M167.34,188.77" fill="none" stroke="rgb(255, 255, 255)" stroke-width="20.96" stroke-opacity="1.00" stroke-linejoin="round"/>
<path d="M170.88,187.82 C172.56,186.97 175.00,185.78 180.35,183.41 C183.36,182.07 191.74,178.22 195.49,177.44 C196.54,177.22 202.36,176.54 202.95,176.31 C204.31,175.75 205.32,174.05 204.44,173.06 C204.26,172.86 198.35,169.24 197.08,167.80 C194.49,164.84 193.97,163.32 194.71,162.17 C195.56,160.91 200.91,156.66 200.96,156.65 C201.16,156.69 202.56,157.60 203.45,158.00 C204.06,158.28 207.91,159.04 208.08,159.20 C209.16,160.25 209.76,161.65 209.42,162.28 C209.33,162.44 208.97,163.17 208.91,163.27 C208.44,163.97 207.38,164.85 207.08,165.02" fill="none" stroke="rgb(255, 255, 255)" stroke-width="20.96" stroke-opacity="1.00" stroke-linejoin="round"/>
<path d="M197.89,147.25 C199.38,147.02 200.35,146.90 200.78,146.89 C202.53,146.89 208.84,150.02 210.68,152.02 C211.50,152.93 212.69,155.28 213.19,156.75 C214.01,159.44 212.83,163.23 210.37,167.14 C209.38,168.72 208.14,169.37 205.55,169.94 C203.55,169.22 202.14,168.43 201.28,167.32 C199.69,165.21 200.05,160.37 200.00,159.51 C199.99,159.15 199.86,158.60 199.61,157.85 C199.61,157.85 199.53,157.86 199.53,157.86" fill="none" stroke="rgb(0, 0, 0)" stroke-width="3.38" stroke-opacity="1.00" stroke-linejoin="round"/>
<path d="M199.61,159.50 C199.61,159.50 199.69,159.44 199.69,159.44 C199.69,159.44 199.71,159.28 199.71,159.28 C198.28,159.22 197.34,159.24 196.88,159.37 C195.47,159.74 192.35,162.62 192.30,162.85" fill="none" stroke="rgb(0, 0, 0)" stroke-width="3.38" stroke-opacity="1.00" stroke-linejoin="round"/>
<path d="M206.93,148.43 C206.90,148.45 206.88,148.46 206.87,148.47 C206.85,148.48 206.82,148.49 206.77,148.52 C206.92,148.48 207.08,148.44 207.26,148.42 C210.58,148.03 215.39,147.98 218.19,149.08 C219.73,149.73 221.92,151.36 222.63,152.45 C223.31,153.58 223.76,155.94 223.77,157.92 C223.73,159.63 223.16,161.76 222.26,163.63 C221.56,165.00 219.06,167.50 217.76,168.04 C214.95,169.11 212.11,167.73 210.67,166.23 C210.50,166.05 210.36,165.98 210.22,166.01 C210.18,166.02 210.14,166.04 210.09,166.05" fill="none" stroke="rgb(0, 0, 0)" stroke-width="3.38" stroke-opacity="1.00" stroke-linejoin="round"/>
<path d="M220.42,148.86 C220.42,148.86 220.42,148.97 220.42,148.97 C223.46,148.68 224.94,148.73 227.14,149.31 C229.09,149.88 230.86,151.54 231.53,153.52 C231.80,154.39 231.27,158.51 230.93,159.57 C230.35,161.27 228.01,165.23 227.01,166.15 C224.91,167.98 222.58,167.17 221.39,166.33 C221.27,166.23 221.21,166.20 221.23,166.24 C221.19,166.30 221.17,166.33 221.17,166.35 C221.16,166.37 221.15,166.39 221.14,166.42" fill="none" stroke="rgb(0, 0, 0)" stroke-width="3.38" stroke-opacity="1.00" stroke-linejoin="round"/>
<path d="M203.59,147.50 C203.59,147.50 203.63,147.45 203.63,147.45 C203.46,147.30 203.23,147.21 202.95,147.17 C199.95,146.84 192.73,147.97 189.83,149.75 C188.55,150.57 186.30,152.83 185.66,153.95 C184.61,155.91 183.93,161.91 184.43,164.12 C184.66,165.14 185.93,168.82 186.18,169.67 C186.26,169.94 186.31,170.23 186.33,170.54 C186.33,170.54 186.24,170.52 186.24,170.52" fill="none" stroke="rgb(0, 0, 0)" stroke-width="3.38" stroke-opacity="1.00" stroke-linejoin="round"/>
<path d="M185.76,169.37 C185.78,169.37 185.79,169.36 185.81,169.34 C185.83,169.32 185.88,169.28 185.96,169.20 C182.61,170.60 178.89,172.15 174.27,174.19 C164.91,178.35 154.11,183.92 145.25,188.90 C137.95,193.21 121.64,202.94 118.21,205.26 C115.46,207.13 108.61,212.03 107.92,212.54 C107.85,212.60 107.78,212.65 107.70,212.70" fill="none" stroke="rgb(0, 0, 0)" stroke-width="3.38" stroke-opacity="1.00" stroke-linejoin="round"/>
<path d="M223.24,177.45 C223.24,177.45 223.35,177.43 223.35,177.43 C222.04,179.39 219.89,182.16 218.66,183.08 C217.33,184.06 213.73,184.98 211.47,185.09 C209.11,185.19 205.37,184.76 204.36,184.85 C203.95,184.89 187.65,195.63 180.45,200.35 C174.24,204.50 165.66,210.27 163.28,211.89 C162.07,212.74 160.60,213.77 160.67,213.73" fill="none" stroke="rgb(0, 0, 0)" stroke-width="3.38" stroke-opacity="1.00" stroke-linejoin="round"/>
<path d="M360.44,126.63 C360.44,126.63 360.32,126.69 360.32,126.69 C359.95,124.79 360.57,122.22 362.14,121.74 C363.37,121.37 366.19,122.20 367.81,123.07 C369.25,123.98 370.81,125.71 371.27,127.18 C371.59,128.33 370.76,133.17 370.05,134.32 C369.25,135.55 365.76,138.00 364.34,138.66 C364.01,138.81 363.54,138.96 362.94,139.13" fill="none" stroke="rgb(0, 0, 0)" stroke-width="3.38" stroke-opacity="1.00" stroke-linejoin="round"/>
<path d="M367.70,122.69 C367.96,121.49 368.36,119.05 368.65,118.54 C369.62,116.91 371.76,115.97 373.54,116.43 C375.39,116.99 377.28,118.50 377.91,120.05 C378.51,121.71 378.06,124.57 376.94,126.79 C375.86,128.84 374.25,130.32 372.76,130.80 C372.30,130.93 371.87,131.01 371.45,131.02 C371.31,131.01 371.33,130.90 371.30,130.87" fill="none" stroke="rgb(0, 0, 0)" stroke-width="3.38" stroke-opacity="1.00" stroke-linejoin="round"/>
<path d="M375.05,116.78 C375.05,116.78 375.13,116.85 375.13,116.85 C375.14,116.88 375.14,116.79 375.13,116.76 C374.64,113.67 374.81,111.90 376.02,110.99 C377.33,110.07 379.68,110.01 381.67,110.87 C383.47,111.70 385.70,113.59 386.29,114.75 C386.71,115.69 386.80,118.06 386.41,118.91 C385.45,120.83 381.52,123.49 378.13,125.62 C377.90,125.77 377.54,125.98 377.05,126.26" fill="none" stroke="rgb(0, 0, 0)" stroke-width="3.38" stroke-opacity="1.00" stroke-linejoin="round"/>
<path d="M132.07,92.56 C132.07,92.56 131.81,92.64 131.81,92.64" fill="none" stroke="rgb(255, 255, 255)" stroke-width="6.10" stroke-opacity="1.00" stroke-linejoin="round"/>
<path d="M131.44,100.04" fill="none" stroke="rgb(255, 255, 255)" stroke-width="6.10" stroke-opacity="1.00" stroke-linejoin="round"/>
<path d="M135.61,106.51" fill="none" stroke="rgb(255, 255, 255)" stroke-width="6.10" stroke-opacity="1.00" stroke-linejoin="round"/>
<path d="M185.82,90.79" fill="none" stroke="rgb(255, 255, 255)" stroke-width="6.10" stroke-opacity="1.00" stroke-linejoin="round"/>
<path d="M186.43,98.39 C186.43,98.39 186.36,98.51 186.36,98.51" fill="none" stroke="rgb(255, 255, 255)" stroke-width="6.10" stroke-opacity="1.00" stroke-linejoin="round"/>
<path d="M189.69,105.35 C189.69,105.35 189.51,105.26 189.51,105.26" fill="none" stroke="rgb(255, 255, 255)" stroke-width="6.10" stroke-opacity="1.00" stroke-linejoin="round"/>
<path d="M139.95,97.47" fill="none" stroke="rgb(255, 255, 255)" stroke-width="9.62" stroke-opacity="1.00" stroke-linejoin="round"/>
<path d="M194.73,96.08 C194.73,96.08 194.30,96.12 194.30,96.12" fill="none" stroke="rgb(255, 255, 255)" stroke-width="9.62" stroke-opacity="1.00" stroke-linejoin="round"/>
<path d="M349.35,142.18 C349.41,142.18 349.45,142.19 349.47,142.19 C349.48,142.20 349.50,142.21 349.53,142.22 C349.53,142.22 349.54,142.29 349.54,142.29" fill="none" stroke="rgb(1, 0, 1)" stroke-width="3.38" stroke-opacity="1.00" stroke-linejoin="round"/>
<path d="M349.63,143.21 C349.57,143.36 349.52,143.40 349.04,143.66 C338.76,149.04 315.11,162.20 303.64,168.23 C292.68,173.82 263.57,186.30 255.23,188.90 C255.21,188.91 239.96,192.91 233.04,194.26 C225.88,195.57 219.06,196.34 213.56,196.20 C213.51,196.20 213.45,196.20 213.40,196.19" fill="none" stroke="rgb(1, 0, 1)" stroke-width="3.38" stroke-opacity="1.00" stroke-linejoin="round"/>
<path d="M344.58,126.79" fill="none" stroke="rgb(1, 0, 1)" stroke-width="3.38" stroke-opacity="1.00" stroke-linejoin="round"/>
<path d="M304.58,192.43" fill="none" stroke="rgb(255, 255, 255)" stroke-width="63.77" stroke-opacity="1.00" stroke-linejoin="round"/>
<path d="M238.93,194.28" fill="none" stroke="rgb(255, 255, 255)" stroke-width="14.09" stroke-opacity="1.00" stroke-linejoin="round"/>
<path d="M261.25,186.47 C261.27,186.45 261.28,186.44 261.30,186.42 C261.32,186.41 261.33,186.40 261.34,186.39 C261.34,186.39 260.94,186.03 260.94,186.03" fill="none" stroke="rgb(1, 0, 1)" stroke-width="2.73" stroke-opacity="1.00" stroke-linejoin="round"/>
<path d="M273.19,180.87 C273.19,180.87 273.27,180.81 273.27,180.81 C273.16,180.63 273.09,180.51 273.07,180.45 C273.04,180.39 273.01,180.32 272.98,180.24" fill="none" stroke="rgb(1, 0, 1)" stroke-width="2.73" stroke-opacity="1.00" stroke-linejoin="round"/>
<path d="M273.41,182.10 C273.34,182.03 273.25,181.94 273.19,181.93 C273.13,181.91 273.06,181.91 272.99,181.89 C272.96,181.89 272.92,181.87 272.87,181.84" fill="none" stroke="rgb(1, 0, 1)" stroke-width="2.73" stroke-opacity="1.00" stroke-linejoin="round"/>
<path d="M272.87,181.84 L270.15,173.23" fill="none" stroke="rgb(1, 0, 1)" stroke-width="2.73" stroke-opacity="1.00" stroke-linejoin="round"/>
<path d="M270.15,173.23 C270.15,173.23 270.18,173.14 270.18,173.14 C270.07,173.18 269.96,173.30 269.89,173.46 C269.88,173.49 269.87,173.54 269.86,173.59" fill="none" stroke="rgb(1, 0, 1)" stroke-width="2.73" stroke-opacity="1.00" stroke-linejoin="round"/>
<path d="M305.90,79.77 C305.90,79.77 305.95,79.78 305.95,79.78 C305.95,79.78 305.95,79.78 305.95,79.78 C305.49,79.71 304.91,79.58 304.51,79.46 C303.52,79.15 302.14,77.80 301.93,76.79 C301.72,75.64 303.78,73.62 305.57,73.12 C308.27,72.39 313.88,72.86 317.26,74.31 C320.38,75.68 322.55,77.75 322.67,78.65 C322.97,81.29 318.17,82.64 316.93,82.44 C316.52,82.37 315.90,82.22 315.79,82.17 C315.77,82.16 315.77,82.16 315.78,82.15" fill="none" stroke="rgb(0, 0, 0)" stroke-width="2.52" stroke-opacity="1.00" stroke-linejoin="round"/>
<path d="M355.20,114.90 C355.20,114.90 355.22,114.95 355.22,114.95 C355.22,114.95 355.22,114.95 355.22,114.95 C355.01,114.47 354.76,113.83 354.62,113.37 C354.26,112.23 354.37,110.01 354.91,109.12 C355.53,108.13 358.01,108.69 359.35,110.04 C361.35,112.08 364.20,117.70 365.16,121.88 C366.02,125.76 365.89,129.23 365.37,129.96 C364.74,130.80 362.43,130.65 361.32,129.54 C360.82,129.03 359.91,127.69 359.67,127.13 C359.48,126.69 359.23,126.01 359.20,125.87 C359.20,125.85 359.20,125.84 359.21,125.85" fill="none" stroke="rgb(0, 0, 0)" stroke-width="2.52" stroke-opacity="1.00" stroke-linejoin="round"/>
<path d="M360.06,185.44 C360.06,185.44 360.03,185.49 360.03,185.49 C360.03,185.49 360.03,185.49 360.03,185.49 C360.23,184.96 360.51,184.29 360.72,183.84 C361.27,182.73 362.78,181.30 363.66,181.20 C364.66,181.12 365.69,183.85 365.56,186.03 C365.35,189.31 363.30,195.84 361.11,199.60 C359.07,203.08 356.74,205.32 355.97,205.33 C353.74,205.29 354.07,199.45 354.60,198.02 C354.78,197.54 355.09,196.84 355.16,196.72 C355.17,196.70 355.18,196.70 355.18,196.71" fill="none" stroke="rgb(0, 0, 0)" stroke-width="2.52" stroke-opacity="1.00" stroke-linejoin="round"/>
<path d="M316.81,238.27 C316.81,238.27 316.77,238.28 316.77,238.28 C316.77,238.28 316.77,238.28 316.77,238.28 C317.22,238.10 317.81,237.91 318.23,237.81 C319.26,237.56 321.04,238.01 321.60,238.77 C322.22,239.66 321.02,242.49 319.53,243.86 C317.27,245.91 311.85,248.44 308.17,248.95 C304.76,249.40 301.98,248.74 301.54,248.02 C300.32,245.89 304.31,242.20 305.54,241.73 C305.95,241.57 306.58,241.38 306.71,241.36 C306.72,241.36 306.73,241.36 306.72,241.37" fill="none" stroke="rgb(0, 0, 0)" stroke-width="2.52" stroke-opacity="1.00" stroke-linejoin="round"/>
<path d="M258.03,233.61 C258.03,233.61 258.00,233.57 258.00,233.57 C258.00,233.57 258.00,233.57 258.00,233.57 C258.37,233.88 258.83,234.30 259.13,234.63 C259.88,235.43 260.58,237.41 260.40,238.47 C260.17,239.66 257.65,240.47 255.91,240.00 C253.31,239.27 248.61,235.89 246.21,232.76 C243.99,229.85 242.86,226.78 243.08,225.87 C243.37,224.81 245.58,223.73 247.02,224.11 C247.68,224.29 249.00,224.98 249.43,225.34 C249.77,225.62 250.25,226.09 250.33,226.19 C250.34,226.21 250.34,226.21 250.33,226.21" fill="none" stroke="rgb(0, 0, 0)" stroke-width="2.52" stroke-opacity="1.00" stroke-linejoin="round"/>
<path d="M227.98,174.97 C227.98,174.97 227.98,174.91 227.98,174.91 C227.98,174.91 227.98,174.91 227.98,174.91 C227.99,175.47 227.97,176.19 227.93,176.70 C227.83,177.95 226.93,179.98 226.15,180.52 C225.24,181.12 223.29,179.29 222.62,177.34 C221.63,174.39 221.19,167.64 221.87,163.23 C222.53,159.15 223.89,155.98 224.61,155.57 C225.46,155.11 227.41,156.46 227.97,158.08 C228.22,158.82 228.52,160.55 228.53,161.20 C228.53,161.71 228.50,162.48 228.48,162.62 C228.47,162.64 228.47,162.65 228.47,162.64" fill="none" stroke="rgb(0, 0, 0)" stroke-width="2.52" stroke-opacity="1.00" stroke-linejoin="round"/>
<path d="M249.28,106.50 C249.28,106.50 249.32,106.47 249.32,106.47 C249.32,106.47 249.32,106.47 249.32,106.47 C248.96,106.86 248.48,107.34 248.13,107.64 C247.25,108.40 245.43,108.94 244.63,108.57 C243.73,108.13 243.82,105.04 244.72,103.07 C246.09,100.11 250.24,95.08 253.50,92.71 C256.52,90.54 259.36,89.66 260.03,90.05 C261.94,91.26 259.54,96.54 258.57,97.60 C258.24,97.95 257.72,98.45 257.61,98.53 C257.59,98.53 257.59,98.54 257.59,98.53" fill="none" stroke="rgb(0, 0, 0)" stroke-width="2.52" stroke-opacity="1.00" stroke-linejoin="round"/>
<path d="M306.25,72.39 C306.25,72.39 306.28,72.45 306.28,72.45 C306.64,71.94 308.33,69.54 308.97,68.46 C309.53,67.45 309.92,61.54 310.16,58.07 C310.45,54.23 312.09,46.00 314.25,43.01 C315.40,41.49 318.77,39.86 320.12,40.04 C321.45,40.31 324.24,42.98 324.85,44.75 C325.45,46.59 325.47,51.04 325.04,53.20 C324.30,56.56 320.37,67.77 320.32,68.00 C320.25,68.37 320.53,72.08 320.85,74.23 C320.98,75.12 321.06,76.21 321.06,76.24" fill="none" stroke="rgb(0, 0, 0)" stroke-width="2.52" stroke-opacity="1.00" stroke-linejoin="round"/>
<path d="M360.21,110.18 C360.21,110.18 360.18,110.25 360.18,110.25 C360.31,110.25 363.96,110.07 364.30,110.06 C365.91,109.96 367.47,109.30 369.45,107.15 C374.11,102.12 378.02,98.35 380.34,97.43 C382.69,96.57 386.10,96.85 387.79,98.15 C389.08,99.20 390.44,101.86 390.60,103.44 C390.70,105.18 390.15,108.48 389.44,109.91 C388.66,111.36 385.87,113.97 384.07,114.92 C381.71,116.13 372.70,118.79 371.90,119.58 C369.12,122.54 366.94,125.63 366.58,126.10 C366.37,126.37 366.05,126.76 366.03,126.78" fill="none" stroke="rgb(0, 0, 0)" stroke-width="2.52" stroke-opacity="1.00" stroke-linejoin="round"/>
<path d="M365.95,186.93 C365.95,186.93 365.89,186.96 365.89,186.96 C366.20,187.45 367.91,190.23 368.33,190.71 C369.25,191.71 371.32,192.76 372.08,192.90 C372.52,192.98 381.20,194.79 383.23,195.67 C384.87,196.43 387.14,198.89 387.53,200.50 C387.82,201.85 387.11,206.13 386.51,207.60 C385.85,209.07 383.59,211.80 382.49,212.26 C381.21,212.75 378.13,212.24 376.57,211.38 C374.61,210.25 367.75,204.72 367.38,204.50 C366.62,204.04 361.95,203.78 360.11,203.83 C359.34,203.86 358.44,203.79 358.41,203.78" fill="none" stroke="rgb(0, 0, 0)" stroke-width="2.52" stroke-opacity="1.00" stroke-linejoin="round"/>
<path d="M319.16,244.85 C319.16,244.85 319.11,244.81 319.11,244.81 C318.96,245.44 318.11,248.96 318.04,249.68 C317.91,251.06 318.20,253.08 319.35,256.02 C322.00,262.84 323.89,268.64 323.81,271.40 C323.66,274.20 322.21,277.30 320.30,278.85 C318.82,279.97 316.00,280.86 314.51,280.69 C312.68,280.39 310.64,278.41 309.71,276.13 C308.83,273.83 308.52,268.28 308.41,261.04 C308.39,258.24 307.52,255.81 307.09,254.86 C306.51,253.61 304.60,250.50 304.32,250.01 C304.16,249.72 303.94,249.29 303.93,249.26" fill="none" stroke="rgb(0, 0, 0)" stroke-width="2.52" stroke-opacity="1.00" stroke-linejoin="round"/>
<path d="M255.06,240.33 C255.06,240.33 255.06,240.25 255.06,240.25 C254.56,240.54 251.80,242.14 251.28,242.57 C249.70,243.92 242.61,259.50 240.28,261.74 C238.44,263.42 235.80,264.18 233.88,263.54 C232.44,263.00 230.35,261.19 229.59,259.81 C228.68,258.01 228.74,254.97 229.69,252.52 C230.69,250.11 234.15,245.83 239.04,240.26 C241.16,237.87 242.56,233.13 243.07,230.96 C243.27,230.06 243.60,229.00 243.61,228.97" fill="none" stroke="rgb(0, 0, 0)" stroke-width="2.52" stroke-opacity="1.00" stroke-linejoin="round"/>
<path d="M221.93,176.76 C221.93,176.76 221.98,176.70 221.98,176.70 C221.87,176.64 218.91,174.92 218.34,174.73 C217.25,174.38 215.50,174.43 212.91,175.35 C206.89,177.46 201.86,178.85 199.68,178.36 C197.47,177.79 195.30,175.66 194.48,173.22 C193.90,171.37 193.80,168.05 194.26,166.41 C194.90,164.42 197.01,162.41 199.22,161.62 C201.43,160.89 206.32,161.08 212.88,161.67 C215.74,161.95 219.58,160.04 221.28,159.04 C221.98,158.62 222.86,158.20 222.89,158.19" fill="none" stroke="rgb(0, 0, 0)" stroke-width="2.52" stroke-opacity="1.00" stroke-linejoin="round"/>
<path d="M244.71,102.02 C244.71,102.02 244.77,102.03 244.77,102.03 C244.76,101.91 244.62,101.17 244.60,100.78 C244.44,98.79 243.97,97.71 242.61,96.47 C242.36,96.25 234.19,89.29 232.46,86.93 C231.36,85.37 229.88,81.75 229.64,79.86 C229.44,77.95 230.15,73.66 230.86,71.98 C231.57,70.45 233.57,68.56 234.87,68.19 C236.21,67.88 239.42,68.38 240.88,69.13 C242.29,69.92 244.93,72.65 245.97,74.43 C247.32,76.78 250.60,85.60 251.47,86.27 C252.36,86.97 254.28,88.37 255.90,89.28 C256.56,89.66 257.33,90.20 257.35,90.22" fill="none" stroke="rgb(0, 0, 0)" stroke-width="2.52" stroke-opacity="1.00" stroke-linejoin="round"/>
<path d="M299.48,95.74 C299.48,95.74 299.24,95.69 299.24,95.69 C299.07,95.85 298.80,96.22 298.65,96.51 C298.61,96.59 298.56,96.73 298.50,96.90" fill="none" stroke="rgb(0, 0, 0)" stroke-width="2.52" stroke-opacity="1.00" stroke-linejoin="round"/>
<path d="M341.18,119.76 C341.18,119.76 341.07,119.50 341.07,119.50 C340.87,119.45 340.48,119.45 340.21,119.51 C340.13,119.52 340.01,119.57 339.86,119.63" fill="none" stroke="rgb(0, 0, 0)" stroke-width="2.52" stroke-opacity="1.00" stroke-linejoin="round"/>
<path d="M348.99,175.53 C348.99,175.53 349.10,175.26 349.10,175.26 C349.02,175.04 348.81,174.66 348.61,174.45 C348.56,174.38 348.46,174.30 348.34,174.21" fill="none" stroke="rgb(0, 0, 0)" stroke-width="2.52" stroke-opacity="1.00" stroke-linejoin="round"/>
<path d="M317.04,221.05 C317.04,221.05 317.28,220.97 317.28,220.97 C317.38,220.74 317.51,220.28 317.54,219.95 C317.55,219.86 317.55,219.71 317.54,219.53" fill="none" stroke="rgb(0, 0, 0)" stroke-width="2.52" stroke-opacity="1.00" stroke-linejoin="round"/>
<path d="M269.38,222.05 C269.38,222.05 269.57,222.22 269.57,222.22 C269.78,222.16 270.15,221.96 270.38,221.76 C270.45,221.71 270.54,221.61 270.66,221.47" fill="none" stroke="rgb(0, 0, 0)" stroke-width="2.52" stroke-opacity="1.00" stroke-linejoin="round"/>
<path d="M241.90,177.77 C241.90,177.77 241.90,178.06 241.90,178.06 C242.06,178.21 242.39,178.43 242.65,178.51 C242.73,178.54 242.84,178.56 243.00,178.57" fill="none" stroke="rgb(0, 0, 0)" stroke-width="2.52" stroke-opacity="1.00" stroke-linejoin="round"/>
<path d="M255.30,121.55 C255.30,121.55 255.10,121.75 255.10,121.75 C255.09,122.00 255.14,122.47 255.23,122.77 C255.26,122.85 255.31,122.98 255.39,123.14" fill="none" stroke="rgb(0, 0, 0)" stroke-width="2.52" stroke-opacity="1.00" stroke-linejoin="round"/>
<path d="M299.45,96.62 C299.46,96.56 299.46,96.51 299.45,96.49 C299.45,96.46 299.43,96.42 299.40,96.37 C299.35,96.80 299.30,97.24 299.25,97.68 C299.22,97.91 299.19,98.13 299.16,98.36" fill="none" stroke="rgb(0, 0, 0)" stroke-width="2.52" stroke-opacity="1.00" stroke-linejoin="round"/>
<path d="M340.59,120.34 C340.63,120.30 340.66,120.27 340.67,120.25 C340.69,120.23 340.70,120.19 340.72,120.12 C340.41,120.37 340.10,120.62 339.78,120.87 C339.62,121.00 339.45,121.13 339.29,121.26" fill="none" stroke="rgb(0, 0, 0)" stroke-width="2.52" stroke-opacity="1.00" stroke-linejoin="round"/>
<path d="M348.28,175.37 C348.33,175.39 348.37,175.40 348.39,175.39 C348.41,175.39 348.45,175.38 348.50,175.35 C348.16,175.23 347.82,175.10 347.48,174.98 C347.33,174.92 347.16,174.85 346.96,174.77" fill="none" stroke="rgb(0, 0, 0)" stroke-width="2.52" stroke-opacity="1.00" stroke-linejoin="round"/>
<path d="M316.75,220.28 C316.76,220.33 316.78,220.37 316.79,220.39 C316.80,220.41 316.83,220.44 316.88,220.47 C316.77,220.06 316.66,219.66 316.55,219.25 C316.50,219.04 316.44,218.83 316.39,218.61" fill="none" stroke="rgb(0, 0, 0)" stroke-width="2.52" stroke-opacity="1.00" stroke-linejoin="round"/>
<path d="M269.72,221.24 C269.70,221.29 269.68,221.33 269.67,221.36 C269.67,221.38 269.67,221.43 269.67,221.50 C269.88,221.12 270.08,220.74 270.28,220.35 C270.39,220.16 270.50,219.96 270.60,219.76" fill="none" stroke="rgb(0, 0, 0)" stroke-width="2.52" stroke-opacity="1.00" stroke-linejoin="round"/>
<path d="M242.62,177.53 C242.62,177.53 241.99,176.91 241.99,176.91 C242.41,176.83 242.65,176.74 242.71,176.65 C242.76,176.56 242.71,176.33 242.54,175.97" fill="none" stroke="rgb(0, 0, 0)" stroke-width="2.52" stroke-opacity="1.00" stroke-linejoin="round"/>
<path d="M255.85,122.07 C255.82,122.03 255.79,122.01 255.77,122.00 C255.75,121.99 255.71,121.98 255.66,121.98 C255.91,122.27 256.16,122.57 256.41,122.86 C256.53,123.02 256.66,123.17 256.79,123.33" fill="none" stroke="rgb(0, 0, 0)" stroke-width="2.52" stroke-opacity="1.00" stroke-linejoin="round"/>
<path d="M300.83,96.73 L292.94,142.84" fill="none" stroke="rgb(0, 0, 0)" stroke-width="2.52" stroke-opacity="1.00" stroke-linejoin="round"/>
<path d="M292.94,142.84 C292.99,142.80 293.03,142.77 293.08,142.73 C293.10,142.71 293.14,142.68 293.18,142.65 C293.18,142.65 292.89,142.81 292.89,142.81" fill="none" stroke="rgb(0, 0, 0)" stroke-width="2.52" stroke-opacity="1.00" stroke-linejoin="round"/>
<path d="M340.86,121.90 L306.79,145.81" fill="none" stroke="rgb(0, 0, 0)" stroke-width="2.52" stroke-opacity="1.00" stroke-linejoin="round"/>
<path d="M306.79,145.81 C306.79,145.81 307.06,145.91 307.06,145.91 C307.06,145.91 306.78,145.74 306.78,145.74" fill="none" stroke="rgb(0, 0, 0)" stroke-width="2.52" stroke-opacity="1.00" stroke-linejoin="round"/>
<path d="M347.82,177.06 L312.66,160.91" fill="none" stroke="rgb(0, 0, 0)" stroke-width="2.52" stroke-opacity="1.00" stroke-linejoin="round"/>
<path d="M312.66,160.91 C312.66,160.91 312.74,161.23 312.74,161.23 C312.74,161.23 312.70,160.85 312.70,160.85" fill="none" stroke="rgb(0, 0, 0)" stroke-width="2.52" stroke-opacity="1.00" stroke-linejoin="round"/>
<path d="M316.14,220.23 L306.11,176.77" fill="none" stroke="rgb(0, 0, 0)" stroke-width="2.52" stroke-opacity="1.00" stroke-linejoin="round"/>
<path d="M306.11,176.77 C306.11,176.77 305.96,177.07 305.96,177.07 C305.96,177.07 306.18,176.77 306.18,176.77" fill="none" stroke="rgb(0, 0, 0)" stroke-width="2.52" stroke-opacity="1.00" stroke-linejoin="round"/>
<path d="M268.50,220.87 L292.09,181.45" fill="none" stroke="rgb(0, 0, 0)" stroke-width="2.52" stroke-opacity="1.00" stroke-linejoin="round"/>
<path d="M292.09,181.45 C292.04,181.46 291.98,181.47 291.93,181.48 C291.90,181.49 291.86,181.50 291.81,181.51 C291.81,181.51 292.13,181.51 292.13,181.51" fill="none" stroke="rgb(0, 0, 0)" stroke-width="2.52" stroke-opacity="1.00" stroke-linejoin="round"/>
<path d="M242.58,177.22 L281.15,171.42" fill="none" stroke="rgb(0, 0, 0)" stroke-width="2.52" stroke-opacity="1.00" stroke-linejoin="round"/>
<path d="M281.15,171.42 C281.15,171.42 280.96,171.19 280.96,171.19 C280.96,171.19 281.13,171.49 281.13,171.49" fill="none" stroke="rgb(0, 0, 0)" stroke-width="2.52" stroke-opacity="1.00" stroke-linejoin="round"/>
<path d="M256.98,120.55 L281.53,154.24" fill="none" stroke="rgb(0, 0, 0)" stroke-width="2.52" stroke-opacity="1.00" stroke-linejoin="round"/>
<path d="M281.53,154.24 C281.53,154.24 281.57,153.90 281.57,153.90 C281.57,153.90 281.47,154.27 281.47,154.27" fill="none" stroke="rgb(0, 0, 0)" stroke-width="2.52" stroke-opacity="1.00" stroke-linejoin="round"/>
<path d="M292.89,142.81 L269.52,107.75" fill="none" stroke="rgb(0, 0, 0)" stroke-width="2.52" stroke-opacity="1.00" stroke-linejoin="round"/>
<path d="M269.52,107.75 C269.53,107.74 269.54,107.73 269.56,107.71 C269.57,107.69 269.60,107.64 269.65,107.56 C269.59,107.62 269.55,107.66 269.53,107.68 C269.51,107.71 269.48,107.76 269.45,107.83" fill="none" stroke="rgb(0, 0, 0)" stroke-width="2.52" stroke-opacity="1.00" stroke-linejoin="round"/>
<path d="M306.78,145.74 L316.48,99.72" fill="none" stroke="rgb(0, 0, 0)" stroke-width="2.52" stroke-opacity="1.00" stroke-linejoin="round"/>
<path d="M316.48,99.72 C316.49,99.72 316.51,99.72 316.53,99.72 C316.55,99.72 316.60,99.71 316.68,99.71 C316.61,99.69 316.56,99.68 316.53,99.68 C316.50,99.68 316.45,99.69 316.39,99.71" fill="none" stroke="rgb(0, 0, 0)" stroke-width="2.52" stroke-opacity="1.00" stroke-linejoin="round"/>
<path d="M312.70,160.85 L348.15,138.53" fill="none" stroke="rgb(0, 0, 0)" stroke-width="2.52" stroke-opacity="1.00" stroke-linejoin="round"/>
<path d="M348.15,138.53 C348.16,138.54 348.17,138.55 348.18,138.57 C348.19,138.59 348.22,138.63 348.27,138.70 C348.25,138.62 348.22,138.57 348.21,138.54 C348.19,138.51 348.16,138.48 348.11,138.43" fill="none" stroke="rgb(0, 0, 0)" stroke-width="2.52" stroke-opacity="1.00" stroke-linejoin="round"/>
<path d="M306.18,176.77 L340.69,194.95" fill="none" stroke="rgb(0, 0, 0)" stroke-width="2.52" stroke-opacity="1.00" stroke-linejoin="round"/>
<path d="M340.69,194.95 C340.68,194.96 340.68,194.98 340.67,195.01 C340.67,195.03 340.66,195.09 340.64,195.18 C340.68,195.10 340.70,195.04 340.71,195.01 C340.72,194.98 340.72,194.92 340.73,194.84" fill="none" stroke="rgb(0, 0, 0)" stroke-width="2.52" stroke-opacity="1.00" stroke-linejoin="round"/>
<path d="M292.13,181.51 L300.42,226.61" fill="none" stroke="rgb(0, 0, 0)" stroke-width="2.52" stroke-opacity="1.00" stroke-linejoin="round"/>
<path d="M299.71,226.50 C299.70,226.51 299.68,226.52 299.67,226.53 C299.65,226.54 299.60,226.57 299.53,226.62 C299.61,226.60 299.66,226.58 299.68,226.57 C299.71,226.55 299.75,226.52 299.80,226.46" fill="none" stroke="rgb(0, 0, 0)" stroke-width="2.52" stroke-opacity="1.00" stroke-linejoin="round"/>
<path d="M281.13,171.49 L256.07,209.42" fill="none" stroke="rgb(0, 0, 0)" stroke-width="2.52" stroke-opacity="1.00" stroke-linejoin="round"/>
<path d="M256.07,209.42 C256.06,209.42 256.05,209.41 256.03,209.40 C256.02,209.39 255.97,209.37 255.90,209.33 C255.95,209.39 255.99,209.43 256.02,209.44 C256.04,209.46 256.09,209.47 256.15,209.48" fill="none" stroke="rgb(0, 0, 0)" stroke-width="2.52" stroke-opacity="1.00" stroke-linejoin="round"/>
<path d="M281.47,154.27 L242.64,156.58" fill="none" stroke="rgb(0, 0, 0)" stroke-width="2.52" stroke-opacity="1.00" stroke-linejoin="round"/>
<path d="M242.64,156.58 C242.64,156.56 242.64,156.54 242.63,156.52 C242.63,156.50 242.62,156.44 242.60,156.35 C242.59,156.44 242.59,156.50 242.60,156.53 C242.60,156.57 242.62,156.62 242.64,156.69" fill="none" stroke="rgb(0, 0, 0)" stroke-width="2.52" stroke-opacity="1.00" stroke-linejoin="round"/>
<path d="M291.50,154.73 C291.50,154.72 291.51,154.71 291.51,154.70 C291.52,154.70 291.53,154.69 291.54,154.68 C291.54,154.68 291.50,154.74 291.50,154.74" fill="none" stroke="rgb(0, 0, 0)" stroke-width="2.52" stroke-opacity="1.00" stroke-linejoin="round"/>
<path d="M298.23,152.58 C298.24,152.58 298.25,152.58 298.26,152.58 C298.26,152.58 298.27,152.59 298.29,152.59 C298.29,152.59 298.23,152.59 298.23,152.59" fill="none" stroke="rgb(0, 0, 0)" stroke-width="2.52" stroke-opacity="1.00" stroke-linejoin="round"/>
<path d="M303.43,157.47 C303.43,157.48 303.44,157.49 303.44,157.49 C303.44,157.50 303.44,157.51 303.45,157.53 C303.45,157.53 303.42,157.47 303.42,157.47" fill="none" stroke="rgb(0, 0, 0)" stroke-width="2.52" stroke-opacity="1.00" stroke-linejoin="round"/>
<path d="M303.16,165.71 C303.16,165.72 303.16,165.73 303.15,165.74 C303.15,165.74 303.15,165.75 303.13,165.77 C303.13,165.77 303.16,165.70 303.16,165.70" fill="none" stroke="rgb(0, 0, 0)" stroke-width="2.52" stroke-opacity="1.00" stroke-linejoin="round"/>
<path d="M297.64,171.10 C297.63,171.11 297.63,171.11 297.62,171.11 C297.61,171.11 297.60,171.11 297.59,171.11 C297.59,171.11 297.64,171.09 297.64,171.09" fill="none" stroke="rgb(0, 0, 0)" stroke-width="2.52" stroke-opacity="1.00" stroke-linejoin="round"/>
<path d="M291.02,169.58 C291.01,169.57 291.01,169.57 291.00,169.56 C291.00,169.56 290.99,169.55 290.98,169.54 C290.98,169.54 291.03,169.57 291.03,169.57" fill="none" stroke="rgb(0, 0, 0)" stroke-width="2.52" stroke-opacity="1.00" stroke-linejoin="round"/>
<path d="M288.29,162.29 C288.28,162.28 288.28,162.27 288.28,162.26 C288.28,162.26 288.29,162.24 288.29,162.22 C288.29,162.22 288.29,162.29 288.29,162.29" fill="none" stroke="rgb(0, 0, 0)" stroke-width="2.52" stroke-opacity="1.00" stroke-linejoin="round"/>
<path d="M291.50,154.74 L298.10,152.35" fill="none" stroke="rgb(0, 0, 0)" stroke-width="2.52" stroke-opacity="1.00" stroke-linejoin="round"/>
<path d="M298.10,152.35 C298.10,152.33 298.10,152.32 298.10,152.31 C298.10,152.30 298.10,152.30 298.11,152.28 C298.11,152.28 298.04,152.33 298.04,152.33" fill="none" stroke="rgb(0, 0, 0)" stroke-width="2.52" stroke-opacity="1.00" stroke-linejoin="round"/>
<path d="M298.23,152.59 L303.50,157.18" fill="none" stroke="rgb(0, 0, 0)" stroke-width="2.52" stroke-opacity="1.00" stroke-linejoin="round"/>
<path d="M303.50,157.18 C303.51,157.17 303.52,157.16 303.53,157.16 C303.53,157.16 303.54,157.15 303.55,157.15 C303.55,157.15 303.48,157.12 303.48,157.12" fill="none" stroke="rgb(0, 0, 0)" stroke-width="2.52" stroke-opacity="1.00" stroke-linejoin="round"/>
<path d="M303.42,157.47 L303.39,165.58" fill="none" stroke="rgb(0, 0, 0)" stroke-width="2.52" stroke-opacity="1.00" stroke-linejoin="round"/>
<path d="M303.39,165.58 C303.41,165.59 303.42,165.59 303.42,165.59 C303.43,165.60 303.43,165.60 303.44,165.60 C303.44,165.60 303.42,165.52 303.42,165.52" fill="none" stroke="rgb(0, 0, 0)" stroke-width="2.52" stroke-opacity="1.00" stroke-linejoin="round"/>
<path d="M303.16,165.70 L297.85,171.23" fill="none" stroke="rgb(0, 0, 0)" stroke-width="2.52" stroke-opacity="1.00" stroke-linejoin="round"/>
<path d="M297.85,171.23 C297.86,171.25 297.86,171.26 297.86,171.26 C297.87,171.27 297.87,171.28 297.87,171.29 C297.87,171.29 297.91,171.21 297.91,171.21" fill="none" stroke="rgb(0, 0, 0)" stroke-width="2.52" stroke-opacity="1.00" stroke-linejoin="round"/>
<path d="M297.64,171.09 L291.06,169.87" fill="none" stroke="rgb(0, 0, 0)" stroke-width="2.52" stroke-opacity="1.00" stroke-linejoin="round"/>
<path d="M291.06,169.87 C291.05,169.88 291.04,169.89 291.04,169.90 C291.04,169.90 291.03,169.91 291.03,169.92 C291.03,169.92 291.10,169.91 291.10,169.91" fill="none" stroke="rgb(0, 0, 0)" stroke-width="2.52" stroke-opacity="1.00" stroke-linejoin="round"/>
<path d="M291.03,169.57 L288.12,162.52" fill="none" stroke="rgb(0, 0, 0)" stroke-width="2.52" stroke-opacity="1.00" stroke-linejoin="round"/>
<path d="M288.12,162.52 C288.10,162.52 288.09,162.53 288.09,162.53 C288.08,162.53 288.07,162.53 288.06,162.53 C288.06,162.53 288.11,162.59 288.11,162.59" fill="none" stroke="rgb(0, 0, 0)" stroke-width="2.52" stroke-opacity="1.00" stroke-linejoin="round"/>
<path d="M288.29,162.29 L291.25,154.72" fill="none" stroke="rgb(0, 0, 0)" stroke-width="2.52" stroke-opacity="1.00" stroke-linejoin="round"/>
<path d="M291.25,154.72 C291.24,154.71 291.23,154.70 291.23,154.70 C291.23,154.70 291.22,154.69 291.22,154.68 C291.22,154.68 291.20,154.77 291.20,154.77" fill="none" stroke="rgb(0, 0, 0)" stroke-width="2.52" stroke-opacity="1.00" stroke-linejoin="round"/>
<path d="M280.45,171.64 C280.48,171.62 280.50,171.61 280.51,171.60 C280.53,171.59 280.55,171.57 280.57,171.54 C280.62,171.49 280.88,171.41 280.98,171.37 C281.04,171.35 281.16,171.30 281.34,171.22" fill="none" stroke="rgb(0, 0, 0)" stroke-width="2.52" stroke-opacity="1.00" stroke-linejoin="round"/>
<path d="M280.99,153.73 C281.02,153.75 281.04,153.76 281.05,153.76 C281.07,153.77 281.10,153.77 281.12,153.78 C281.18,153.79 281.38,153.97 281.46,154.04 C281.51,154.09 281.62,154.17 281.77,154.28" fill="none" stroke="rgb(0, 0, 0)" stroke-width="2.52" stroke-opacity="1.00" stroke-linejoin="round"/>
<path d="M292.97,141.99 C292.97,142.03 292.98,142.05 292.98,142.06 C292.99,142.09 293.00,142.11 293.01,142.14 C293.04,142.21 293.04,142.46 293.03,142.65 C293.03,142.73 293.04,142.88 293.05,143.10" fill="none" stroke="rgb(0, 0, 0)" stroke-width="2.52" stroke-opacity="1.00" stroke-linejoin="round"/>
<path d="M307.36,145.25 C307.34,145.29 307.33,145.31 307.32,145.32 C307.31,145.35 307.30,145.37 307.29,145.41 C307.26,145.47 307.10,145.64 306.97,145.76 C306.92,145.82 306.83,145.93 306.69,146.09" fill="none" stroke="rgb(0, 0, 0)" stroke-width="2.52" stroke-opacity="1.00" stroke-linejoin="round"/>
<path d="M313.34,161.07 C313.31,161.07 313.29,161.08 313.27,161.08 C313.25,161.08 313.23,161.09 313.20,161.10 C313.14,161.12 312.89,161.07 312.79,161.05 C312.72,161.04 312.60,161.02 312.41,161.01" fill="none" stroke="rgb(0, 0, 0)" stroke-width="2.52" stroke-opacity="1.00" stroke-linejoin="round"/>
<path d="M306.40,177.53 C306.38,177.50 306.36,177.48 306.35,177.47 C306.34,177.45 306.32,177.44 306.30,177.42 C306.25,177.38 306.16,177.16 306.10,176.99 C306.07,176.92 306.01,176.79 305.92,176.61" fill="none" stroke="rgb(0, 0, 0)" stroke-width="2.52" stroke-opacity="1.00" stroke-linejoin="round"/>
<path d="M291.76,182.23 C291.77,182.19 291.77,182.17 291.77,182.15 C291.77,182.13 291.78,182.10 291.78,182.06 C291.78,181.99 291.87,181.76 291.94,181.59 C291.97,181.51 292.02,181.37 292.09,181.15" fill="none" stroke="rgb(0, 0, 0)" stroke-width="2.52" stroke-opacity="1.00" stroke-linejoin="round"/>
<path d="M281.34,171.22 L289.53,165.88" fill="none" stroke="rgb(0, 0, 0)" stroke-width="2.52" stroke-opacity="1.00" stroke-linejoin="round"/>
<path d="M289.53,165.88 C289.54,165.86 289.56,165.85 289.56,165.85 C289.57,165.84 289.58,165.83 289.60,165.81 C289.60,165.81 289.51,165.83 289.51,165.83" fill="none" stroke="rgb(0, 0, 0)" stroke-width="2.52" stroke-opacity="1.00" stroke-linejoin="round"/>
<path d="M281.77,154.28 L289.86,158.35" fill="none" stroke="rgb(0, 0, 0)" stroke-width="2.52" stroke-opacity="1.00" stroke-linejoin="round"/>
<path d="M289.86,158.35 C289.88,158.36 289.89,158.36 289.90,158.36 C289.90,158.36 289.92,158.37 289.94,158.38 C289.94,158.38 289.88,158.31 289.88,158.31" fill="none" stroke="rgb(0, 0, 0)" stroke-width="2.52" stroke-opacity="1.00" stroke-linejoin="round"/>
<path d="M293.05,143.10 L294.95,153.52" fill="none" stroke="rgb(0, 0, 0)" stroke-width="2.52" stroke-opacity="1.00" stroke-linejoin="round"/>
<path d="M294.95,153.52 C294.96,153.53 294.96,153.55 294.96,153.56 C294.97,153.57 294.97,153.58 294.98,153.61 C294.98,153.61 294.99,153.50 294.99,153.50" fill="none" stroke="rgb(0, 0, 0)" stroke-width="2.52" stroke-opacity="1.00" stroke-linejoin="round"/>
<path d="M306.69,146.09 L300.97,155.01" fill="none" stroke="rgb(0, 0, 0)" stroke-width="2.52" stroke-opacity="1.00" stroke-linejoin="round"/>
<path d="M300.97,155.01 C300.96,155.03 300.95,155.04 300.95,155.05 C300.94,155.06 300.94,155.08 300.92,155.10 C300.92,155.10 301.00,155.04 301.00,155.04" fill="none" stroke="rgb(0, 0, 0)" stroke-width="2.52" stroke-opacity="1.00" stroke-linejoin="round"/>
<path d="M312.41,161.01 L303.38,161.71" fill="none" stroke="rgb(0, 0, 0)" stroke-width="2.52" stroke-opacity="1.00" stroke-linejoin="round"/>
<path d="M303.38,161.71 C303.36,161.71 303.35,161.72 303.34,161.72 C303.33,161.72 303.32,161.72 303.30,161.73 C303.30,161.73 303.38,161.76 303.38,161.76" fill="none" stroke="rgb(0, 0, 0)" stroke-width="2.52" stroke-opacity="1.00" stroke-linejoin="round"/>
<path d="M305.92,176.61 L300.38,168.57" fill="none" stroke="rgb(0, 0, 0)" stroke-width="2.52" stroke-opacity="1.00" stroke-linejoin="round"/>
<path d="M300.38,168.57 C300.36,168.55 300.35,168.55 300.35,168.54 C300.34,168.53 300.33,168.52 300.31,168.50 C300.31,168.50 300.34,168.60 300.34,168.60" fill="none" stroke="rgb(0, 0, 0)" stroke-width="2.52" stroke-opacity="1.00" stroke-linejoin="round"/>
<path d="M292.09,181.15 L294.21,170.42" fill="none" stroke="rgb(0, 0, 0)" stroke-width="2.52" stroke-opacity="1.00" stroke-linejoin="round"/>
<path d="M294.21,170.42 C294.21,170.40 294.21,170.39 294.21,170.38 C294.21,170.37 294.21,170.35 294.22,170.32 C294.22,170.32 294.17,170.41 294.17,170.41" fill="none" stroke="rgb(0, 0, 0)" stroke-width="2.52" stroke-opacity="1.00" stroke-linejoin="round"/>
<path d="M322.71,101.82 C325.40,103.37 331.56,108.34 334.19,111.09 C337.05,114.10 340.60,119.08 342.52,122.61 C344.13,125.62 346.80,131.99 347.90,135.45 C349.81,141.57 351.27,157.50 350.65,164.26 C350.00,171.02 345.58,186.70 342.54,192.60 C340.80,195.94 336.96,202.03 334.80,204.87 C332.23,208.21 327.77,212.84 324.38,215.58 C321.25,218.08 314.21,222.47 311.25,223.78 C308.29,225.06 300.67,227.07 297.04,227.53 C292.97,228.01 286.85,227.75 282.90,226.92 C279.39,226.15 272.21,223.49 269.51,221.96 C266.82,220.41 260.66,215.44 258.02,212.69 C255.16,209.68 251.61,204.71 249.69,201.17 C248.08,198.16 245.41,191.79 244.31,188.33 C242.40,182.21 240.94,166.28 241.56,159.52 C242.21,152.76 246.63,137.09 249.67,131.18 C251.41,127.84 255.26,121.76 257.42,118.91 C259.98,115.57 264.44,110.95 267.83,108.21 C270.96,105.71 278.00,101.31 280.96,100.01 C283.92,98.73 291.55,96.71 295.17,96.25 C299.24,95.77 305.36,96.04 309.31,96.87 C312.82,97.63 320.01,100.29 322.71,101.82 Z" fill="none" stroke="rgb(0, 0, 0)" stroke-width="4.34" stroke-opacity="1.00" stroke-linejoin="round"/>
<path d="M329.19,87.46 C331.99,89.08 338.65,94.24 341.57,97.06 C344.39,99.83 349.50,106.02 351.45,109.20 C355.34,115.63 361.17,130.27 362.46,137.19 C363.88,145.02 364.43,161.64 363.45,168.52 C362.37,175.81 358.32,190.40 355.79,196.13 C352.79,202.80 343.32,217.11 338.61,222.07 C333.88,227.01 320.68,236.39 314.97,238.88 C311.78,240.25 303.77,242.54 299.88,243.18 C296.17,243.78 288.46,244.11 284.73,243.64 C280.87,243.11 273.56,241.22 270.01,239.84 C265.94,238.22 260.34,235.02 256.77,232.27 C253.67,229.86 247.93,224.26 245.31,221.10 C241.04,215.89 234.00,201.80 231.69,194.36 C229.67,187.76 227.89,171.18 228.20,163.08 C228.48,156.41 231.63,141.36 233.99,134.57 C236.48,127.49 244.01,113.96 248.80,107.81 C253.54,101.77 264.87,92.12 271.11,88.46 C274.81,86.32 280.55,83.84 284.77,82.62 C288.56,81.56 296.16,80.32 300.09,80.13 C303.87,79.98 311.46,80.98 315.03,81.89 C318.76,82.87 326.38,85.87 329.19,87.46 Z" fill="none" stroke="rgb(0, 0, 0)" stroke-width="5.39" stroke-opacity="1.00" stroke-linejoin="round"/>
<path d="M209.66,159.66 C209.66,159.66 209.66,160.43 209.66,160.43 C209.66,160.43 210.11,161.45 210.11,161.45 C210.11,161.45 209.40,162.33 209.40,162.33 C209.40,162.33 208.38,162.61 208.38,162.61 C208.38,162.61 206.90,162.67 206.90,162.67 C206.90,162.67 205.48,161.93 205.48,161.93 C205.48,161.93 204.52,161.36 204.52,161.36 C204.21,160.81 204.10,160.52 204.09,160.54 C203.99,160.73 203.84,161.01 203.64,161.39 C203.64,161.39 203.86,162.10 203.86,162.10" fill="none" stroke="rgb(255, 255, 255)" stroke-width="5.81" stroke-opacity="1.00" stroke-linejoin="round"/>
<path d="M217.78,162.50 C217.78,162.50 217.59,162.50 217.59,162.50 C217.59,162.50 217.61,160.88 217.61,160.88 C217.61,160.88 218.24,159.97 218.24,159.97 C218.24,159.97 218.98,158.55 218.98,158.55 C218.98,158.55 219.20,157.36 219.20,157.36 C219.20,157.36 219.66,158.32 219.66,158.32 C219.66,158.32 219.20,159.23 219.20,159.23 C219.20,159.23 218.98,161.02 218.98,161.02" fill="none" stroke="rgb(255, 255, 255)" stroke-width="5.81" stroke-opacity="1.00" stroke-linejoin="round"/>
<path d="M227.27,158.01 C227.27,158.01 227.27,157.76 227.27,157.76 C227.27,157.76 227.61,156.62 227.61,156.62 C227.61,156.62 227.87,155.26 227.87,155.26 C227.87,155.26 227.33,153.15 227.33,153.15 C227.33,153.15 227.84,154.40 227.84,154.40 C227.84,154.40 228.01,156.56 228.01,156.56 C228.01,156.56 227.95,158.32 227.95,158.32 C227.95,158.32 227.44,159.23 227.44,159.23 C227.44,159.23 226.53,161.65 226.53,161.65" fill="none" stroke="rgb(255, 255, 255)" stroke-width="5.81" stroke-opacity="1.00" stroke-linejoin="round"/>
<path d="M365.85,130.65 C365.85,130.65 364.89,129.40 364.89,129.40 C364.89,129.40 364.49,128.38 364.49,128.38 C364.49,128.38 364.15,127.24 364.15,127.24 C364.15,127.24 364.01,125.57 364.01,125.57 C364.01,125.57 365.09,125.57 365.09,125.57 C365.09,125.57 365.74,126.34 365.74,126.34 C365.74,126.34 366.36,127.84 366.36,127.84" fill="none" stroke="rgb(255, 255, 255)" stroke-width="5.81" stroke-opacity="1.00" stroke-linejoin="round"/>
<path d="M373.24,122.10 C373.24,122.10 373.10,122.10 373.10,122.10 C373.10,122.10 372.22,121.62 372.22,121.62 C372.22,121.62 371.65,120.37 371.65,120.37 C371.65,120.37 372.87,119.83 372.87,119.83 C372.87,119.83 373.58,120.54 373.58,120.54 C373.58,120.54 374.49,121.28 374.49,121.28" fill="none" stroke="rgb(255, 255, 255)" stroke-width="5.81" stroke-opacity="1.00" stroke-linejoin="round"/>
<path d="M381.38,117.01 C381.38,117.01 380.97,117.01 380.97,117.01 C380.97,117.01 380.14,116.35 380.14,116.35 C380.14,116.35 379.31,115.69 379.31,115.69 C379.31,115.69 379.35,114.58 379.35,114.58 C379.35,114.58 380.55,114.62 380.55,114.62 C380.55,114.62 381.66,115.22 381.66,115.22 C381.66,115.22 382.94,116.11 382.94,116.11 C382.94,116.11 382.79,117.48 382.79,117.48" fill="none" stroke="rgb(255, 255, 255)" stroke-width="5.81" stroke-opacity="1.00" stroke-linejoin="round"/>
<path d="M365.59,125.50 C365.59,125.50 365.56,128.16 365.56,128.16 C365.56,128.16 364.94,129.41 364.94,129.41 C364.94,129.41 365.12,130.94 365.12,130.94" fill="none" stroke="rgb(255, 255, 255)" stroke-width="5.81" stroke-opacity="1.00" stroke-linejoin="round"/>
<path d="M365.88,130.69" fill="none" stroke="rgb(255, 255, 255)" stroke-width="5.81" stroke-opacity="1.00" stroke-linejoin="round"/>
</g>
</svg>
