<?xml version="1.0" encoding="UTF-8" standalone="no"?>
<!DOCTYPE svg PUBLIC "-//W3C//DTD SVG 1.1//EN" "http://www.w3.org/Graphics/SVG/1.1/DTD/svg11.dtd">
<svg width="82.29" height="41.14" viewBox="0.00 0.00 400.00 200.00" xmlns="http://www.w3.org/2000/svg" xmlns:xlink="http://www.w3.org/1999/xlink">
<g stroke-linecap="round" id="Layer_17">
<path d="M78.39,114.64 C78.96,112.36 79.52,111.35 81.07,110.22 C84.87,107.37 90.17,104.53 94.17,103.27 C100.37,101.36 117.56,98.60 123.86,98.90 C127.16,99.08 131.27,100.28 133.83,102.06 C135.72,103.45 137.38,105.30 138.10,106.97 C138.53,108.03 138.93,111.48 138.87,112.93 C138.77,114.70 137.94,117.59 137.15,118.75 C135.60,120.88 129.53,123.43 125.89,124.38 C120.41,125.77 104.46,126.80 98.69,126.45 C95.61,126.25 88.28,124.71 86.29,123.77 C84.69,122.99 82.40,121.14 81.17,119.69 C79.88,118.07 78.33,115.60 78.38,114.67 C78.47,113.26 79.93,111.10 81.27,109.87 C81.27,109.87 82.83,108.83 82.83,108.83" fill="none" stroke="rgb(0, 0, 0)" stroke-width="3.00" stroke-opacity="1.00" stroke-linejoin="round"/>
<path d="M171.46,94.45 C173.23,92.69 174.21,91.97 176.03,91.24 C185.07,87.44 197.77,82.82 204.85,81.65 C208.52,81.07 214.26,81.14 216.75,81.66 C220.22,82.43 224.24,84.77 226.43,86.99 C227.27,87.90 228.47,89.91 228.79,91.17 C229.23,93.07 229.03,97.04 228.32,98.72 C227.54,100.49 221.37,104.55 219.03,105.11 C216.84,105.59 199.29,106.44 192.57,105.89 C188.60,105.55 181.90,104.08 177.84,102.48 C174.56,101.16 172.64,99.08 172.12,98.25 C172.12,98.25 171.41,94.73 171.41,94.73" fill="none" stroke="rgb(0, 0, 0)" stroke-width="3.00" stroke-opacity="1.00" stroke-linejoin="round"/>
<path d="M226.25,86.68 C226.25,86.68 225.98,86.91 225.98,86.91 C226.54,83.20 226.53,82.10 225.66,80.75 C224.25,78.72 218.83,76.16 215.53,75.83 C211.84,75.48 202.95,76.63 197.45,78.24 C191.92,79.87 185.75,82.55 181.54,84.59 C181.25,84.73 180.96,84.86 180.69,84.99 C180.69,84.99 180.74,84.93 180.74,84.93" fill="none" stroke="rgb(0, 0, 0)" stroke-width="3.00" stroke-opacity="1.00" stroke-linejoin="round"/>
<path d="M220.19,76.15 C220.19,76.15 220.13,76.14 220.13,76.14 C220.07,76.10 219.03,74.03 218.24,73.30 C216.47,71.73 210.71,69.86 206.85,69.57 C202.06,69.24 192.83,70.74 188.22,72.53 C185.07,73.76 176.91,78.09 175.81,78.52 C174.46,79.05 172.51,79.67 171.71,79.91 C171.56,79.96 171.40,80.03 171.23,80.12" fill="none" stroke="rgb(0, 0, 0)" stroke-width="3.00" stroke-opacity="1.00" stroke-linejoin="round"/>
<path d="M226.47,101.50 C226.47,101.50 226.26,101.45 226.26,101.45 C226.63,103.42 226.40,105.99 225.47,107.56 C224.20,109.65 217.41,111.84 212.05,112.89 C208.79,113.52 203.71,114.37 201.11,114.52 C200.57,114.55 200.02,114.55 199.48,114.53 C199.35,114.52 199.23,114.51 199.13,114.49" fill="none" stroke="rgb(0, 0, 0)" stroke-width="3.00" stroke-opacity="1.00" stroke-linejoin="round"/>
<path d="M213.12,112.87 C213.12,112.87 213.18,112.87 213.18,112.87 C213.58,113.16 212.10,116.32 209.97,118.31 C208.51,119.75 208.70,121.98 209.43,123.83 C209.66,124.46 209.34,125.15 209.07,125.28" fill="none" stroke="rgb(0, 0, 0)" stroke-width="3.00" stroke-opacity="1.00" stroke-linejoin="round"/>
<path d="M209.61,123.97 C209.61,123.97 209.59,124.07 209.59,124.07 C210.32,124.87 211.70,126.77 211.22,128.51 C211.10,128.92 210.47,129.84 210.02,130.16 C209.58,130.45 208.11,130.79 207.72,130.70" fill="none" stroke="rgb(0, 0, 0)" stroke-width="3.00" stroke-opacity="1.00" stroke-linejoin="round"/>
<path d="M209.87,130.05 C209.82,130.05 209.80,130.06 209.67,130.19 C208.26,131.46 203.68,133.99 199.17,135.48 C193.50,137.33 182.03,139.49 175.30,140.03 C163.18,140.88 129.17,141.59 122.07,143.14 C116.08,144.48 106.87,148.61 105.41,150.39 C104.90,151.04 104.20,153.35 104.17,153.40 C104.13,153.47 104.03,153.60 103.88,153.79" fill="none" stroke="rgb(0, 0, 0)" stroke-width="3.00" stroke-opacity="1.00" stroke-linejoin="round"/>
<path d="M104.56,153.30 C104.56,153.30 104.47,153.32 104.47,153.32 C104.06,154.30 105.09,156.02 106.73,156.54 C109.30,157.33 141.70,156.88 155.03,156.51 C162.19,156.22 190.62,155.20 198.29,155.08 C200.60,154.91 202.46,154.53 203.08,154.45 C205.53,154.14 208.66,151.94 209.27,151.24 C210.20,149.99 210.05,144.68 209.22,142.33 C208.64,140.78 206.36,137.03 204.85,135.41 C203.80,134.30 202.95,134.02 202.83,134.03 C202.63,134.05 202.43,134.14 202.31,134.24" fill="none" stroke="rgb(0, 0, 0)" stroke-width="3.00" stroke-opacity="1.00" stroke-linejoin="round"/>
<path d="M192.95,70.01 C192.95,70.01 192.97,70.07 192.97,70.07 C192.97,70.07 192.90,70.10 192.90,70.10 C192.39,69.95 179.81,63.99 177.18,63.28 C174.92,62.68 170.56,62.27 168.27,62.47 C164.41,62.82 158.19,65.36 151.82,68.78 C148.17,70.67 140.64,72.41 134.82,72.64 C130.08,72.81 122.11,71.56 114.82,69.11 C108.56,67.03 97.29,65.54 91.55,66.00 C87.22,66.37 81.19,68.28 78.89,69.67 C76.69,71.01 73.59,74.10 69.70,80.05 C67.51,83.39 59.30,91.75 56.84,95.94 C56.11,97.20 54.46,100.79 53.80,103.16 C53.00,106.11 52.96,111.35 53.41,113.89 C53.66,115.18 55.49,121.75 55.81,123.66 C55.98,124.71 56.00,125.49 55.93,126.07" fill="none" stroke="rgb(0, 0, 0)" stroke-width="3.00" stroke-opacity="1.00" stroke-linejoin="round"/>
<path d="M209.51,123.73 C209.51,123.73 209.58,123.73 209.58,123.73 C209.58,123.72 209.58,123.73 209.57,123.74 C209.26,124.26 207.77,125.33 205.97,126.26 C199.86,129.34 194.72,130.72 183.84,133.02 C178.93,134.01 162.05,135.59 158.41,135.79 C151.71,136.11 139.52,135.50 134.52,135.60 C127.63,135.77 118.05,137.22 113.52,138.94 C108.82,140.75 102.49,144.91 100.05,147.68 C98.75,149.17 97.35,154.09 97.65,155.77 C98.00,157.61 102.46,161.54 105.26,162.35 C106.46,162.69 113.79,163.98 115.84,163.92 C135.06,163.58 152.71,161.69 167.50,162.10 C173.15,162.23 187.59,162.81 191.09,162.68 C194.78,162.52 206.53,160.56 208.20,159.94 C209.71,159.35 211.61,157.76 212.17,157.05 C212.78,156.22 214.88,149.99 214.86,148.38 C214.50,138.33 208.30,132.22 207.97,131.99 C207.97,131.99 207.52,132.51 207.52,132.51" fill="none" stroke="rgb(0, 0, 0)" stroke-width="3.00" stroke-opacity="1.00" stroke-linejoin="round"/>
<path d="M127.46,157.13 C127.44,157.10 123.86,156.38 121.63,160.65 C121.11,161.71 120.40,171.85 120.72,174.54 C121.33,179.48 123.61,184.87 123.54,186.08 C123.43,187.44 121.90,189.81 120.99,190.24 C120.06,190.67 117.55,190.17 116.72,189.26 C115.88,188.32 115.22,183.38 115.10,181.88 C114.99,180.35 114.56,167.55 114.24,166.28 C113.97,165.23 112.90,163.60 112.43,163.47 C112.17,163.40 110.96,164.09 110.43,163.75 C109.88,163.36 108.66,161.25 107.93,159.34 C107.18,157.38 106.66,156.48 106.50,156.43 C106.44,156.42 106.38,156.43 106.33,156.46" fill="none" stroke="rgb(0, 0, 0)" stroke-width="3.00" stroke-opacity="1.00" stroke-linejoin="round"/>
<path d="M114.82,156.07 C114.82,156.07 114.21,156.14 114.21,156.14 C114.21,156.14 121.46,154.55 121.46,154.55 C121.17,154.32 114.14,155.55 112.23,155.17 C111.81,155.09 111.13,154.91 111.16,154.94 C111.19,154.97 111.34,155.09 111.60,155.31" fill="none" stroke="rgb(255, 255, 255)" stroke-width="9.95" stroke-opacity="1.00" stroke-linejoin="round"/>
<path d="M114.38,160.69 C114.38,160.69 113.86,160.69 113.86,160.69 C113.86,160.69 115.91,161.04 116.37,161.40 C116.63,161.62 117.90,164.21 117.84,164.79 C117.83,164.87 117.77,164.91 117.66,164.89" fill="none" stroke="rgb(255, 255, 255)" stroke-width="5.97" stroke-opacity="1.00" stroke-linejoin="round"/>
<path d="M125.53,157.19 C125.57,157.21 125.60,157.23 125.61,157.23 C126.14,157.30 127.29,155.25 126.91,154.29 C126.35,152.99 122.98,151.57 119.97,151.41 C109.94,150.99 106.06,154.56 106.08,155.00 C106.10,155.14 106.05,155.23 105.93,155.32" fill="none" stroke="rgb(0, 0, 0)" stroke-width="3.00" stroke-opacity="1.00" stroke-linejoin="round"/>
<path d="M132.91,156.76 C132.92,156.74 132.94,156.73 132.95,156.73 C132.99,156.71 133.14,156.63 133.24,156.42 C133.96,155.00 135.41,153.47 137.01,152.51 C139.05,151.33 147.70,150.04 157.28,149.71 C169.04,149.40 180.15,148.76 185.41,147.50 C187.42,147.00 191.19,145.50 192.58,144.54 C193.74,143.70 195.16,141.60 195.33,140.62 C195.48,139.66 195.02,138.05 194.56,137.29 C194.52,137.25 194.33,137.45 194.05,137.84 C194.01,137.90 193.98,137.95 193.96,137.98" fill="none" stroke="rgb(0, 0, 0)" stroke-width="3.00" stroke-opacity="1.00" stroke-linejoin="round"/>
<path d="M212.31,130.69 C212.31,130.69 206.45,129.11 206.45,129.11 C206.62,129.08 206.78,129.13 206.94,129.25 C207.10,129.38 207.47,129.76 208.06,130.40" fill="none" stroke="rgb(255, 255, 255)" stroke-width="20.67" stroke-opacity="1.00" stroke-linejoin="round"/>
<path d="M53.30,103.01 C53.30,103.01 53.32,103.08 53.32,103.08 C51.86,104.41 47.84,108.61 47.01,109.99 C45.97,111.78 42.17,127.53 41.80,133.99 C41.52,139.51 42.26,147.74 43.76,151.04 C45.33,154.38 51.34,159.93 55.88,162.61 C58.73,164.27 72.07,169.37 74.25,169.98 C83.16,172.44 108.14,175.90 123.06,176.84 C130.27,177.28 166.99,176.23 179.93,176.24 C185.62,176.25 200.66,175.23 205.36,173.44 C208.08,172.38 211.20,170.37 212.15,169.37 C213.01,168.40 214.03,165.93 214.08,164.29 C214.11,161.27 212.08,158.38 212.12,158.37 C212.15,158.50 212.17,158.59 212.17,158.63 C212.18,158.66 212.18,158.71 212.17,158.76" fill="none" stroke="rgb(0, 0, 0)" stroke-width="3.00" stroke-opacity="1.00" stroke-linejoin="round"/>
<path d="M198.10,175.23 C199.32,176.16 201.76,178.69 203.53,181.12 C206.52,185.26 212.03,195.61 213.87,200.82 C215.56,205.68 215.75,210.35 215.29,211.06 C215.29,211.06 214.88,211.09 214.88,211.09" fill="none" stroke="rgb(0, 0, 0)" stroke-width="3.00" stroke-opacity="1.00" stroke-linejoin="round"/>
<path d="M43.39,150.21 C43.39,150.21 43.44,150.20 43.44,150.20 C43.42,150.21 43.22,150.25 43.07,150.29 C41.59,150.72 36.44,158.28 33.98,164.40 C29.77,175.00 26.68,194.54 26.38,201.58 C26.10,208.58 26.59,213.87 26.72,214.51" fill="none" stroke="rgb(0, 0, 0)" stroke-width="3.00" stroke-opacity="1.00" stroke-linejoin="round"/>
<path d="M78.73,113.53 C78.40,112.10 78.52,109.86 78.94,108.72 C79.92,106.18 83.71,102.89 86.84,101.46 C95.20,97.74 113.81,95.00 119.85,95.04 C123.22,95.08 135.20,97.85 136.58,97.70 C137.92,97.54 139.04,96.07 138.57,95.31 C137.92,94.37 130.84,91.79 126.29,91.55 C125.05,91.48 108.19,91.09 101.64,92.17 C94.63,93.37 85.42,96.74 82.27,98.74 C80.13,100.11 76.04,103.51 75.57,103.88 C75.23,104.13 75.07,104.22 75.03,104.21" fill="none" stroke="rgb(0, 0, 0)" stroke-width="3.00" stroke-opacity="1.00" stroke-linejoin="round"/>
<path d="M116.56,85.94 C115.97,85.52 115.46,85.23 114.90,85.01 C112.20,84.00 101.19,83.09 95.54,83.97 C90.14,84.84 80.28,89.59 75.61,93.06 C73.77,94.44 73.17,95.11 73.10,95.23" fill="none" stroke="rgb(0, 0, 0)" stroke-width="3.00" stroke-opacity="1.00" stroke-linejoin="round"/>
<path d="M86.28,123.03 C86.28,123.06 86.27,123.08 86.27,123.10 C86.26,123.11 86.25,123.13 86.24,123.16 C85.74,122.89 84.30,119.54 84.42,116.68 C84.52,114.89 85.55,111.87 86.50,110.52 C88.06,108.34 93.80,105.66 97.16,105.34 C98.99,105.19 102.62,105.52 104.27,106.04 C107.36,107.04 111.33,110.82 112.55,113.75 C113.21,115.37 113.81,118.59 113.70,119.99 C113.59,121.30 112.63,123.46 111.99,124.16 C111.40,124.78 110.07,125.64 109.34,125.78 C109.17,125.81 108.97,125.84 108.75,125.84 C108.70,125.84 108.68,125.84 108.69,125.83" fill="none" stroke="rgb(0, 0, 0)" stroke-width="3.00" stroke-opacity="1.00" stroke-linejoin="round"/>
<path d="M213.89,105.37 C213.88,105.38 213.86,105.39 213.83,105.39 C213.71,105.37 213.34,105.27 213.14,105.17 C211.34,104.28 209.37,101.40 209.18,99.45 C209.06,97.93 210.10,94.43 211.36,92.88 C213.23,90.62 219.11,88.38 221.75,88.36 C224.32,88.37 228.34,90.16 228.59,90.55 C228.59,90.55 228.12,90.85 228.12,90.85" fill="none" stroke="rgb(0, 0, 0)" stroke-width="3.00" stroke-opacity="1.00" stroke-linejoin="round"/>
<path d="M117.90,176.44" fill="none" stroke="rgb(255, 255, 255)" stroke-width="6.87" stroke-opacity="1.00" stroke-linejoin="round"/>
<path d="M213.55,190.68 C213.55,190.68 213.50,190.45 213.50,190.45 C213.27,190.45 212.64,190.72 212.40,190.83 C211.21,191.35 208.87,191.61 208.13,191.41 C207.37,191.17 206.00,189.74 205.49,188.04 C205.28,187.31 205.04,183.32 204.10,182.33 C203.48,181.70 201.32,179.50 201.29,179.40 C201.61,179.20 204.60,180.24 205.87,181.13 C207.09,182.03 209.08,184.66 209.57,186.38 C209.78,187.12 209.43,188.38 208.99,188.60 C208.46,188.83 206.81,188.15 205.97,187.24 C205.12,186.30 201.31,179.92 201.32,179.91 C201.66,180.08 202.20,180.73 202.71,181.65 C203.14,182.44 203.47,183.31 203.45,183.48" fill="none" stroke="rgb(255, 255, 255)" stroke-width="5.88" stroke-opacity="1.00" stroke-linejoin="round"/>
<path d="M241.69,162.76 C241.69,162.76 241.76,162.80 241.76,162.80 C241.76,162.80 241.77,162.90 241.77,162.90 C241.69,163.03 241.01,163.21 239.52,163.17 C236.59,163.07 232.81,161.94 231.86,161.28 C230.94,160.61 230.01,158.78 230.14,157.73 C230.29,156.60 232.25,153.67 234.12,152.87 C235.89,152.14 240.83,151.72 242.75,151.96 C244.31,152.17 246.64,153.44 247.23,154.48 C247.81,155.56 247.63,158.76 246.87,160.01 C245.33,162.48 241.40,162.77 241.39,162.78 C240.92,162.85 234.92,163.45 232.77,164.87 C231.23,165.91 230.02,168.51 230.01,169.87 C230.02,171.51 232.66,173.83 234.87,174.28 C237.31,174.76 243.95,174.88 245.42,174.38 C246.61,173.94 248.14,172.08 248.28,170.62 C248.39,169.28 247.43,166.17 246.78,165.28 C245.41,163.45 240.82,163.22 240.66,163.27 C240.61,163.29 240.52,163.33 240.38,163.41" fill="none" stroke="rgb(0, 0, 0)" stroke-width="3.00" stroke-opacity="1.00" stroke-linejoin="round"/>
<path d="M241.72,174.93 C246.03,175.39 248.78,176.16 249.84,176.85 C251.17,177.75 251.65,180.26 250.73,181.79 C249.86,183.21 246.65,184.99 244.52,185.40 C242.07,185.85 237.90,185.54 236.41,184.66 C234.89,183.73 234.26,181.98 234.56,181.10 C235.03,179.83 238.52,177.10 240.81,176.25 C243.15,175.41 245.64,175.12 246.03,175.33 C246.03,175.33 246.06,175.42 246.06,175.42 C246.06,175.42 246.02,175.49 246.02,175.49 C246.02,175.49 245.94,175.52 245.94,175.52" fill="none" stroke="rgb(0, 0, 0)" stroke-width="3.00" stroke-opacity="1.00" stroke-linejoin="round"/>
<path d="M227.25,164.96 C227.25,164.96 227.35,165.05 227.35,165.05 C227.04,165.21 225.92,165.71 225.05,166.11 C210.42,172.83 183.39,185.45 170.98,191.33 C155.72,199.11 139.73,208.36 135.46,211.00 C134.16,211.84 131.74,213.41 131.72,213.43 C131.64,213.47 131.58,213.51 131.54,213.52" fill="none" stroke="rgb(0, 0, 0)" stroke-width="3.00" stroke-opacity="1.00" stroke-linejoin="round"/>
<path d="M230.28,185.80 C230.28,185.80 230.37,185.74 230.37,185.74 C230.37,185.73 230.33,185.74 230.25,185.78 C229.37,186.19 193.62,202.00 181.29,207.93 C173.53,211.89 168.94,214.42 168.42,214.77 C168.40,214.79 168.37,214.81 168.35,214.83" fill="none" stroke="rgb(0, 0, 0)" stroke-width="3.00" stroke-opacity="1.00" stroke-linejoin="round"/>
<path d="M319.18,145.19 C319.07,145.30 318.87,145.41 318.67,145.44 C317.93,145.52 312.96,142.80 311.30,140.89 C309.30,138.53 309.09,134.26 309.58,133.23 C309.98,132.44 311.73,131.45 312.96,131.31 C314.33,131.16 317.15,131.77 318.57,132.53 C320.44,133.57 323.10,136.91 323.62,138.73 C324.08,140.54 322.50,143.74 320.61,144.47 C319.86,144.75 318.32,144.90 317.88,144.76 C317.47,144.61 317.09,144.24 317.03,144.05" fill="none" stroke="rgb(0, 0, 0)" stroke-width="3.00" stroke-opacity="1.00" stroke-linejoin="round"/>
<path d="M319.40,132.35 C319.42,132.35 319.44,132.36 319.45,132.36 C319.47,132.38 319.49,132.39 319.50,132.41 C319.69,132.95 315.62,129.82 314.84,128.20 C314.34,127.08 314.50,124.87 315.06,123.87 C315.58,122.98 317.47,121.87 318.90,121.89 C321.28,121.95 325.99,124.57 326.99,126.47 C327.85,128.17 327.98,132.58 327.20,134.04 C326.56,135.17 324.67,135.47 323.89,135.10 C322.97,134.65 321.73,133.62 320.53,132.29 C320.26,131.99 320.12,131.93 320.06,131.92" fill="none" stroke="rgb(0, 0, 0)" stroke-width="3.00" stroke-opacity="1.00" stroke-linejoin="round"/>
<path d="M326.24,124.23 C326.17,124.26 326.04,124.26 325.90,124.21 C325.14,123.91 320.45,119.30 320.07,117.65 C319.71,115.93 320.71,114.39 321.40,114.02 C322.74,113.35 327.88,113.61 329.95,115.04 C331.21,115.92 332.94,118.61 333.36,120.45 C333.84,122.64 332.80,126.22 331.36,126.59 C330.23,126.86 327.55,126.04 326.01,124.65 C325.71,124.38 324.95,123.66 324.89,123.61" fill="none" stroke="rgb(0, 0, 0)" stroke-width="3.00" stroke-opacity="1.00" stroke-linejoin="round"/>
<path d="M312.05,113.18 C312.05,113.18 312.15,113.09 312.15,113.09 C312.15,113.09 310.99,113.68 310.99,113.68" fill="none" stroke="rgb(0, 0, 0)" stroke-width="3.00" stroke-opacity="1.00" stroke-linejoin="round"/>
<path d="M310.99,113.68 L212.31,157.10" fill="none" stroke="rgb(0, 0, 0)" stroke-width="3.00" stroke-opacity="1.00" stroke-linejoin="round"/>
<path d="M212.31,157.10 C212.31,157.10 212.41,156.98 212.41,156.98" fill="none" stroke="rgb(0, 0, 0)" stroke-width="3.00" stroke-opacity="1.00" stroke-linejoin="round"/>
<path d="M266.17,159.76 C266.14,159.75 266.09,159.75 266.02,159.76 C265.81,159.80 265.03,160.02 264.66,160.15 C264.28,160.28 263.90,160.41 263.53,160.55" fill="none" stroke="rgb(0, 0, 0)" stroke-width="3.00" stroke-opacity="1.00" stroke-linejoin="round"/>
<path d="M263.78,159.94 C263.05,160.10 261.92,160.46 260.16,161.09 C254.46,163.18 247.86,165.62 246.96,165.97 C246.89,166.07 246.84,166.13 246.82,166.16 C246.79,166.18 246.76,166.21 246.71,166.24" fill="none" stroke="rgb(0, 0, 0)" stroke-width="3.00" stroke-opacity="1.00" stroke-linejoin="round"/>
<path d="M230.46,149.74 C230.46,149.67 230.45,149.63 230.46,149.61 C230.46,149.55 230.48,149.51 230.50,149.47 C230.54,149.42 230.59,149.36 230.67,149.30 C230.71,149.27 230.80,149.20 230.94,149.11" fill="none" stroke="rgb(255, 255, 255)" stroke-width="5.88" stroke-opacity="1.00" stroke-linejoin="round"/>
<path d="M230.94,149.11 L253.88,139.39" fill="none" stroke="rgb(255, 255, 255)" stroke-width="5.88" stroke-opacity="1.00" stroke-linejoin="round"/>
<path d="M253.86,139.43" fill="none" stroke="rgb(255, 255, 255)" stroke-width="5.88" stroke-opacity="1.00" stroke-linejoin="round"/>
<path d="M279.38,127.32 C279.38,127.32 279.83,126.87 279.83,126.87" fill="none" stroke="rgb(255, 255, 255)" stroke-width="5.88" stroke-opacity="1.00" stroke-linejoin="round"/>
<path d="M279.83,126.87 L289.47,123.04" fill="none" stroke="rgb(255, 255, 255)" stroke-width="5.88" stroke-opacity="1.00" stroke-linejoin="round"/>
<path d="M289.44,123.08" fill="none" stroke="rgb(255, 255, 255)" stroke-width="5.88" stroke-opacity="1.00" stroke-linejoin="round"/>
<path d="M265.73,91.02 C265.73,91.02 265.78,91.01 265.78,91.01 C265.78,91.01 265.78,91.01 265.78,91.01 C265.34,91.21 264.77,91.45 264.36,91.58 C263.35,91.91 261.49,91.63 260.83,90.94 C260.10,90.14 260.95,87.33 262.29,85.89 C264.31,83.75 269.47,80.87 273.13,80.08 C276.53,79.36 279.42,79.76 279.95,80.42 C281.46,82.35 277.88,86.21 276.69,86.77 C276.30,86.96 275.68,87.19 275.56,87.22 C275.55,87.22 275.54,87.22 275.55,87.21" fill="none" stroke="rgb(0, 0, 0)" stroke-width="2.49" stroke-opacity="1.00" stroke-linejoin="round"/>
<path d="M325.74,90.58 C325.74,90.58 325.77,90.61 325.77,90.61 C325.77,90.61 325.77,90.61 325.77,90.61 C325.36,90.34 324.84,89.98 324.50,89.70 C323.64,88.99 322.68,87.15 322.73,86.13 C322.82,84.97 325.27,83.98 327.08,84.29 C329.80,84.76 334.97,87.61 337.80,90.40 C340.40,93.00 341.93,95.85 341.82,96.74 C341.66,97.78 339.56,98.99 338.05,98.75 C337.37,98.63 335.94,98.08 335.46,97.77 C335.09,97.53 334.55,97.13 334.45,97.03 C334.44,97.02 334.44,97.02 334.45,97.02" fill="none" stroke="rgb(0, 0, 0)" stroke-width="2.49" stroke-opacity="1.00" stroke-linejoin="round"/>
<path d="M363.45,144.20 C363.45,144.20 363.45,144.26 363.45,144.26 C363.45,144.26 363.45,144.26 363.45,144.26 C363.37,143.72 363.30,143.03 363.28,142.54 C363.23,141.33 363.88,139.32 364.61,138.73 C365.45,138.08 367.64,139.67 368.57,141.49 C369.94,144.23 371.23,150.65 371.09,154.93 C370.94,158.89 369.96,162.04 369.28,162.49 C367.30,163.74 364.82,158.88 364.62,157.43 C364.55,156.94 364.48,156.20 364.49,156.06 C364.49,156.04 364.49,156.04 364.50,156.05" fill="none" stroke="rgb(0, 0, 0)" stroke-width="2.49" stroke-opacity="1.00" stroke-linejoin="round"/>
<path d="M350.47,211.52 C350.47,211.52 350.44,211.55 350.44,211.55 C350.44,211.55 350.44,211.55 350.44,211.55 C350.75,211.15 351.18,210.65 351.50,210.33 C352.29,209.53 354.06,208.86 354.92,209.15 C355.88,209.50 356.17,212.46 355.51,214.42 C354.50,217.36 350.94,222.53 347.94,225.07 C345.15,227.40 342.40,228.48 341.67,228.16 C339.58,227.17 341.35,221.90 342.20,220.81 C342.49,220.45 342.95,219.93 343.05,219.85 C343.07,219.84 343.07,219.84 343.07,219.84" fill="none" stroke="rgb(0, 0, 0)" stroke-width="2.49" stroke-opacity="1.00" stroke-linejoin="round"/>
<path d="M296.58,241.83 C296.58,241.83 296.53,241.82 296.53,241.82 C296.53,241.82 296.53,241.82 296.53,241.82 C297.01,241.85 297.61,241.93 298.03,242.01 C299.07,242.22 300.63,243.40 300.97,244.35 C301.33,245.43 299.49,247.54 297.75,248.17 C295.11,249.10 289.38,249.11 285.78,248.00 C282.45,246.96 280.00,245.15 279.77,244.30 C279.14,241.80 283.82,240.11 285.10,240.20 C285.53,240.23 286.17,240.32 286.29,240.36 C286.30,240.37 286.31,240.37 286.30,240.37" fill="none" stroke="rgb(0, 0, 0)" stroke-width="2.49" stroke-opacity="1.00" stroke-linejoin="round"/>
<path d="M242.35,212.32 C242.35,212.32 242.33,212.27 242.33,212.27 C242.33,212.27 242.33,212.27 242.33,212.27 C242.60,212.72 242.93,213.30 243.13,213.73 C243.64,214.79 243.81,216.93 243.38,217.83 C242.86,218.83 240.29,218.49 238.77,217.32 C236.50,215.53 232.91,210.39 231.42,206.46 C230.06,202.82 229.76,199.50 230.19,198.75 C230.72,197.89 233.08,197.85 234.34,198.81 C234.91,199.26 235.99,200.47 236.31,200.98 C236.55,201.39 236.89,202.02 236.94,202.15 C236.94,202.17 236.94,202.18 236.94,202.17" fill="none" stroke="rgb(0, 0, 0)" stroke-width="2.49" stroke-opacity="1.00" stroke-linejoin="round"/>
<path d="M228.62,145.20 C228.62,145.20 228.64,145.15 228.64,145.15 C228.64,145.15 228.64,145.15 228.64,145.15 C228.51,145.67 228.31,146.33 228.15,146.78 C227.74,147.90 226.39,149.39 225.51,149.55 C224.51,149.72 223.13,147.20 222.99,145.10 C222.79,141.94 224.05,135.51 225.79,131.73 C227.42,128.24 229.49,125.89 230.27,125.82 C232.53,125.67 232.93,131.29 232.57,132.70 C232.44,133.18 232.22,133.87 232.16,134.00 C232.15,134.01 232.15,134.02 232.15,134.01" fill="none" stroke="rgb(0, 0, 0)" stroke-width="2.49" stroke-opacity="1.00" stroke-linejoin="round"/>
<path d="M262.54,84.91 C262.54,84.91 262.60,84.95 262.60,84.95 C262.67,84.34 262.95,81.99 263.07,80.20 C263.10,79.08 258.48,69.74 258.20,69.11 C257.36,67.21 256.04,63.27 255.76,61.67 C255.42,59.52 255.63,56.31 256.23,54.75 C256.74,53.55 258.48,51.40 259.40,51.00 C260.81,50.48 264.35,50.91 265.79,52.02 C267.19,53.16 269.32,56.70 269.96,58.68 C270.91,61.80 272.77,73.04 272.83,73.25 C272.94,73.59 274.95,76.40 276.25,77.93 C276.78,78.57 277.37,79.40 277.39,79.43" fill="none" stroke="rgb(0, 0, 0)" stroke-width="2.49" stroke-opacity="1.00" stroke-linejoin="round"/>
<path d="M327.90,83.90 C327.90,83.90 327.91,83.98 327.91,83.98 C328.37,83.66 331.15,81.64 331.44,81.44 C332.81,80.43 333.87,78.99 334.59,76.13 C336.30,69.40 337.95,64.12 339.55,62.05 C341.22,60.00 344.35,58.24 346.45,58.30 C348.08,58.40 350.54,59.74 351.42,60.91 C352.34,62.25 353.44,65.24 353.47,66.76 C353.45,69.81 350.21,75.45 346.85,79.24 C343.24,83.33 342.90,83.82 342.25,85.87 C341.88,87.23 341.44,89.74 341.20,91.86 C341.10,92.74 340.90,93.78 340.89,93.82" fill="none" stroke="rgb(0, 0, 0)" stroke-width="2.49" stroke-opacity="1.00" stroke-linejoin="round"/>
<path d="M369.34,141.98 C369.34,141.98 369.30,142.04 369.30,142.04 C369.80,142.26 372.63,143.49 373.22,143.63 C374.51,143.90 376.82,143.54 377.55,143.22 C377.99,143.02 386.47,139.45 388.67,138.97 C390.48,138.62 393.64,139.28 394.74,140.34 C395.64,141.26 397.04,145.09 397.21,146.62 C397.33,148.17 396.64,151.66 395.89,152.67 C394.99,153.80 392.05,155.18 390.26,155.40 C388.01,155.63 379.35,155.18 378.93,155.21 C378.68,155.23 373.81,157.79 372.21,158.89 C371.55,159.35 370.72,159.83 370.69,159.84" fill="none" stroke="rgb(0, 0, 0)" stroke-width="2.49" stroke-opacity="1.00" stroke-linejoin="round"/>
<path d="M355.66,215.43 C355.66,215.43 355.59,215.42 355.59,215.42 C355.76,216.01 356.68,219.32 356.96,219.94 C357.51,221.12 358.72,222.56 361.13,224.25 C366.68,228.18 371.10,231.72 372.33,233.97 C373.53,236.30 373.72,239.63 372.77,241.97 C372.01,243.72 369.95,246.06 368.56,246.79 C366.81,247.61 364.08,247.21 362.18,245.93 C360.32,244.60 357.41,240.33 353.89,234.60 C352.53,232.37 350.62,230.94 349.79,230.43 C348.68,229.76 345.53,228.38 345.06,228.14 C344.78,228.01 344.38,227.79 344.35,227.77" fill="none" stroke="rgb(0, 0, 0)" stroke-width="2.49" stroke-opacity="1.00" stroke-linejoin="round"/>
<path d="M297.15,248.93 C297.15,248.93 297.12,248.86 297.12,248.86 C296.82,249.38 295.14,252.27 294.90,252.91 C294.14,254.90 295.29,271.48 294.31,274.62 C293.49,277.03 291.52,279.16 289.54,279.77 C288.01,280.17 285.32,279.93 283.99,279.26 C282.34,278.35 280.95,275.89 280.63,273.37 C280.37,270.87 281.38,265.44 283.03,258.16 C283.77,255.02 282.75,250.41 282.17,248.38 C281.92,247.54 281.71,246.51 281.70,246.47" fill="none" stroke="rgb(0, 0, 0)" stroke-width="2.49" stroke-opacity="1.00" stroke-linejoin="round"/>
<path d="M237.88,217.26 C237.88,217.26 237.90,217.18 237.90,217.18 C237.78,217.19 234.35,217.54 233.76,217.71 C232.64,218.06 231.12,219.11 229.28,221.35 C224.99,226.53 221.22,230.55 219.08,231.43 C216.87,232.25 213.95,231.80 212.07,230.33 C210.68,229.17 209.02,226.58 208.65,225.00 C208.26,223.04 209.17,220.21 210.73,218.30 C212.33,216.43 216.72,213.75 222.77,210.42 C225.41,208.99 227.89,205.24 228.91,203.45 C229.33,202.71 229.90,201.87 229.92,201.84" fill="none" stroke="rgb(0, 0, 0)" stroke-width="2.49" stroke-opacity="1.00" stroke-linejoin="round"/>
<path d="M222.48,144.26 C222.48,144.26 222.54,144.24 222.54,144.24 C222.47,144.15 222.00,143.64 221.79,143.33 C220.71,141.84 219.78,141.25 218.00,141.04 C217.68,141.01 207.20,140.17 204.56,139.29 C202.85,138.68 199.83,136.64 198.72,135.26 C197.65,133.85 196.23,130.01 196.06,128.25 C195.96,126.61 196.82,123.94 197.79,122.90 C198.82,121.87 201.88,120.42 203.52,120.17 C205.14,119.98 208.75,120.64 210.50,121.46 C212.80,122.56 219.87,127.72 220.96,127.75 C222.07,127.79 224.42,127.80 226.27,127.60 C227.04,127.51 227.97,127.50 228.00,127.50" fill="none" stroke="rgb(0, 0, 0)" stroke-width="2.49" stroke-opacity="1.00" stroke-linejoin="round"/>
<path d="M267.65,107.52 C267.65,107.52 267.42,107.62 267.42,107.62 C267.35,107.85 267.28,108.30 267.29,108.61 C267.30,108.71 267.31,108.84 267.35,109.02" fill="none" stroke="rgb(0, 0, 0)" stroke-width="2.49" stroke-opacity="1.00" stroke-linejoin="round"/>
<path d="M315.71,102.59 C315.71,102.59 315.49,102.45 315.49,102.45 C315.30,102.52 314.95,102.74 314.74,102.95 C314.68,103.01 314.59,103.11 314.49,103.25" fill="none" stroke="rgb(0, 0, 0)" stroke-width="2.49" stroke-opacity="1.00" stroke-linejoin="round"/>
<path d="M349.02,142.69 C349.02,142.69 348.99,142.40 348.99,142.40 C348.81,142.27 348.44,142.10 348.17,142.04 C348.09,142.02 347.98,142.01 347.82,142.00" fill="none" stroke="rgb(0, 0, 0)" stroke-width="2.49" stroke-opacity="1.00" stroke-linejoin="round"/>
<path d="M342.51,197.61 C342.51,197.61 342.68,197.40 342.68,197.40 C342.66,197.17 342.55,196.73 342.43,196.45 C342.39,196.36 342.32,196.25 342.22,196.10" fill="none" stroke="rgb(0, 0, 0)" stroke-width="2.49" stroke-opacity="1.00" stroke-linejoin="round"/>
<path d="M301.08,226.01 C301.08,226.01 301.33,226.03 301.33,226.03 C301.48,225.87 301.71,225.49 301.82,225.20 C301.85,225.12 301.89,224.99 301.92,224.81" fill="none" stroke="rgb(0, 0, 0)" stroke-width="2.49" stroke-opacity="1.00" stroke-linejoin="round"/>
<path d="M255.92,206.49 C255.92,206.49 256.06,206.73 256.06,206.73 C256.27,206.76 256.67,206.74 256.93,206.66 C257.01,206.63 257.12,206.58 257.27,206.51" fill="none" stroke="rgb(0, 0, 0)" stroke-width="2.49" stroke-opacity="1.00" stroke-linejoin="round"/>
<path d="M241.05,153.76 C241.05,153.76 240.97,154.03 240.97,154.03 C241.08,154.24 241.35,154.58 241.57,154.77 C241.63,154.82 241.74,154.89 241.88,154.98" fill="none" stroke="rgb(0, 0, 0)" stroke-width="2.49" stroke-opacity="1.00" stroke-linejoin="round"/>
<path d="M268.05,108.24 C268.03,108.19 268.01,108.15 267.99,108.13 C267.98,108.12 267.94,108.09 267.89,108.07 C268.05,108.45 268.21,108.83 268.37,109.21 C268.46,109.40 268.54,109.60 268.62,109.80" fill="none" stroke="rgb(0, 0, 0)" stroke-width="2.49" stroke-opacity="1.00" stroke-linejoin="round"/>
<path d="M315.46,103.39 C315.49,103.34 315.50,103.30 315.50,103.28 C315.50,103.25 315.50,103.21 315.48,103.14 C315.32,103.52 315.17,103.91 315.01,104.29 C314.93,104.49 314.84,104.68 314.76,104.88" fill="none" stroke="rgb(0, 0, 0)" stroke-width="2.49" stroke-opacity="1.00" stroke-linejoin="round"/>
<path d="M348.32,142.97 C348.37,142.95 348.41,142.94 348.43,142.93 C348.44,142.91 348.47,142.88 348.51,142.83 C348.15,142.92 347.79,143.02 347.43,143.12 C347.27,143.16 347.09,143.21 346.87,143.26" fill="none" stroke="rgb(0, 0, 0)" stroke-width="2.49" stroke-opacity="1.00" stroke-linejoin="round"/>
<path d="M341.88,197.16 C341.93,197.20 341.96,197.22 341.98,197.23 C342.00,197.23 342.04,197.24 342.10,197.24 C341.81,196.97 341.52,196.71 341.23,196.45 C341.08,196.31 340.93,196.18 340.78,196.04" fill="none" stroke="rgb(0, 0, 0)" stroke-width="2.49" stroke-opacity="1.00" stroke-linejoin="round"/>
<path d="M300.99,225.16 C301.00,225.22 301.00,225.26 301.01,225.29 C301.02,225.31 301.04,225.35 301.07,225.40 C301.07,224.98 301.07,224.55 301.07,224.13 C301.07,223.91 301.07,223.69 301.07,223.47" fill="none" stroke="rgb(0, 0, 0)" stroke-width="2.49" stroke-opacity="1.00" stroke-linejoin="round"/>
<path d="M256.45,205.89 C256.45,205.89 255.59,205.76 255.59,205.76 C255.93,205.45 256.10,205.24 256.10,205.14 C256.11,205.03 255.95,204.88 255.63,204.68" fill="none" stroke="rgb(0, 0, 0)" stroke-width="2.49" stroke-opacity="1.00" stroke-linejoin="round"/>
<path d="M241.78,153.85 C241.73,153.84 241.70,153.84 241.68,153.84 C241.65,153.85 241.62,153.86 241.57,153.89 C241.92,153.98 242.28,154.07 242.64,154.17 C242.80,154.21 242.99,154.26 243.20,154.32" fill="none" stroke="rgb(0, 0, 0)" stroke-width="2.49" stroke-opacity="1.00" stroke-linejoin="round"/>
<path d="M269.31,107.53 L284.24,148.99" fill="none" stroke="rgb(0, 0, 0)" stroke-width="2.49" stroke-opacity="1.00" stroke-linejoin="round"/>
<path d="M284.24,148.99 C284.24,148.99 284.36,148.70 284.36,148.70 C284.36,148.70 284.18,149.00 284.18,149.00" fill="none" stroke="rgb(0, 0, 0)" stroke-width="2.49" stroke-opacity="1.00" stroke-linejoin="round"/>
<path d="M316.44,104.48 L297.83,143.35" fill="none" stroke="rgb(0, 0, 0)" stroke-width="2.49" stroke-opacity="1.00" stroke-linejoin="round"/>
<path d="M297.83,143.35 C297.83,143.35 298.10,143.27 298.10,143.27 C298.10,143.27 297.78,143.29 297.78,143.29" fill="none" stroke="rgb(0, 0, 0)" stroke-width="2.49" stroke-opacity="1.00" stroke-linejoin="round"/>
<path d="M348.72,144.59 L310.14,152.03" fill="none" stroke="rgb(0, 0, 0)" stroke-width="2.49" stroke-opacity="1.00" stroke-linejoin="round"/>
<path d="M310.14,152.03 C310.14,152.03 310.37,152.23 310.37,152.23 C310.37,152.23 310.15,151.96 310.15,151.96" fill="none" stroke="rgb(0, 0, 0)" stroke-width="2.49" stroke-opacity="1.00" stroke-linejoin="round"/>
<path d="M341.33,197.48 L311.91,168.51" fill="none" stroke="rgb(0, 0, 0)" stroke-width="2.49" stroke-opacity="1.00" stroke-linejoin="round"/>
<path d="M311.91,168.51 C311.91,168.51 311.91,168.84 311.91,168.84 C311.91,168.84 311.96,168.48 311.96,168.48" fill="none" stroke="rgb(0, 0, 0)" stroke-width="2.49" stroke-opacity="1.00" stroke-linejoin="round"/>
<path d="M299.74,225.58 L301.80,180.38" fill="none" stroke="rgb(0, 0, 0)" stroke-width="2.49" stroke-opacity="1.00" stroke-linejoin="round"/>
<path d="M301.80,180.38 C301.76,180.42 301.71,180.46 301.67,180.50 C301.65,180.52 301.62,180.55 301.58,180.58 C301.58,180.58 301.86,180.40 301.86,180.40" fill="none" stroke="rgb(0, 0, 0)" stroke-width="2.49" stroke-opacity="1.00" stroke-linejoin="round"/>
<path d="M256.26,205.67 L287.42,178.69" fill="none" stroke="rgb(0, 0, 0)" stroke-width="2.49" stroke-opacity="1.00" stroke-linejoin="round"/>
<path d="M287.42,178.69 C287.42,178.69 287.14,178.62 287.14,178.62 C287.14,178.62 287.44,178.76 287.44,178.76" fill="none" stroke="rgb(0, 0, 0)" stroke-width="2.49" stroke-opacity="1.00" stroke-linejoin="round"/>
<path d="M242.05,151.98 L279.61,164.72" fill="none" stroke="rgb(0, 0, 0)" stroke-width="2.49" stroke-opacity="1.00" stroke-linejoin="round"/>
<path d="M279.61,164.72 C279.61,164.72 279.48,164.43 279.48,164.43 C279.48,164.43 279.57,164.78 279.57,164.78" fill="none" stroke="rgb(0, 0, 0)" stroke-width="2.49" stroke-opacity="1.00" stroke-linejoin="round"/>
<path d="M284.18,149.00 L247.01,134.48" fill="none" stroke="rgb(0, 0, 0)" stroke-width="2.49" stroke-opacity="1.00" stroke-linejoin="round"/>
<path d="M247.01,134.48 C247.02,134.47 247.02,134.45 247.02,134.43 C247.02,134.40 247.03,134.35 247.03,134.25 C247.00,134.33 246.99,134.39 246.98,134.42 C246.98,134.46 246.98,134.51 246.99,134.59" fill="none" stroke="rgb(0, 0, 0)" stroke-width="2.49" stroke-opacity="1.00" stroke-linejoin="round"/>
<path d="M297.78,143.29 L284.49,100.86" fill="none" stroke="rgb(0, 0, 0)" stroke-width="2.49" stroke-opacity="1.00" stroke-linejoin="round"/>
<path d="M284.49,100.86 C284.51,100.85 284.52,100.84 284.54,100.83 C284.55,100.82 284.59,100.79 284.66,100.73 C284.59,100.76 284.54,100.78 284.51,100.80 C284.49,100.81 284.45,100.85 284.41,100.90" fill="none" stroke="rgb(0, 0, 0)" stroke-width="2.49" stroke-opacity="1.00" stroke-linejoin="round"/>
<path d="M310.15,151.96 L330.74,113.56" fill="none" stroke="rgb(0, 0, 0)" stroke-width="2.49" stroke-opacity="1.00" stroke-linejoin="round"/>
<path d="M330.74,113.56 C330.75,113.57 330.77,113.58 330.78,113.59 C330.80,113.59 330.85,113.61 330.93,113.64 C330.87,113.59 330.82,113.55 330.79,113.54 C330.77,113.53 330.72,113.52 330.66,113.51" fill="none" stroke="rgb(0, 0, 0)" stroke-width="2.49" stroke-opacity="1.00" stroke-linejoin="round"/>
<path d="M311.96,168.48 L350.93,163.03" fill="none" stroke="rgb(0, 0, 0)" stroke-width="2.49" stroke-opacity="1.00" stroke-linejoin="round"/>
<path d="M350.93,163.03 C350.93,163.05 350.93,163.06 350.94,163.08 C350.95,163.10 350.97,163.16 351.00,163.25 C350.99,163.16 350.98,163.10 350.98,163.07 C350.97,163.03 350.95,162.99 350.91,162.92" fill="none" stroke="rgb(0, 0, 0)" stroke-width="2.49" stroke-opacity="1.00" stroke-linejoin="round"/>
<path d="M301.86,180.40 L330.53,211.68" fill="none" stroke="rgb(0, 0, 0)" stroke-width="2.49" stroke-opacity="1.00" stroke-linejoin="round"/>
<path d="M329.86,212.01 C329.85,212.02 329.84,212.03 329.83,212.05 C329.82,212.07 329.79,212.12 329.75,212.20 C329.81,212.15 329.85,212.10 329.86,212.07 C329.88,212.05 329.90,212.00 329.92,211.93" fill="none" stroke="rgb(0, 0, 0)" stroke-width="2.49" stroke-opacity="1.00" stroke-linejoin="round"/>
<path d="M287.44,178.76 L283.39,223.62" fill="none" stroke="rgb(0, 0, 0)" stroke-width="2.49" stroke-opacity="1.00" stroke-linejoin="round"/>
<path d="M283.39,223.62 C283.38,223.62 283.36,223.62 283.34,223.62 C283.32,223.62 283.27,223.63 283.19,223.65 C283.27,223.66 283.32,223.67 283.35,223.66 C283.38,223.66 283.42,223.65 283.49,223.62" fill="none" stroke="rgb(0, 0, 0)" stroke-width="2.49" stroke-opacity="1.00" stroke-linejoin="round"/>
<path d="M279.57,164.78 L246.52,189.11" fill="none" stroke="rgb(0, 0, 0)" stroke-width="2.49" stroke-opacity="1.00" stroke-linejoin="round"/>
<path d="M246.52,189.11 C246.52,189.10 246.51,189.09 246.49,189.07 C246.48,189.06 246.44,189.02 246.38,188.95 C246.42,189.03 246.45,189.08 246.47,189.10 C246.49,189.13 246.52,189.16 246.58,189.20" fill="none" stroke="rgb(0, 0, 0)" stroke-width="2.49" stroke-opacity="1.00" stroke-linejoin="round"/>
<path d="M288.60,159.34 C288.61,159.33 288.61,159.32 288.61,159.31 C288.61,159.30 288.62,159.29 288.62,159.28 C288.62,159.28 288.61,159.34 288.61,159.34" fill="none" stroke="rgb(0, 0, 0)" stroke-width="2.49" stroke-opacity="1.00" stroke-linejoin="round"/>
<path d="M293.51,153.72 C293.52,153.71 293.53,153.71 293.53,153.71 C293.54,153.70 293.55,153.70 293.57,153.70 C293.57,153.70 293.51,153.73 293.51,153.73" fill="none" stroke="rgb(0, 0, 0)" stroke-width="2.49" stroke-opacity="1.00" stroke-linejoin="round"/>
<path d="M300.39,154.62 C300.40,154.63 300.41,154.63 300.42,154.63 C300.42,154.64 300.43,154.65 300.44,154.66 C300.44,154.66 300.39,154.63 300.39,154.63" fill="none" stroke="rgb(0, 0, 0)" stroke-width="2.49" stroke-opacity="1.00" stroke-linejoin="round"/>
<path d="M304.07,161.37 C304.07,161.38 304.08,161.39 304.08,161.40 C304.08,161.40 304.08,161.42 304.07,161.43 C304.07,161.43 304.06,161.37 304.06,161.37" fill="none" stroke="rgb(0, 0, 0)" stroke-width="2.49" stroke-opacity="1.00" stroke-linejoin="round"/>
<path d="M301.77,168.88 C301.77,168.89 301.76,168.90 301.76,168.90 C301.75,168.91 301.74,168.91 301.73,168.92 C301.73,168.92 301.77,168.87 301.77,168.87" fill="none" stroke="rgb(0, 0, 0)" stroke-width="2.49" stroke-opacity="1.00" stroke-linejoin="round"/>
<path d="M295.23,171.49 C295.22,171.50 295.21,171.50 295.20,171.50 C295.20,171.50 295.19,171.49 295.17,171.49 C295.17,171.49 295.23,171.49 295.23,171.49" fill="none" stroke="rgb(0, 0, 0)" stroke-width="2.49" stroke-opacity="1.00" stroke-linejoin="round"/>
<path d="M289.37,167.25 C289.36,167.24 289.36,167.23 289.35,167.23 C289.35,167.22 289.35,167.21 289.34,167.19 C289.34,167.19 289.38,167.25 289.38,167.25" fill="none" stroke="rgb(0, 0, 0)" stroke-width="2.49" stroke-opacity="1.00" stroke-linejoin="round"/>
<path d="M288.61,159.34 L293.28,153.61" fill="none" stroke="rgb(0, 0, 0)" stroke-width="2.49" stroke-opacity="1.00" stroke-linejoin="round"/>
<path d="M293.28,153.61 C293.27,153.60 293.27,153.59 293.27,153.58 C293.26,153.57 293.26,153.57 293.26,153.55 C293.26,153.55 293.22,153.63 293.22,153.63" fill="none" stroke="rgb(0, 0, 0)" stroke-width="2.49" stroke-opacity="1.00" stroke-linejoin="round"/>
<path d="M293.51,153.73 L300.32,154.35" fill="none" stroke="rgb(0, 0, 0)" stroke-width="2.49" stroke-opacity="1.00" stroke-linejoin="round"/>
<path d="M300.32,154.35 C300.33,154.33 300.33,154.32 300.34,154.32 C300.34,154.31 300.34,154.30 300.35,154.29 C300.35,154.29 300.28,154.31 300.28,154.31" fill="none" stroke="rgb(0, 0, 0)" stroke-width="2.49" stroke-opacity="1.00" stroke-linejoin="round"/>
<path d="M300.39,154.63 L304.21,161.14" fill="none" stroke="rgb(0, 0, 0)" stroke-width="2.49" stroke-opacity="1.00" stroke-linejoin="round"/>
<path d="M304.21,161.14 C304.23,161.13 304.24,161.13 304.24,161.13 C304.25,161.13 304.25,161.12 304.26,161.12 C304.26,161.12 304.21,161.07 304.21,161.07" fill="none" stroke="rgb(0, 0, 0)" stroke-width="2.49" stroke-opacity="1.00" stroke-linejoin="round"/>
<path d="M304.06,161.37 L302.02,168.86" fill="none" stroke="rgb(0, 0, 0)" stroke-width="2.49" stroke-opacity="1.00" stroke-linejoin="round"/>
<path d="M302.02,168.86 C302.03,168.87 302.04,168.88 302.04,168.88 C302.05,168.88 302.05,168.89 302.06,168.90 C302.06,168.90 302.06,168.82 302.06,168.82" fill="none" stroke="rgb(0, 0, 0)" stroke-width="2.49" stroke-opacity="1.00" stroke-linejoin="round"/>
<path d="M301.77,168.87 L295.40,171.71" fill="none" stroke="rgb(0, 0, 0)" stroke-width="2.49" stroke-opacity="1.00" stroke-linejoin="round"/>
<path d="M295.40,171.71 C295.40,171.72 295.40,171.74 295.40,171.74 C295.40,171.75 295.40,171.76 295.39,171.77 C295.39,171.77 295.45,171.72 295.45,171.72" fill="none" stroke="rgb(0, 0, 0)" stroke-width="2.49" stroke-opacity="1.00" stroke-linejoin="round"/>
<path d="M295.23,171.49 L289.33,167.53" fill="none" stroke="rgb(0, 0, 0)" stroke-width="2.49" stroke-opacity="1.00" stroke-linejoin="round"/>
<path d="M289.33,167.53 C289.32,167.54 289.31,167.55 289.31,167.55 C289.30,167.56 289.30,167.56 289.29,167.57 C289.29,167.57 289.36,167.59 289.36,167.59" fill="none" stroke="rgb(0, 0, 0)" stroke-width="2.49" stroke-opacity="1.00" stroke-linejoin="round"/>
<path d="M289.38,167.25 L288.39,159.48" fill="none" stroke="rgb(0, 0, 0)" stroke-width="2.49" stroke-opacity="1.00" stroke-linejoin="round"/>
<path d="M288.39,159.48 C288.37,159.48 288.36,159.47 288.36,159.47 C288.35,159.47 288.35,159.47 288.34,159.46 C288.34,159.46 288.37,159.54 288.37,159.54" fill="none" stroke="rgb(0, 0, 0)" stroke-width="2.49" stroke-opacity="1.00" stroke-linejoin="round"/>
<path d="M286.91,179.27 C286.93,179.24 286.94,179.21 286.95,179.20 C286.96,179.18 286.96,179.15 286.97,179.12 C286.99,179.05 287.14,178.88 287.25,178.75 C287.29,178.69 287.38,178.58 287.49,178.41" fill="none" stroke="rgb(0, 0, 0)" stroke-width="2.49" stroke-opacity="1.00" stroke-linejoin="round"/>
<path d="M278.90,164.63 C278.93,164.62 278.95,164.62 278.96,164.61 C278.98,164.61 279.01,164.60 279.03,164.58 C279.09,164.56 279.35,164.59 279.46,164.60 C279.52,164.61 279.65,164.61 279.84,164.61" fill="none" stroke="rgb(0, 0, 0)" stroke-width="2.49" stroke-opacity="1.00" stroke-linejoin="round"/>
<path d="M283.86,148.29 C283.88,148.32 283.90,148.34 283.91,148.35 C283.93,148.36 283.95,148.38 283.97,148.39 C284.03,148.43 284.14,148.63 284.23,148.78 C284.26,148.85 284.34,148.96 284.46,149.13" fill="none" stroke="rgb(0, 0, 0)" stroke-width="2.49" stroke-opacity="1.00" stroke-linejoin="round"/>
<path d="M298.07,142.57 C298.06,142.61 298.06,142.63 298.06,142.65 C298.06,142.67 298.07,142.70 298.07,142.73 C298.08,142.80 298.01,143.03 297.96,143.20 C297.94,143.28 297.91,143.42 297.87,143.63" fill="none" stroke="rgb(0, 0, 0)" stroke-width="2.49" stroke-opacity="1.00" stroke-linejoin="round"/>
<path d="M310.82,151.76 C310.79,151.78 310.77,151.80 310.77,151.81 C310.75,151.83 310.73,151.85 310.71,151.87 C310.67,151.92 310.42,152.02 310.32,152.07 C310.26,152.09 310.14,152.15 309.97,152.25" fill="none" stroke="rgb(0, 0, 0)" stroke-width="2.49" stroke-opacity="1.00" stroke-linejoin="round"/>
<path d="M312.52,168.95 C312.48,168.94 312.46,168.93 312.45,168.93 C312.43,168.93 312.40,168.92 312.38,168.92 C312.31,168.92 312.09,168.76 312.00,168.69 C311.94,168.66 311.83,168.59 311.66,168.49" fill="none" stroke="rgb(0, 0, 0)" stroke-width="2.49" stroke-opacity="1.00" stroke-linejoin="round"/>
<path d="M301.88,181.19 C301.87,181.16 301.86,181.13 301.85,181.12 C301.84,181.10 301.83,181.08 301.81,181.05 C301.78,180.99 301.75,180.75 301.73,180.57 C301.72,180.49 301.70,180.35 301.66,180.14" fill="none" stroke="rgb(0, 0, 0)" stroke-width="2.49" stroke-opacity="1.00" stroke-linejoin="round"/>
<path d="M287.49,178.41 L292.16,169.40" fill="none" stroke="rgb(0, 0, 0)" stroke-width="2.49" stroke-opacity="1.00" stroke-linejoin="round"/>
<path d="M292.16,169.40 C292.17,169.38 292.17,169.36 292.18,169.36 C292.18,169.35 292.19,169.33 292.19,169.31 C292.19,169.31 292.13,169.37 292.13,169.37" fill="none" stroke="rgb(0, 0, 0)" stroke-width="2.49" stroke-opacity="1.00" stroke-linejoin="round"/>
<path d="M279.84,164.61 L288.88,163.19" fill="none" stroke="rgb(0, 0, 0)" stroke-width="2.49" stroke-opacity="1.00" stroke-linejoin="round"/>
<path d="M288.88,163.19 C288.90,163.18 288.91,163.18 288.92,163.17 C288.93,163.17 288.94,163.17 288.96,163.16 C288.96,163.16 288.88,163.14 288.88,163.14" fill="none" stroke="rgb(0, 0, 0)" stroke-width="2.49" stroke-opacity="1.00" stroke-linejoin="round"/>
<path d="M284.46,149.13 L291.06,156.37" fill="none" stroke="rgb(0, 0, 0)" stroke-width="2.49" stroke-opacity="1.00" stroke-linejoin="round"/>
<path d="M291.06,156.37 C291.08,156.38 291.09,156.39 291.10,156.39 C291.11,156.40 291.12,156.41 291.14,156.43 C291.14,156.43 291.10,156.34 291.10,156.34" fill="none" stroke="rgb(0, 0, 0)" stroke-width="2.49" stroke-opacity="1.00" stroke-linejoin="round"/>
<path d="M297.87,143.63 L297.06,154.08" fill="none" stroke="rgb(0, 0, 0)" stroke-width="2.49" stroke-opacity="1.00" stroke-linejoin="round"/>
<path d="M297.06,154.08 C297.07,154.10 297.07,154.11 297.07,154.12 C297.07,154.13 297.07,154.15 297.07,154.18 C297.07,154.18 297.11,154.09 297.11,154.09" fill="none" stroke="rgb(0, 0, 0)" stroke-width="2.49" stroke-opacity="1.00" stroke-linejoin="round"/>
<path d="M309.97,152.25 L302.36,158.04" fill="none" stroke="rgb(0, 0, 0)" stroke-width="2.49" stroke-opacity="1.00" stroke-linejoin="round"/>
<path d="M302.36,158.04 C302.35,158.05 302.34,158.06 302.34,158.07 C302.33,158.08 302.32,158.09 302.30,158.11 C302.30,158.11 302.39,158.08 302.39,158.08" fill="none" stroke="rgb(0, 0, 0)" stroke-width="2.49" stroke-opacity="1.00" stroke-linejoin="round"/>
<path d="M311.66,168.49 L302.97,165.27" fill="none" stroke="rgb(0, 0, 0)" stroke-width="2.49" stroke-opacity="1.00" stroke-linejoin="round"/>
<path d="M302.97,165.27 C302.96,165.27 302.94,165.27 302.93,165.26 C302.93,165.26 302.91,165.26 302.89,165.26 C302.89,165.26 302.96,165.32 302.96,165.32" fill="none" stroke="rgb(0, 0, 0)" stroke-width="2.49" stroke-opacity="1.00" stroke-linejoin="round"/>
<path d="M301.66,180.14 L298.43,170.33" fill="none" stroke="rgb(0, 0, 0)" stroke-width="2.49" stroke-opacity="1.00" stroke-linejoin="round"/>
<path d="M298.43,170.33 C298.42,170.31 298.42,170.29 298.41,170.29 C298.41,170.28 298.40,170.26 298.39,170.24 C298.39,170.24 298.39,170.34 298.39,170.34" fill="none" stroke="rgb(0, 0, 0)" stroke-width="2.49" stroke-opacity="1.00" stroke-linejoin="round"/>
<path d="M290.96,98.94 C294.06,98.62 301.84,99.03 305.46,99.70 C309.51,100.48 315.46,102.60 319.19,104.59 C322.50,106.39 329.11,111.11 331.51,113.39 C333.90,115.68 339.14,122.28 341.29,125.70 C343.61,129.44 346.30,135.25 347.63,139.20 C348.73,142.55 350.34,149.42 350.88,153.05 C351.78,159.45 350.70,175.04 349.03,181.28 C347.33,187.51 340.46,201.23 336.29,206.19 C333.74,209.17 328.12,214.40 324.99,216.70 C321.95,218.91 315.22,222.21 311.79,223.39 C308.36,224.55 301.16,225.99 297.56,226.05 C293.84,226.08 286.73,225.23 283.10,224.31 C279.59,223.39 272.80,220.26 269.65,218.31 C266.51,216.34 260.53,211.51 257.95,208.63 C255.30,205.63 250.75,199.18 248.79,195.65 C245.60,189.81 241.36,174.75 240.82,168.25 C240.32,161.75 242.07,146.24 244.11,140.19 C245.29,136.77 248.11,130.43 249.79,127.42 C251.80,123.87 255.48,118.82 258.42,115.72 C261.14,112.89 267.46,107.68 270.21,106.01 C276.18,102.43 287.86,99.28 290.96,98.94 Z" fill="none" stroke="rgb(0, 0, 0)" stroke-width="4.29" stroke-opacity="1.00" stroke-linejoin="round"/>
<path d="M289.86,83.69 C293.08,83.36 301.39,83.63 305.29,84.20 C309.09,84.78 316.51,86.78 319.73,88.19 C326.20,91.09 338.27,99.42 342.68,104.20 C347.65,109.65 356.07,122.73 358.56,129.09 C361.33,136.30 364.76,152.09 364.93,159.06 C365.09,166.95 363.00,183.04 360.84,189.56 C358.37,196.91 351.07,210.86 346.91,215.93 C342.17,221.63 330.67,231.41 324.81,234.39 C321.23,236.18 313.85,238.93 310.06,239.88 C305.72,240.94 299.27,241.62 294.84,241.49 C290.97,241.35 283.27,240.20 279.47,239.19 C273.24,237.50 260.37,230.30 254.81,225.68 C249.90,221.57 240.51,209.39 236.91,202.68 C233.75,196.73 229.13,181.35 228.04,173.56 C227.10,166.67 227.96,150.43 229.54,142.76 C230.96,135.98 237.17,121.35 241.18,114.96 C244.76,109.32 255.30,98.60 261.20,94.39 C264.14,92.32 271.12,88.80 274.77,87.44 C278.51,86.05 286.63,84.04 289.86,83.69 Z" fill="none" stroke="rgb(0, 0, 0)" stroke-width="5.33" stroke-opacity="1.00" stroke-linejoin="round"/>
<path d="M126.81,21.81 C126.81,21.78 126.81,21.75 126.82,21.73 C126.82,21.72 126.84,21.69 126.86,21.64 C129.00,29.36 132.67,38.77 137.01,47.68 C138.60,50.93 140.86,53.97 141.47,54.72 C141.61,54.92 141.81,55.26 142.06,55.75 C142.06,55.75 141.90,55.69 141.90,55.69" fill="none" stroke="rgb(255, 255, 255)" stroke-width="3.00" stroke-opacity="1.00" stroke-linejoin="round"/>
<path d="M138.48,24.42 C138.48,24.42 138.73,24.04 138.73,24.04 C139.93,28.41 140.94,31.80 142.57,36.94 C143.74,40.49 146.07,47.52 147.40,50.98 C149.03,55.15 150.97,58.23 153.62,61.26 C155.48,59.48 156.79,57.82 157.75,55.74 C159.50,51.91 160.32,46.91 160.57,43.79 C160.75,40.66 158.95,36.06 155.80,29.91 C155.32,28.97 154.83,28.02 154.34,27.08 C154.22,26.83 154.13,26.66 154.09,26.56" fill="none" stroke="rgb(0, 0, 0)" stroke-width="3.00" stroke-opacity="1.00" stroke-linejoin="round"/>
<path d="M154.61,26.97 C154.61,26.97 154.66,26.92 154.66,26.92 C154.63,26.91 154.70,26.90 154.73,26.91 C157.10,27.84 161.61,31.34 164.70,34.64 C167.35,37.52 171.06,43.03 172.45,46.15 C174.99,52.00 176.52,61.89 176.54,62.06 C176.56,62.28 176.55,62.47 176.51,62.64" fill="none" stroke="rgb(0, 0, 0)" stroke-width="3.00" stroke-opacity="1.00" stroke-linejoin="round"/>
<path d="M138.28,24.00 C138.28,24.00 138.19,24.16 138.19,24.16 C136.07,24.34 134.99,24.46 133.09,24.75 C121.81,26.40 109.09,28.65 102.99,30.31 C96.60,32.05 81.14,37.58 74.73,40.44 C67.81,43.54 53.62,51.98 48.47,55.69 C41.61,60.65 33.91,68.70 29.38,74.98 C28.96,75.56 18.22,91.23 17.99,92.64 C17.78,94.28 21.10,96.86 25.54,99.77 C35.23,105.96 41.84,109.49 46.88,111.25 C46.71,111.36 46.61,111.42 46.58,111.44 C46.54,111.46 46.52,111.46 46.52,111.44" fill="none" stroke="rgb(0, 0, 0)" stroke-width="3.00" stroke-opacity="1.00" stroke-linejoin="round"/>
<path d="M47.93,107.86 C47.93,107.86 47.99,107.84 47.99,107.84 C47.99,107.84 48.05,108.05 48.05,108.05 C48.05,108.05 47.98,108.11 47.98,108.11 C45.39,106.85 38.45,103.42 36.40,102.08 C33.77,100.35 27.87,94.61 27.08,93.55 C26.38,92.52 26.37,90.61 27.13,88.95 C29.36,84.30 38.22,73.14 44.78,67.40 C50.20,62.68 63.05,53.10 69.81,49.14 C76.74,45.12 90.16,38.91 97.40,36.53 C112.80,31.52 132.75,28.81 133.19,28.91 C134.33,29.23 134.87,30.47 135.42,33.47 C136.23,38.30 142.56,52.66 147.21,60.10 C148.31,61.82 150.76,64.25 152.27,64.95 C153.45,65.46 156.21,64.78 157.49,64.01 C159.58,62.64 161.03,59.36 162.71,54.67 C164.66,49.15 165.61,43.98 164.71,40.15 C164.28,38.41 162.68,33.37 162.37,32.39" fill="none" stroke="rgb(0, 0, 0)" stroke-width="3.00" stroke-opacity="1.00" stroke-linejoin="round"/>
<path d="M159.24,52.15 C159.24,52.15 159.28,52.08 159.28,52.08 C158.78,48.59 145.32,39.28 144.22,38.72 C144.03,38.83 143.98,38.87 143.86,38.98 C143.84,38.99 143.82,39.01 143.78,39.04" fill="none" stroke="rgb(0, 0, 0)" stroke-width="3.00" stroke-opacity="1.00" stroke-linejoin="round"/>
<path d="M114.83,27.64 C114.83,27.64 114.90,27.64 114.90,27.64 C114.90,27.64 114.94,27.69 114.94,27.69 C114.89,27.67 112.89,26.80 109.97,26.40 C105.52,25.80 90.49,25.75 84.47,26.54 C77.72,27.46 64.49,31.70 58.11,35.55 C55.35,37.23 49.57,41.80 47.38,44.03 C42.79,48.77 38.17,56.95 37.51,59.93 C37.14,61.65 37.11,63.72 37.13,63.84 C37.01,64.00 36.93,64.10 36.89,64.13 C36.86,64.17 36.81,64.19 36.76,64.20" fill="none" stroke="rgb(0, 0, 0)" stroke-width="3.00" stroke-opacity="1.00" stroke-linejoin="round"/>
<path d="M242.39,169.46 C242.39,169.46 242.05,170.60 242.05,170.60 C242.05,170.60 240.37,171.19 240.37,171.19 C240.37,171.19 240.40,170.14 240.40,170.14 C240.40,170.14 239.60,169.18 239.60,169.18 C239.60,169.18 239.89,167.76 239.89,167.76 C239.89,167.76 240.60,167.05 240.60,167.05 C240.60,167.05 240.57,166.70 240.57,166.70" fill="none" stroke="rgb(255, 255, 255)" stroke-width="5.81" stroke-opacity="1.00" stroke-linejoin="round"/>
<path d="M241.56,157.98 C241.56,157.98 241.42,158.10 241.42,158.10 C241.42,158.10 240.60,158.75 240.60,158.75 C240.60,158.75 239.63,158.47 239.63,158.47 C239.63,158.47 240.60,158.86 240.60,158.86 C240.60,158.86 240.31,157.73 240.31,157.73 C240.31,157.73 241.56,157.61 241.56,157.61 C241.56,157.61 240.48,157.33 240.48,157.33 C240.48,157.33 240.43,156.08 240.43,156.08 C240.43,156.08 241.62,156.02 241.62,156.02 C241.62,156.02 241.16,156.93 241.16,156.93 C241.16,156.93 240.09,156.76 240.09,156.76 C240.09,156.76 239.77,155.43 239.77,155.43 C239.77,155.43 241.51,155.03 241.51,155.03 C241.51,155.03 242.10,157.24 242.10,157.24 C242.10,157.24 241.34,158.07 241.34,158.07 C239.68,157.75 240.12,159.18 240.14,159.18 C240.14,159.18 240.80,158.64 240.80,158.64" fill="none" stroke="rgb(255, 255, 255)" stroke-width="5.81" stroke-opacity="1.00" stroke-linejoin="round"/>
<path d="M244.35,180.68 C244.35,180.68 242.47,181.36 242.47,181.36 C242.47,181.36 241.70,180.03 241.70,180.03 C241.70,180.03 242.81,179.55 242.81,179.55 C242.81,179.55 243.69,180.82 243.69,180.82 C243.69,180.82 243.78,182.27 243.78,182.27" fill="none" stroke="rgb(255, 255, 255)" stroke-width="5.81" stroke-opacity="1.00" stroke-linejoin="round"/>
<path d="M318.49,140.28 C318.49,140.28 316.96,140.97 316.96,140.97 C316.96,140.97 315.85,140.26 315.85,140.26 C315.85,140.26 315.74,139.06 315.74,139.06 C315.74,139.06 316.25,137.76 316.25,137.76 C316.25,137.76 317.30,136.99 317.30,136.99 C317.30,136.99 317.84,138.10 317.84,138.10 C317.42,138.27 316.77,136.18 318.04,136.25 C318.22,136.26 318.24,136.77 318.12,136.70" fill="none" stroke="rgb(255, 255, 255)" stroke-width="5.81" stroke-opacity="1.00" stroke-linejoin="round"/>
<path d="M323.21,129.37 C323.21,129.37 321.82,128.55 321.82,128.55 C321.82,128.55 322.73,129.40 322.73,129.40 C322.73,129.40 321.93,128.27 321.93,128.27 C321.93,128.27 321.93,127.13 321.93,127.13 C321.93,127.13 322.93,127.33 322.93,127.33 C322.93,127.33 323.24,128.72 323.24,128.72 C323.24,128.72 321.96,127.05 321.96,127.05" fill="none" stroke="rgb(255, 255, 255)" stroke-width="5.81" stroke-opacity="1.00" stroke-linejoin="round"/>
<path d="M328.18,120.94 C328.18,120.94 327.39,120.20 327.39,120.20 C327.39,120.20 327.22,118.78 327.22,118.78 C327.22,118.78 328.41,119.35 328.41,119.35 C328.41,119.35 328.64,120.88 328.64,120.88 C327.85,121.27 326.96,120.21 326.73,119.94 C326.71,119.92 326.58,119.66 326.59,119.63 C326.59,119.63 328.01,121.08 328.01,121.08" fill="none" stroke="rgb(255, 255, 255)" stroke-width="5.81" stroke-opacity="1.00" stroke-linejoin="round"/>
</g>
</svg>
