<?xml version="1.0" encoding="UTF-8" standalone="no"?>
<!DOCTYPE svg PUBLIC "-//W3C//DTD SVG 1.1//EN" "http://www.w3.org/Graphics/SVG/1.1/DTD/svg11.dtd">
<svg width="82.29" height="41.14" viewBox="0.00 0.00 400.00 200.00" xmlns="http://www.w3.org/2000/svg" xmlns:xlink="http://www.w3.org/1999/xlink">
<g stroke-linecap="round" id="Layer_12">
<path d="M174.70,119.67 C174.70,119.67 174.62,119.85 174.62,119.85 C174.63,119.85 176.27,118.29 178.56,116.95 C180.65,115.74 189.00,114.94 194.79,114.96 C197.85,114.96 204.72,114.60 206.03,114.27 C207.19,113.94 209.47,112.81 210.08,112.12 C211.17,110.75 211.13,108.17 209.68,107.21 C207.99,106.16 200.50,106.31 199.31,106.42 C199.11,106.44 181.83,108.04 175.82,108.11 C168.47,108.12 158.44,106.64 155.50,105.52 C156.45,106.04 157.02,106.35 157.22,106.45 C157.42,106.55 157.52,106.58 157.52,106.54" fill="none" stroke="rgb(0, 0, 0)" stroke-width="2.51" stroke-opacity="1.00" stroke-linejoin="round"/>
<path d="M88.27,101.67 C88.24,101.64 88.22,101.62 88.19,101.61 C88.16,101.59 88.12,101.57 88.08,101.56 C88.09,101.56 91.84,102.11 93.92,102.06 C96.63,101.97 100.86,100.95 102.80,99.97 C111.35,95.30 118.77,89.84 122.33,88.03 C125.53,86.42 138.67,83.46 142.82,83.72 C145.17,83.89 150.68,85.55 153.14,86.75 C155.58,87.96 157.86,91.88 157.97,93.84 C158.13,97.29 157.03,103.49 155.61,105.39 C154.02,107.47 145.29,112.19 144.67,112.43 C141.86,113.51 137.39,114.55 134.78,114.66 C129.78,114.83 120.46,112.87 113.58,110.84 C104.19,108.16 89.97,101.39 89.10,101.36 C88.88,101.58 88.75,101.72 88.71,101.76 C88.66,101.81 88.65,101.83 88.67,101.82" fill="none" stroke="rgb(0, 0, 0)" stroke-width="2.51" stroke-opacity="1.00" stroke-linejoin="round"/>
<path d="M92.46,102.32 C92.46,102.32 92.54,102.26 92.54,102.26 C92.45,102.27 91.92,102.21 91.47,102.09 C89.74,101.64 86.58,100.11 86.13,99.61 C85.33,98.63 86.91,96.31 89.26,95.30 C90.08,94.95 105.94,90.10 108.85,88.33 C111.98,86.39 117.43,81.52 118.00,81.11 C122.10,78.20 128.85,74.29 133.17,73.17 C136.80,72.27 143.02,73.56 146.12,75.15 C148.79,76.60 149.95,76.93 150.76,76.38 C151.59,75.78 151.94,75.23 152.00,74.87 C152.06,74.37 151.34,72.65 149.27,70.72 C148.73,70.23 145.93,68.65 143.50,67.78 C140.85,66.86 136.81,66.29 134.16,66.44 C132.00,66.59 126.38,68.08 124.02,69.18 C121.92,70.18 113.53,77.69 112.59,78.33 C110.04,80.05 105.47,81.29 103.93,81.45 C103.92,81.45 103.38,81.46 103.29,81.51 C103.18,81.58 103.09,81.68 102.96,81.89" fill="none" stroke="rgb(0, 0, 0)" stroke-width="2.51" stroke-opacity="1.00" stroke-linejoin="round"/>
<path d="M208.49,114.25 C208.49,114.25 208.47,114.17 208.47,114.17 C209.26,115.44 209.63,116.30 209.58,116.73 C209.57,116.75 206.29,120.93 205.86,122.53 C205.59,123.45 206.36,126.57 206.23,126.99 C205.93,127.90 204.33,129.07 202.86,129.63 C199.57,130.78 195.19,131.33 189.76,131.66 C181.55,131.97 162.25,132.58 160.46,132.47 C158.31,132.33 117.20,125.97 115.51,126.00 C112.94,126.06 106.51,127.43 103.03,128.40 C99.76,129.32 93.89,132.01 92.69,133.29 C91.62,134.46 90.20,137.31 90.10,138.58 C90.05,139.61 90.97,141.85 91.74,142.74 C92.70,143.78 95.27,145.31 96.73,145.73 C100.63,146.74 115.91,141.98 122.15,141.19 C125.84,140.75 132.86,140.53 136.06,140.94 C140.10,141.48 160.60,146.16 164.01,146.61 C167.85,147.10 186.91,147.42 193.02,146.60 C195.57,146.24 203.09,144.55 204.96,143.54 C205.54,143.22 207.52,141.57 208.41,140.81 C209.64,139.74 209.81,138.37 208.88,136.91 C207.77,135.16 207.78,135.08 209.24,133.58 C210.34,132.43 209.95,130.65 208.23,129.01 C207.85,128.66 207.07,128.01 205.88,127.06 C205.88,127.06 205.82,127.53 205.82,127.53" fill="none" stroke="rgb(0, 0, 0)" stroke-width="2.51" stroke-opacity="1.00" stroke-linejoin="round"/>
<path d="M209.43,133.21 C208.62,133.98 207.95,134.37 206.10,135.07 C198.35,138.04 184.49,140.78 178.76,140.84 C172.15,140.87 162.54,139.55 149.60,137.47 C136.70,135.43 125.57,134.04 119.98,134.66 C114.84,135.27 103.13,138.28 102.82,138.39 C102.58,138.48 102.42,138.61 102.33,138.79" fill="none" stroke="rgb(0, 0, 0)" stroke-width="2.51" stroke-opacity="1.00" stroke-linejoin="round"/>
<path d="M82.83,139.02 C82.83,139.02 82.96,138.87 82.96,138.87 C82.20,140.47 81.98,141.88 82.31,144.04 C82.65,146.08 83.28,148.63 83.74,149.59 C84.31,150.71 85.70,151.76 87.15,152.25 C89.80,153.07 93.15,153.25 97.23,152.56 C103.29,151.47 107.80,150.40 110.20,149.56 C110.20,149.56 109.74,149.64 109.74,149.64" fill="none" stroke="rgb(0, 0, 0)" stroke-width="2.51" stroke-opacity="1.00" stroke-linejoin="round"/>
<path d="M157.48,91.93 C157.59,91.93 158.19,92.01 158.28,92.02 C160.13,92.16 167.49,90.38 173.08,87.21 C176.22,85.42 187.69,81.32 192.39,80.89 C195.53,80.62 202.82,82.09 205.86,84.02 C207.69,85.22 208.82,86.32 209.32,87.17 C210.44,89.14 211.22,91.31 211.35,93.19 C211.59,97.24 209.79,102.33 208.69,103.99 C208.21,104.72 207.30,105.73 206.99,106.29 C206.99,106.29 207.06,106.36 207.06,106.36 C207.03,106.36 207.01,106.37 207.00,106.37 C206.99,106.37 206.97,106.37 206.95,106.37" fill="none" stroke="rgb(0, 0, 0)" stroke-width="2.51" stroke-opacity="1.00" stroke-linejoin="round"/>
<path d="M171.45,78.47 C171.45,78.47 171.25,78.86 171.25,78.86 C171.62,77.66 175.17,74.59 179.48,72.76 C182.62,71.48 189.56,71.04 194.55,72.03 C197.04,72.55 203.30,76.08 205.62,78.50 C206.71,79.63 208.67,81.70 209.30,82.82 C209.72,83.60 208.08,85.89 208.11,85.93 C208.11,85.93 209.30,85.59 209.30,85.59" fill="none" stroke="rgb(0, 0, 0)" stroke-width="2.51" stroke-opacity="1.00" stroke-linejoin="round"/>
<path d="M198.71,72.99 C198.71,72.99 198.67,73.30 198.67,73.30 C198.66,73.20 197.97,71.46 197.20,70.39 C195.36,67.83 191.07,64.15 188.09,62.86 C184.41,61.31 177.97,60.73 175.05,61.26 C173.89,61.47 171.32,62.35 170.40,62.83 C169.03,63.58 158.51,72.94 157.93,73.25 C157.77,73.34 157.49,73.32 157.44,73.33" fill="none" stroke="rgb(0, 0, 0)" stroke-width="2.51" stroke-opacity="1.00" stroke-linejoin="round"/>
<path d="M96.15,73.76 C96.15,73.76 96.19,73.90 96.19,73.90 C96.31,73.97 96.65,73.82 97.29,73.10 C99.07,71.09 107.15,65.10 113.04,62.31 C117.94,60.01 125.23,58.54 127.79,58.57 C130.50,58.62 134.04,60.45 135.90,61.60 C135.90,61.60 136.07,61.48 136.07,61.48" fill="none" stroke="rgb(0, 0, 0)" stroke-width="2.51" stroke-opacity="1.00" stroke-linejoin="round"/>
<path d="M176.36,61.17 C176.38,61.16 176.39,61.15 176.41,61.14 C176.42,61.13 176.45,61.11 176.51,61.07 C176.51,61.06 176.47,61.03 176.40,60.98 C174.12,59.25 169.62,57.44 166.41,56.86 C161.44,56.03 150.20,57.55 147.43,58.46 C146.10,58.90 142.46,60.56 140.52,61.01 C138.31,61.51 135.68,61.25 135.63,61.25 C135.42,61.26 135.22,61.30 135.01,61.32 C134.94,61.33 134.86,61.33 134.79,61.33" fill="none" stroke="rgb(0, 0, 0)" stroke-width="2.51" stroke-opacity="1.00" stroke-linejoin="round"/>
<path d="M114.20,61.70 C114.20,61.70 114.25,61.79 114.25,61.79 C114.25,61.79 114.21,61.86 114.21,61.86 C114.02,61.97 111.00,61.29 108.65,60.77 C103.34,59.56 98.35,58.59 95.01,58.51 C91.70,58.45 85.07,59.57 82.94,60.16 C78.30,61.49 70.47,66.78 66.40,71.04 C64.18,73.37 55.74,85.32 54.18,89.69 C53.14,92.70 52.44,98.09 52.44,100.68 C52.50,104.87 52.76,109.29 53.10,111.00 C53.92,114.90 57.06,120.00 59.04,121.47 C59.11,121.52 59.41,121.68 59.51,121.75" fill="none" stroke="rgb(0, 0, 0)" stroke-width="2.51" stroke-opacity="1.00" stroke-linejoin="round"/>
<path d="M136.88,99.79 C136.88,99.79 136.38,99.78 136.38,99.78" fill="none" stroke="rgb(0, 0, 0)" stroke-width="10.00" stroke-opacity="1.00" stroke-linejoin="round"/>
<path d="M193.62,97.66" fill="none" stroke="rgb(0, 0, 0)" stroke-width="10.00" stroke-opacity="1.00" stroke-linejoin="round"/>
<path d="M135.70,98.79 C135.63,98.85 135.59,98.90 135.57,98.92 C135.56,98.94 135.55,98.97 135.55,99.02" fill="none" stroke="rgb(255, 255, 255)" stroke-width="4.00" stroke-opacity="1.00" stroke-linejoin="round"/>
<path d="M136.66,101.36 C136.66,101.36 136.52,101.44 136.52,101.44" fill="none" stroke="rgb(255, 255, 255)" stroke-width="4.00" stroke-opacity="1.00" stroke-linejoin="round"/>
<path d="M192.24,96.58 C192.24,96.58 192.30,96.74 192.30,96.74" fill="none" stroke="rgb(255, 255, 255)" stroke-width="4.00" stroke-opacity="1.00" stroke-linejoin="round"/>
<path d="M193.57,99.18 C193.57,99.18 193.66,99.13 193.66,99.13" fill="none" stroke="rgb(255, 255, 255)" stroke-width="4.00" stroke-opacity="1.00" stroke-linejoin="round"/>
<path d="M190.98,178.28 C190.98,178.28 190.70,178.45 190.70,178.45 C192.14,177.34 194.91,177.20 196.10,177.98 C196.62,178.33 197.46,179.29 197.65,179.85 C197.94,180.68 198.57,184.18 198.80,184.74 C199.39,186.08 202.47,186.61 204.68,186.09 C205.72,185.83 207.15,184.96 207.63,184.30 C208.73,182.74 208.13,177.91 206.70,175.11 C205.53,172.84 201.75,169.05 199.96,168.35 C198.53,167.83 195.87,167.58 194.01,167.91 C192.79,168.13 189.76,169.26 188.35,170.07 C187.35,170.66 186.30,171.74 186.10,172.12 C186.04,172.24 185.99,172.65 185.97,172.69" fill="none" stroke="rgb(0, 0, 0)" stroke-width="3.00" stroke-opacity="1.00" stroke-linejoin="round"/>
<path d="M208.56,181.47 C208.56,181.47 208.54,181.53 208.54,181.53 C208.78,182.08 212.60,183.05 214.51,182.24 C216.16,181.51 218.55,177.70 218.66,175.25 C218.73,172.88 216.21,168.53 214.19,167.24 C212.24,166.02 207.05,164.69 204.90,165.27 C203.71,165.60 201.49,166.83 200.81,167.35 C200.63,167.49 200.31,167.74 199.85,168.12 C199.76,168.19 199.70,168.24 199.68,168.26" fill="none" stroke="rgb(0, 0, 0)" stroke-width="3.00" stroke-opacity="1.00" stroke-linejoin="round"/>
<path d="M218.97,176.83 C218.92,176.86 218.89,176.87 218.88,176.88 C218.68,177.06 220.21,178.31 221.96,178.65 C223.98,179.02 225.95,177.71 226.46,176.72 C227.21,175.16 227.47,169.75 226.23,167.69 C224.73,165.27 220.23,163.20 218.55,163.07 C216.97,162.96 213.52,164.06 212.37,165.25 C212.21,165.41 211.80,165.87 211.80,165.88 C211.79,165.89 211.76,165.90 211.73,165.91" fill="none" stroke="rgb(0, 0, 0)" stroke-width="3.00" stroke-opacity="1.00" stroke-linejoin="round"/>
<path d="M224.33,187.81 C224.33,187.81 224.40,187.69 224.40,187.69 C224.40,187.69 224.48,187.65 224.48,187.65 C225.00,187.83 224.67,190.31 223.00,193.35 C221.96,195.21 218.88,197.29 214.68,198.03 C214.01,198.14 204.82,199.52 202.82,199.88 C201.78,200.07 201.25,200.18 200.83,200.28" fill="none" stroke="rgb(0, 0, 0)" stroke-width="3.00" stroke-opacity="1.00" stroke-linejoin="round"/>
<path d="M190.89,169.31 C190.89,169.31 190.94,169.40 190.94,169.40 C190.90,169.41 190.86,169.42 190.82,169.43 C189.50,169.93 186.88,171.74 186.23,172.15 C183.97,173.75 178.42,183.79 177.62,184.82 C176.61,186.09 173.90,187.65 170.67,188.90 C146.43,197.96 129.26,204.95 116.27,210.49 C114.92,211.10 112.54,212.16 111.52,212.61 C110.80,212.93 110.07,213.25 109.34,213.57" fill="none" stroke="rgb(0, 0, 0)" stroke-width="3.00" stroke-opacity="1.00" stroke-linejoin="round"/>
<path d="M306.58,43.57 C308.46,43.92 309.71,44.56 310.58,45.87 C311.47,47.23 311.96,49.13 311.83,50.64 C311.68,52.06 310.92,53.19 309.55,54.38 C310.45,54.84 311.30,55.94 311.69,57.56 C312.13,59.50 311.55,62.00 310.22,64.03 C309.93,64.46 309.34,65.24 308.45,66.38 C309.79,67.26 311.55,68.81 311.89,69.84 C312.25,70.99 311.39,74.57 310.56,75.93 C309.89,76.97 307.59,79.03 306.94,79.25 C306.70,79.33 306.29,79.33 305.73,79.25" fill="none" stroke="rgb(0, 0, 0)" stroke-width="3.00" stroke-opacity="1.00" stroke-linejoin="round"/>
<path d="M308.92,66.59 C308.92,66.59 309.04,66.57 309.04,66.57 C308.51,66.46 307.26,66.48 304.95,66.70 C300.64,67.12 296.31,68.54 294.54,70.11 C293.52,71.06 292.62,72.75 292.50,73.96 C292.44,75.00 293.04,77.05 293.73,77.59 C295.43,78.83 304.90,79.83 306.12,79.81 C306.37,79.80 306.60,79.74 306.80,79.62 C306.80,79.62 306.82,79.57 306.82,79.57 C306.82,79.57 306.65,79.50 306.65,79.50" fill="none" stroke="rgb(0, 0, 0)" stroke-width="3.00" stroke-opacity="1.00" stroke-linejoin="round"/>
<path d="M309.69,54.26 C309.69,54.26 309.69,54.37 309.69,54.37 C309.44,54.38 308.07,54.51 307.00,54.62 C302.59,55.08 297.96,55.88 296.48,57.09 C295.84,57.66 293.19,60.80 293.16,61.62 C293.14,63.42 295.44,65.98 297.19,66.48 C297.57,66.58 297.91,66.55 298.24,66.41 C298.30,66.37 298.31,66.34 298.26,66.34" fill="none" stroke="rgb(0, 0, 0)" stroke-width="3.00" stroke-opacity="1.00" stroke-linejoin="round"/>
<path d="M308.57,44.36 C308.57,44.36 308.78,44.33 308.78,44.33 C306.17,43.75 304.21,43.57 302.49,43.96 C299.32,44.73 293.84,49.05 293.58,49.95 C293.26,51.20 293.54,52.31 294.42,53.29 C294.86,53.75 295.88,54.23 297.46,54.73 C297.93,54.86 298.35,54.97 298.73,55.05 C298.87,55.06 298.97,55.07 299.03,55.08" fill="none" stroke="rgb(0, 0, 0)" stroke-width="3.00" stroke-opacity="1.00" stroke-linejoin="round"/>
<path d="M290.13,49.95 C290.16,49.96 290.15,49.96 290.11,49.96 C289.74,49.99 289.44,50.03 289.20,50.11 C286.15,51.09 281.87,53.94 281.14,55.67 C280.44,57.48 280.32,59.74 280.77,62.31 C281.08,64.04 281.68,68.55 281.62,69.54 C281.60,69.97 281.43,70.42 281.13,70.90" fill="none" stroke="rgb(0, 0, 0)" stroke-width="3.00" stroke-opacity="1.00" stroke-linejoin="round"/>
<path d="M280.04,66.44 C280.04,66.44 280.22,66.43 280.22,66.43 C280.22,66.43 280.27,66.46 280.27,66.46 C278.85,69.09 276.64,73.68 274.31,78.72 C267.99,92.53 257.23,116.97 252.79,127.59 C251.60,130.18 249.51,133.55 248.10,134.86 C243.35,139.17 214.80,152.70 210.95,154.65 C210.89,154.68 210.71,154.73 210.75,154.68 C210.78,154.65 210.89,154.57 211.07,154.45 C211.07,154.45 210.73,154.59 210.73,154.59" fill="none" stroke="rgb(0, 0, 0)" stroke-width="3.00" stroke-opacity="1.00" stroke-linejoin="round"/>
<path d="M293.70,80.46 C293.70,80.46 293.80,80.47 293.80,80.47 C293.87,80.40 293.88,80.45 293.83,80.63 C292.62,84.58 286.14,101.61 282.03,110.72 C277.26,121.10 268.45,135.71 263.43,144.64 C261.95,147.23 260.53,149.03 257.43,151.02 C250.00,155.73 232.88,163.40 226.33,166.26 C225.18,166.46 224.58,166.57 224.53,166.57 C224.10,166.61 225.36,166.39 225.78,166.31" fill="none" stroke="rgb(0, 0, 0)" stroke-width="3.00" stroke-opacity="1.00" stroke-linejoin="round"/>
<path d="M269.32,134.37" fill="none" stroke="rgb(255, 255, 255)" stroke-width="18.39" stroke-opacity="1.00" stroke-linejoin="round"/>
<path d="M255.14,121.16" fill="none" stroke="rgb(255, 255, 255)" stroke-width="18.39" stroke-opacity="1.00" stroke-linejoin="round"/>
<path d="M252.08,93.58" fill="none" stroke="rgb(255, 255, 255)" stroke-width="40.49" stroke-opacity="1.00" stroke-linejoin="round"/>
<path d="M234.23,162.40" fill="none" stroke="rgb(255, 255, 255)" stroke-width="14.68" stroke-opacity="1.00" stroke-linejoin="round"/>
<path d="M234.00,138.29" fill="none" stroke="rgb(255, 255, 255)" stroke-width="20.38" stroke-opacity="1.00" stroke-linejoin="round"/>
<path d="M232.35,146.16" fill="none" stroke="rgb(255, 255, 255)" stroke-width="8.36" stroke-opacity="1.00" stroke-linejoin="round"/>
<path d="M261.70,147.21 C261.70,147.21 261.72,147.13 261.72,147.13 C261.45,146.95 261.32,146.88 261.29,146.86 C261.27,146.85 261.21,146.82 261.11,146.76" fill="none" stroke="rgb(0, 0, 0)" stroke-width="3.00" stroke-opacity="1.00" stroke-linejoin="round"/>
<path d="M261.11,146.76 L248.69,134.64" fill="none" stroke="rgb(0, 0, 0)" stroke-width="3.00" stroke-opacity="1.00" stroke-linejoin="round"/>
<path d="M248.69,134.64 C248.69,134.64 248.77,134.51 248.77,134.51 C248.77,134.51 248.55,134.59 248.55,134.59" fill="none" stroke="rgb(0, 0, 0)" stroke-width="3.00" stroke-opacity="1.00" stroke-linejoin="round"/>
<path d="M207.44,142.43 C207.54,142.49 207.62,142.55 207.67,142.60 C208.80,143.73 210.58,151.33 210.40,155.92 C210.34,157.33 209.97,160.12 209.36,162.56 C209.03,163.84 208.90,164.01 208.81,164.09 C208.81,164.09 208.73,164.10 208.73,164.10 C208.73,164.10 208.70,164.04 208.70,164.04" fill="none" stroke="rgb(0, 0, 0)" stroke-width="3.00" stroke-opacity="1.00" stroke-linejoin="round"/>
<path d="M52.09,103.12 C51.99,103.10 51.87,103.10 51.73,103.13 C49.63,103.65 46.89,107.22 45.09,111.79 C43.62,115.66 42.13,122.64 41.91,126.72 C41.59,133.59 42.12,142.91 43.76,146.88 C45.71,151.52 51.14,160.39 54.33,163.28 C58.13,166.66 68.65,171.25 76.10,173.33 C83.18,175.21 110.78,179.03 122.69,179.11 C162.81,179.33 181.67,178.51 181.57,178.30 C181.21,178.05 180.97,177.92 180.43,177.64 C180.37,177.61 180.34,177.59 180.34,177.59" fill="none" stroke="rgb(0, 0, 0)" stroke-width="3.00" stroke-opacity="1.00" stroke-linejoin="round"/>
<path d="M44.84,149.54 C44.87,149.49 44.89,149.46 44.90,149.44 C44.91,149.42 44.91,149.37 44.91,149.31 C44.30,149.54 41.97,151.47 40.40,153.48 C37.36,157.42 31.83,169.05 30.22,174.55 C26.71,186.59 25.86,202.32 26.13,206.49 C26.25,208.30 26.51,209.48 26.54,209.59" fill="none" stroke="rgb(0, 0, 0)" stroke-width="3.00" stroke-opacity="1.00" stroke-linejoin="round"/>
<path d="M216.06,197.90 C216.06,197.90 216.04,197.76 216.04,197.76 C216.43,198.37 216.82,199.39 217.10,200.68 C217.60,203.03 217.92,207.82 217.98,209.81" fill="none" stroke="rgb(0, 0, 0)" stroke-width="3.00" stroke-opacity="1.00" stroke-linejoin="round"/>
<path d="M41.87,123.78 C41.87,123.78 41.81,123.82 41.81,123.82 C41.43,123.95 41.10,124.05 40.81,124.12 C36.68,125.05 29.44,125.90 25.89,124.94 C23.60,124.28 17.65,121.50 13.95,119.43 C9.94,117.29 6.94,114.96 5.40,112.25 C4.25,110.09 3.38,108.03 3.17,106.60 C2.76,103.57 4.37,96.65 5.76,92.96 C8.82,84.91 14.88,71.65 18.24,66.22 C23.06,58.54 30.38,49.71 35.29,44.99 C42.59,38.03 83.82,6.86 84.35,6.80 C85.70,6.69 92.78,10.16 97.82,12.19 C102.35,13.98 111.29,16.25 112.81,15.68 C114.07,15.15 114.17,12.82 113.01,11.63 C111.84,10.49 93.64,2.86 92.92,2.54 C92.92,2.54 92.84,2.61 92.84,2.61 C92.84,2.61 92.84,2.67 92.84,2.67" fill="none" stroke="rgb(0, 0, 0)" stroke-width="3.00" stroke-opacity="1.00" stroke-linejoin="round"/>
<path d="M93.84,3.24 C93.86,3.23 93.88,3.21 93.89,3.21 C93.91,3.20 93.93,3.19 93.97,3.17 C93.97,3.17 95.34,10.58 95.34,10.58 C95.34,10.58 94.77,10.42 94.77,10.42" fill="none" stroke="rgb(0, 0, 0)" stroke-width="3.00" stroke-opacity="1.00" stroke-linejoin="round"/>
<path d="M112.15,11.05 C114.05,12.04 117.73,14.68 122.14,18.39 C125.41,21.17 128.73,25.03 130.57,28.74 C131.23,30.10 134.78,38.64 135.65,41.81 C137.32,48.12 136.71,59.65 136.64,60.93 C136.64,60.93 137.46,61.28 137.46,61.28 C137.46,61.28 137.66,61.52 137.66,61.52" fill="none" stroke="rgb(0, 0, 0)" stroke-width="3.00" stroke-opacity="1.00" stroke-linejoin="round"/>
<path d="M33.97,125.31 C33.97,125.31 34.04,125.34 34.04,125.34 C34.11,124.27 34.25,123.07 34.50,121.60 C35.25,117.38 39.88,103.62 44.15,95.73 C46.79,90.95 56.57,75.05 60.55,69.47 C65.27,62.89 73.57,53.29 80.90,45.71 C87.26,39.41 98.06,30.58 102.58,28.13 C105.71,26.46 114.39,23.53 114.60,23.50 C116.96,23.18 118.80,23.82 120.62,25.72 C124.74,29.84 128.13,34.21 129.65,37.05 C132.19,41.89 135.93,54.93 136.88,58.30 C136.88,58.30 136.00,58.48 136.00,58.48" fill="none" stroke="rgb(0, 0, 0)" stroke-width="3.00" stroke-opacity="1.00" stroke-linejoin="round"/>
<path d="M75.83,12.62 C75.87,12.63 75.99,12.69 75.95,12.68 C72.87,12.34 66.11,11.70 62.44,11.89 C58.67,12.12 52.25,13.26 49.01,14.40 C46.49,15.29 39.36,18.64 36.74,20.30 C33.89,22.14 29.12,26.47 26.18,29.89 C23.69,32.81 19.28,39.37 18.03,41.71 C16.49,44.65 14.33,51.26 13.85,54.51 C13.13,59.62 14.37,71.25 14.77,71.80 C14.67,71.81 14.61,71.81 14.59,71.82 C14.56,71.82 14.53,71.82 14.50,71.81" fill="none" stroke="rgb(0, 0, 0)" stroke-width="3.00" stroke-opacity="1.00" stroke-linejoin="round"/>
<path d="M10.29,116.87 C10.29,116.87 10.28,116.93 10.28,116.93 C8.11,112.10 7.26,108.33 7.83,104.34 C8.46,100.39 9.99,93.91 11.45,90.39 C14.23,83.83 23.34,70.30 29.48,62.52 C34.41,56.46 46.58,41.75 49.97,38.42 C53.17,35.30 81.98,13.55 84.32,12.80 C85.80,12.38 88.65,12.47 89.89,13.09 C90.86,13.58 94.44,16.04 96.58,16.99 C101.18,19.02 114.34,20.23 116.11,19.50 C118.35,18.55 119.59,17.25 119.11,16.67 C119.11,16.67 118.53,16.81 118.53,16.81" fill="none" stroke="rgb(8, 12, 6)" stroke-width="3.00" stroke-opacity="1.00" stroke-linejoin="round"/>
<path d="M76.68,86.34 C76.74,86.26 76.78,86.22 76.81,86.19 C76.83,86.17 76.87,86.15 76.92,86.12 C77.87,86.34 75.66,93.79 72.96,97.98 C71.29,100.54 70.46,102.30 70.24,103.33 C69.78,105.65 71.45,108.04 72.29,108.07 C73.18,108.08 75.03,107.33 75.68,106.66 C75.76,106.58 75.83,106.47 75.89,106.35 C75.89,106.35 75.73,106.28 75.73,106.28" fill="none" stroke="rgb(255, 255, 255)" stroke-width="3.00" stroke-opacity="1.00" stroke-linejoin="round"/>
<path d="M85.48,112.72 C85.52,112.77 85.56,112.83 85.58,112.90 C85.90,113.86 85.94,116.52 85.40,117.85 C84.77,119.34 81.98,122.85 81.71,123.26 C81.19,124.09 80.94,125.52 81.36,126.28 C81.78,126.98 83.08,127.61 83.86,127.61 C84.36,127.60 84.73,127.39 84.73,127.34 C84.73,127.34 84.67,127.37 84.67,127.37" fill="none" stroke="rgb(255, 255, 255)" stroke-width="3.00" stroke-opacity="1.00" stroke-linejoin="round"/>
<path d="M152.61,61.80 C152.37,62.08 152.08,63.55 152.22,64.20 C152.55,65.48 155.20,67.37 156.53,66.98 C157.99,66.53 159.46,64.36 159.56,63.47 C159.56,63.47 158.48,63.28 158.48,63.28" fill="none" stroke="rgb(255, 255, 255)" stroke-width="3.00" stroke-opacity="1.00" stroke-linejoin="round"/>
<path d="M89.97,68.37 C89.97,68.37 90.05,68.24 90.05,68.24 C89.66,70.74 87.96,73.54 86.42,73.94 C85.49,74.17 83.90,73.81 83.31,73.25 C82.07,72.05 82.71,68.70 82.74,68.39 C82.74,68.39 82.67,68.26 82.67,68.26 C82.67,68.26 82.50,68.33 82.50,68.33" fill="none" stroke="rgb(255, 255, 255)" stroke-width="3.00" stroke-opacity="1.00" stroke-linejoin="round"/>
<path d="M64.09,93.14 C64.09,93.14 64.16,93.10 64.16,93.10 C64.16,93.10 64.25,93.16 64.25,93.16 C64.38,93.48 64.32,94.45 63.75,95.89 C63.22,97.21 61.78,98.81 61.12,99.09 C59.62,99.68 57.20,98.41 57.01,96.72 C56.97,96.29 57.01,95.28 57.11,94.42 C57.20,93.63 57.31,92.70 57.30,92.59 C57.29,92.58 57.30,92.55 57.30,92.49" fill="none" stroke="rgb(255, 255, 255)" stroke-width="3.00" stroke-opacity="1.00" stroke-linejoin="round"/>
<path d="M290.70,80.37 C290.70,80.37 290.75,80.38 290.75,80.38 C290.75,80.38 290.75,80.38 290.75,80.38 C290.27,80.40 289.66,80.39 289.24,80.35 C288.18,80.25 286.52,79.25 286.12,78.34 C285.68,77.30 287.37,75.01 289.09,74.20 C291.67,73.00 297.44,72.37 301.13,73.09 C304.55,73.78 307.14,75.32 307.44,76.14 C308.24,78.55 303.65,80.74 302.36,80.78 C301.93,80.80 301.28,80.77 301.16,80.75 C301.14,80.74 301.14,80.74 301.14,80.74" fill="none" stroke="rgb(0, 0, 0)" stroke-width="2.50" stroke-opacity="1.00" stroke-linejoin="round"/>
<path d="M347.31,103.95 C347.31,103.95 347.34,104.00 347.34,104.00 C347.34,104.00 347.34,104.00 347.34,104.00 C347.03,103.59 346.66,103.04 346.43,102.64 C345.85,101.63 345.52,99.52 345.90,98.59 C346.34,97.54 348.96,97.60 350.57,98.61 C352.98,100.14 356.95,104.87 358.72,108.61 C360.34,112.09 360.88,115.36 360.50,116.15 C360.02,117.06 357.66,117.35 356.32,116.52 C355.71,116.14 354.54,115.06 354.19,114.58 C353.91,114.20 353.53,113.61 353.47,113.48 C353.46,113.46 353.46,113.46 353.47,113.46" fill="none" stroke="rgb(0, 0, 0)" stroke-width="2.50" stroke-opacity="1.00" stroke-linejoin="round"/>
<path d="M365.84,169.20 C365.84,169.20 365.82,169.26 365.82,169.26 C365.82,169.26 365.82,169.26 365.82,169.26 C365.92,168.72 366.07,168.04 366.20,167.58 C366.53,166.43 367.78,164.81 368.66,164.55 C369.65,164.28 371.22,166.64 371.51,168.71 C371.93,171.82 371.12,178.35 369.63,182.29 C368.24,185.94 366.32,188.49 365.54,188.64 C363.28,189.03 362.49,183.48 362.75,182.04 C362.84,181.56 363.01,180.84 363.06,180.71 C363.07,180.70 363.07,180.69 363.07,180.70" fill="none" stroke="rgb(0, 0, 0)" stroke-width="2.50" stroke-opacity="1.00" stroke-linejoin="round"/>
<path d="M332.33,226.99 C332.33,226.99 332.28,227.01 332.28,227.01 C332.28,227.01 332.28,227.01 332.28,227.01 C332.71,226.76 333.26,226.46 333.66,226.29 C334.66,225.85 336.54,225.94 337.26,226.55 C338.06,227.26 337.39,230.15 336.15,231.72 C334.27,234.07 329.28,237.48 325.65,238.65 C322.29,239.72 319.36,239.63 318.77,239.04 C317.12,237.27 320.45,233.06 321.60,232.38 C321.99,232.15 322.59,231.85 322.71,231.81 C322.72,231.81 322.73,231.81 322.72,231.82" fill="none" stroke="rgb(0, 0, 0)" stroke-width="2.50" stroke-opacity="1.00" stroke-linejoin="round"/>
<path d="M272.02,233.80 C272.02,233.80 271.97,233.77 271.97,233.77 C271.97,233.77 271.97,233.77 271.97,233.77 C272.41,233.99 272.96,234.30 273.32,234.54 C274.23,235.16 275.33,236.88 275.35,237.90 C275.34,239.07 272.95,240.30 271.11,240.19 C268.34,240.01 262.93,237.73 259.90,235.25 C257.10,232.94 255.36,230.28 255.41,229.38 C255.49,228.33 257.52,226.90 259.05,226.98 C259.75,227.03 261.22,227.42 261.73,227.68 C262.12,227.88 262.69,228.22 262.79,228.31 C262.81,228.32 262.81,228.32 262.80,228.32" fill="none" stroke="rgb(0, 0, 0)" stroke-width="2.50" stroke-opacity="1.00" stroke-linejoin="round"/>
<path d="M230.32,184.50 C230.32,184.50 230.32,184.45 230.32,184.45 C230.32,184.45 230.31,184.45 230.31,184.45 C230.43,184.97 230.55,185.66 230.61,186.13 C230.75,187.33 230.23,189.40 229.54,190.06 C228.74,190.80 226.42,189.45 225.36,187.74 C223.79,185.16 222.04,178.92 221.88,174.65 C221.76,170.70 222.52,167.47 223.17,166.95 C225.07,165.49 227.91,170.06 228.22,171.48 C228.32,171.96 228.44,172.69 228.44,172.83 C228.44,172.85 228.44,172.85 228.43,172.84" fill="none" stroke="rgb(0, 0, 0)" stroke-width="2.50" stroke-opacity="1.00" stroke-linejoin="round"/>
<path d="M238.64,116.22 C238.64,116.22 238.67,116.18 238.67,116.18 C238.67,116.18 238.67,116.18 238.67,116.18 C238.38,116.62 237.99,117.16 237.69,117.51 C236.95,118.39 235.21,119.25 234.33,119.05 C233.34,118.81 232.84,115.89 233.37,113.87 C234.18,110.84 237.40,105.33 240.23,102.49 C242.87,99.87 245.57,98.51 246.32,98.75 C248.49,99.52 247.09,104.93 246.30,106.11 C246.04,106.50 245.61,107.06 245.51,107.16 C245.50,107.17 245.49,107.17 245.50,107.16" fill="none" stroke="rgb(0, 0, 0)" stroke-width="2.50" stroke-opacity="1.00" stroke-linejoin="round"/>
<path d="M289.63,73.38 C289.63,73.38 289.67,73.44 289.67,73.44 C289.94,72.90 290.95,70.81 291.62,69.19 C291.71,68.93 290.10,51.81 290.61,48.93 C291.18,46.02 292.93,42.66 294.60,41.43 C296.00,40.49 298.80,40.40 300.30,41.24 C302.14,42.38 304.05,45.53 304.66,48.30 C305.20,51.04 304.57,56.61 303.39,64.00 C302.94,66.69 303.76,69.44 304.24,71.02 C304.40,71.46 304.91,72.80 305.09,73.35 C305.19,73.67 305.33,74.15 305.34,74.19" fill="none" stroke="rgb(0, 0, 0)" stroke-width="2.50" stroke-opacity="1.00" stroke-linejoin="round"/>
<path d="M351.46,98.57 C351.46,98.57 351.45,98.65 351.45,98.65 C351.57,98.62 355.23,97.76 355.57,97.68 C357.18,97.28 358.63,96.37 360.21,93.98 C363.95,88.37 367.18,84.09 369.34,82.79 C371.56,81.53 375.06,81.14 377.01,82.04 C378.52,82.79 380.41,85.02 380.87,86.47 C381.31,88.09 381.40,91.33 380.95,92.76 C380.45,94.19 378.47,96.85 377.15,97.95 C375.13,99.59 366.07,104.17 365.91,104.28 C364.81,105.05 362.35,109.45 361.45,111.34 C361.08,112.12 360.57,113.02 360.55,113.04" fill="none" stroke="rgb(0, 0, 0)" stroke-width="2.50" stroke-opacity="1.00" stroke-linejoin="round"/>
<path d="M372.08,169.48 C372.08,169.48 372.02,169.52 372.02,169.52 C372.43,169.93 374.70,172.21 375.22,172.57 C376.34,173.34 378.63,173.93 379.42,173.92 C379.88,173.91 389.01,173.96 391.23,174.39 C393.04,174.79 395.80,176.67 396.51,178.11 C397.06,179.32 397.17,183.46 396.85,184.97 C396.46,186.46 394.71,189.45 393.69,190.10 C392.49,190.80 389.28,190.91 387.53,190.40 C385.33,189.71 377.33,185.83 376.92,185.69 C376.05,185.41 371.28,186.05 369.43,186.45 C368.67,186.62 367.74,186.73 367.71,186.73" fill="none" stroke="rgb(0, 0, 0)" stroke-width="2.50" stroke-opacity="1.00" stroke-linejoin="round"/>
<path d="M335.97,232.72 C335.97,232.72 335.91,232.69 335.91,232.69 C335.87,233.31 335.70,236.77 335.77,237.46 C335.91,238.78 336.59,240.62 338.32,243.16 C342.31,249.05 345.34,254.13 345.79,256.73 C346.18,259.39 345.31,262.58 343.68,264.39 C342.40,265.72 339.73,267.10 338.19,267.22 C336.28,267.29 333.84,265.82 332.45,263.86 C331.12,261.87 329.73,256.72 328.23,249.95 C327.66,247.32 326.31,245.21 325.70,244.41 C324.87,243.34 322.34,240.78 321.96,240.38 C321.75,240.14 321.44,239.78 321.42,239.75" fill="none" stroke="rgb(0, 0, 0)" stroke-width="2.50" stroke-opacity="1.00" stroke-linejoin="round"/>
<path d="M270.31,240.67 C270.31,240.67 270.29,240.59 270.29,240.59 C269.85,240.96 267.36,242.99 266.92,243.49 C265.59,245.05 261.42,261.02 259.50,263.56 C257.97,265.49 255.44,266.70 253.38,266.47 C251.82,266.24 249.36,264.93 248.32,263.78 C247.05,262.27 246.53,259.41 247.02,256.93 C247.57,254.48 250.24,249.80 254.10,243.65 C255.78,241.01 256.29,236.29 256.38,234.16 C256.41,233.28 256.54,232.22 256.55,232.19" fill="none" stroke="rgb(0, 0, 0)" stroke-width="2.50" stroke-opacity="1.00" stroke-linejoin="round"/>
<path d="M224.55,187.33 C224.55,187.33 224.59,187.27 224.59,187.27 C224.47,187.23 221.14,186.19 220.53,186.11 C219.37,185.99 217.60,186.37 215.16,187.73 C209.49,190.85 204.67,193.11 202.37,193.07 C200.03,192.96 197.43,191.37 196.12,189.24 C195.18,187.61 194.44,184.52 194.59,182.89 C194.85,180.90 196.60,178.62 198.67,177.45 C200.76,176.35 205.74,175.60 212.49,174.90 C215.43,174.62 218.95,172.10 220.47,170.83 C221.10,170.31 221.91,169.75 221.94,169.73" fill="none" stroke="rgb(0, 0, 0)" stroke-width="2.50" stroke-opacity="1.00" stroke-linejoin="round"/>
<path d="M233.15,112.89 C233.15,112.89 233.22,112.89 233.22,112.89 C233.18,112.78 232.90,112.11 232.80,111.74 C232.25,109.92 231.57,108.99 229.95,108.08 C229.66,107.92 220.06,102.95 217.86,101.07 C216.44,99.81 214.25,96.70 213.65,94.97 C213.08,93.22 212.96,89.05 213.36,87.34 C213.78,85.77 215.43,83.62 216.68,83.03 C217.97,82.48 221.31,82.34 222.93,82.77 C224.51,83.24 227.70,85.30 229.10,86.76 C230.91,88.72 235.93,96.37 236.95,96.83 C237.98,97.32 240.19,98.26 242.00,98.81 C242.75,99.04 243.62,99.40 243.65,99.42" fill="none" stroke="rgb(0, 0, 0)" stroke-width="2.50" stroke-opacity="1.00" stroke-linejoin="round"/>
<path d="M287.29,96.58 C287.29,96.58 287.04,96.58 287.04,96.58 C286.90,96.76 286.70,97.16 286.60,97.46 C286.58,97.55 286.55,97.68 286.53,97.86" fill="none" stroke="rgb(0, 0, 0)" stroke-width="2.50" stroke-opacity="1.00" stroke-linejoin="round"/>
<path d="M334.07,111.18 C334.07,111.18 333.92,110.96 333.92,110.96 C333.71,110.95 333.31,111.02 333.05,111.13 C332.97,111.16 332.86,111.22 332.72,111.31" fill="none" stroke="rgb(0, 0, 0)" stroke-width="2.50" stroke-opacity="1.00" stroke-linejoin="round"/>
<path d="M352.74,162.01 C352.74,162.01 352.79,161.73 352.79,161.73 C352.67,161.54 352.38,161.23 352.15,161.07 C352.08,161.02 351.97,160.96 351.82,160.90" fill="none" stroke="rgb(0, 0, 0)" stroke-width="2.50" stroke-opacity="1.00" stroke-linejoin="round"/>
<path d="M329.23,210.80 C329.23,210.80 329.46,210.67 329.46,210.67 C329.51,210.44 329.55,209.98 329.52,209.67 C329.51,209.58 329.48,209.44 329.44,209.27" fill="none" stroke="rgb(0, 0, 0)" stroke-width="2.50" stroke-opacity="1.00" stroke-linejoin="round"/>
<path d="M281.25,220.79 C281.25,220.79 281.48,220.91 281.48,220.91 C281.67,220.82 282.01,220.56 282.21,220.34 C282.26,220.27 282.34,220.16 282.43,220.01" fill="none" stroke="rgb(0, 0, 0)" stroke-width="2.50" stroke-opacity="1.00" stroke-linejoin="round"/>
<path d="M244.93,184.48 C244.93,184.48 244.99,184.76 244.99,184.76 C245.17,184.87 245.56,185.01 245.83,185.04 C245.91,185.05 246.04,185.04 246.19,185.03" fill="none" stroke="rgb(0, 0, 0)" stroke-width="2.50" stroke-opacity="1.00" stroke-linejoin="round"/>
<path d="M247.62,129.20 C247.62,129.20 247.46,129.43 247.46,129.43 C247.50,129.66 247.64,130.09 247.79,130.35 C247.83,130.43 247.91,130.53 248.02,130.67" fill="none" stroke="rgb(0, 0, 0)" stroke-width="2.50" stroke-opacity="1.00" stroke-linejoin="round"/>
<path d="M287.44,97.41 C287.43,97.35 287.42,97.31 287.41,97.29 C287.40,97.27 287.38,97.23 287.34,97.18 C287.37,97.60 287.40,98.02 287.44,98.44 C287.45,98.66 287.46,98.88 287.48,99.10" fill="none" stroke="rgb(0, 0, 0)" stroke-width="2.50" stroke-opacity="1.00" stroke-linejoin="round"/>
<path d="M333.59,111.84 C333.63,111.80 333.65,111.76 333.66,111.74 C333.67,111.72 333.68,111.67 333.69,111.61 C333.42,111.90 333.15,112.20 332.88,112.49 C332.74,112.64 332.60,112.79 332.45,112.95" fill="none" stroke="rgb(0, 0, 0)" stroke-width="2.50" stroke-opacity="1.00" stroke-linejoin="round"/>
<path d="M351.99,162.00 C352.04,162.01 352.08,162.01 352.10,162.00 C352.12,161.99 352.16,161.97 352.21,161.94 C351.84,161.89 351.47,161.83 351.11,161.78 C350.94,161.76 350.75,161.73 350.53,161.69" fill="none" stroke="rgb(0, 0, 0)" stroke-width="2.50" stroke-opacity="1.00" stroke-linejoin="round"/>
<path d="M328.78,210.12 C328.81,210.17 328.83,210.21 328.85,210.22 C328.87,210.24 328.90,210.26 328.96,210.28 C328.77,209.92 328.58,209.56 328.39,209.20 C328.29,209.01 328.20,208.82 328.10,208.63" fill="none" stroke="rgb(0, 0, 0)" stroke-width="2.50" stroke-opacity="1.00" stroke-linejoin="round"/>
<path d="M281.44,219.97 C281.43,220.03 281.42,220.07 281.42,220.09 C281.42,220.12 281.43,220.16 281.44,220.22 C281.58,219.83 281.71,219.43 281.84,219.03 C281.91,218.83 281.98,218.62 282.05,218.42" fill="none" stroke="rgb(0, 0, 0)" stroke-width="2.50" stroke-opacity="1.00" stroke-linejoin="round"/>
<path d="M245.62,184.13 C245.62,184.13 244.85,183.67 244.85,183.67 C245.27,183.51 245.49,183.38 245.53,183.28 C245.57,183.18 245.47,182.98 245.24,182.67" fill="none" stroke="rgb(0, 0, 0)" stroke-width="2.50" stroke-opacity="1.00" stroke-linejoin="round"/>
<path d="M248.28,129.58 C248.24,129.55 248.21,129.53 248.19,129.53 C248.16,129.52 248.13,129.52 248.07,129.53 C248.38,129.76 248.69,129.99 248.99,130.22 C249.15,130.34 249.31,130.46 249.47,130.58" fill="none" stroke="rgb(0, 0, 0)" stroke-width="2.50" stroke-opacity="1.00" stroke-linejoin="round"/>
<path d="M288.85,97.26 L289.78,142.01" fill="none" stroke="rgb(0, 0, 0)" stroke-width="2.50" stroke-opacity="1.00" stroke-linejoin="round"/>
<path d="M289.78,142.01 C289.82,141.97 289.86,141.92 289.90,141.88 C289.92,141.85 289.94,141.82 289.98,141.78 C289.98,141.78 289.71,141.99 289.71,141.99" fill="none" stroke="rgb(0, 0, 0)" stroke-width="2.50" stroke-opacity="1.00" stroke-linejoin="round"/>
<path d="M334.17,113.25 L304.35,142.16" fill="none" stroke="rgb(0, 0, 0)" stroke-width="2.50" stroke-opacity="1.00" stroke-linejoin="round"/>
<path d="M304.35,142.16 C304.35,142.16 304.64,142.20 304.64,142.20 C304.64,142.20 304.33,142.09 304.33,142.09" fill="none" stroke="rgb(0, 0, 0)" stroke-width="2.50" stroke-opacity="1.00" stroke-linejoin="round"/>
<path d="M351.85,163.67 L313.19,155.21" fill="none" stroke="rgb(0, 0, 0)" stroke-width="2.50" stroke-opacity="1.00" stroke-linejoin="round"/>
<path d="M313.19,155.21 C313.19,155.21 313.34,155.49 313.34,155.49 C313.34,155.49 313.22,155.15 313.22,155.15" fill="none" stroke="rgb(0, 0, 0)" stroke-width="2.50" stroke-opacity="1.00" stroke-linejoin="round"/>
<path d="M328.16,210.20 L309.64,171.34" fill="none" stroke="rgb(0, 0, 0)" stroke-width="2.50" stroke-opacity="1.00" stroke-linejoin="round"/>
<path d="M309.64,171.34 C309.64,171.34 309.54,171.64 309.54,171.64 C309.54,171.64 309.70,171.32 309.70,171.32" fill="none" stroke="rgb(0, 0, 0)" stroke-width="2.50" stroke-opacity="1.00" stroke-linejoin="round"/>
<path d="M280.13,219.86 L296.37,178.39" fill="none" stroke="rgb(0, 0, 0)" stroke-width="2.50" stroke-opacity="1.00" stroke-linejoin="round"/>
<path d="M296.37,178.39 C296.37,178.39 296.10,178.50 296.10,178.50 C296.10,178.50 296.42,178.44 296.42,178.44" fill="none" stroke="rgb(0, 0, 0)" stroke-width="2.50" stroke-opacity="1.00" stroke-linejoin="round"/>
<path d="M245.52,183.84 L283.38,171.06" fill="none" stroke="rgb(0, 0, 0)" stroke-width="2.50" stroke-opacity="1.00" stroke-linejoin="round"/>
<path d="M283.38,171.06 C283.38,171.06 283.14,170.89 283.14,170.89 C283.14,170.89 283.37,171.14 283.37,171.14" fill="none" stroke="rgb(0, 0, 0)" stroke-width="2.50" stroke-opacity="1.00" stroke-linejoin="round"/>
<path d="M249.13,127.94 L280.44,154.87" fill="none" stroke="rgb(0, 0, 0)" stroke-width="2.50" stroke-opacity="1.00" stroke-linejoin="round"/>
<path d="M280.44,154.87 C280.44,154.87 280.41,154.55 280.41,154.55 C280.41,154.55 280.39,154.91 280.39,154.91" fill="none" stroke="rgb(0, 0, 0)" stroke-width="2.50" stroke-opacity="1.00" stroke-linejoin="round"/>
<path d="M289.71,141.99 L259.34,113.55" fill="none" stroke="rgb(0, 0, 0)" stroke-width="2.50" stroke-opacity="1.00" stroke-linejoin="round"/>
<path d="M259.34,113.55 C259.34,113.54 259.35,113.52 259.36,113.50 C259.37,113.48 259.39,113.43 259.43,113.34 C259.37,113.41 259.34,113.45 259.33,113.48 C259.31,113.51 259.30,113.56 259.28,113.64" fill="none" stroke="rgb(0, 0, 0)" stroke-width="2.50" stroke-opacity="1.00" stroke-linejoin="round"/>
<path d="M304.33,142.09 L305.25,97.08" fill="none" stroke="rgb(0, 0, 0)" stroke-width="2.50" stroke-opacity="1.00" stroke-linejoin="round"/>
<path d="M305.25,97.08 C305.26,97.08 305.28,97.08 305.29,97.07 C305.31,97.07 305.36,97.05 305.44,97.03 C305.37,97.02 305.31,97.02 305.28,97.03 C305.26,97.04 305.21,97.05 305.15,97.09" fill="none" stroke="rgb(0, 0, 0)" stroke-width="2.50" stroke-opacity="1.00" stroke-linejoin="round"/>
<path d="M313.22,155.15 L344.75,127.46" fill="none" stroke="rgb(0, 0, 0)" stroke-width="2.50" stroke-opacity="1.00" stroke-linejoin="round"/>
<path d="M344.75,127.46 C344.76,127.47 344.77,127.48 344.78,127.50 C344.80,127.51 344.84,127.55 344.90,127.60 C344.86,127.53 344.83,127.48 344.81,127.46 C344.78,127.44 344.74,127.41 344.68,127.38" fill="none" stroke="rgb(0, 0, 0)" stroke-width="2.50" stroke-opacity="1.00" stroke-linejoin="round"/>
<path d="M309.70,171.32 L348.09,181.81" fill="none" stroke="rgb(0, 0, 0)" stroke-width="2.50" stroke-opacity="1.00" stroke-linejoin="round"/>
<path d="M348.09,181.81 C348.09,181.82 348.09,181.84 348.09,181.86 C348.09,181.89 348.09,181.95 348.09,182.04 C348.11,181.95 348.13,181.90 348.13,181.86 C348.13,181.83 348.12,181.78 348.11,181.70" fill="none" stroke="rgb(0, 0, 0)" stroke-width="2.50" stroke-opacity="1.00" stroke-linejoin="round"/>
<path d="M296.42,178.44 L313.50,219.17" fill="none" stroke="rgb(0, 0, 0)" stroke-width="2.50" stroke-opacity="1.00" stroke-linejoin="round"/>
<path d="M312.77,219.20 C312.76,219.21 312.74,219.22 312.73,219.23 C312.71,219.25 312.67,219.29 312.61,219.35 C312.68,219.31 312.73,219.29 312.75,219.27 C312.78,219.25 312.81,219.21 312.85,219.15" fill="none" stroke="rgb(0, 0, 0)" stroke-width="2.50" stroke-opacity="1.00" stroke-linejoin="round"/>
<path d="M283.37,171.14 L265.37,211.48" fill="none" stroke="rgb(0, 0, 0)" stroke-width="2.50" stroke-opacity="1.00" stroke-linejoin="round"/>
<path d="M265.37,211.48 C265.36,211.48 265.34,211.47 265.32,211.47 C265.30,211.46 265.25,211.45 265.17,211.43 C265.24,211.48 265.29,211.50 265.31,211.51 C265.34,211.52 265.39,211.52 265.46,211.52" fill="none" stroke="rgb(0, 0, 0)" stroke-width="2.50" stroke-opacity="1.00" stroke-linejoin="round"/>
<path d="M280.39,154.91 L241.59,164.46" fill="none" stroke="rgb(0, 0, 0)" stroke-width="2.50" stroke-opacity="1.00" stroke-linejoin="round"/>
<path d="M241.59,164.46 C241.59,164.45 241.58,164.43 241.57,164.41 C241.56,164.39 241.54,164.34 241.50,164.26 C241.52,164.34 241.53,164.40 241.54,164.43 C241.55,164.46 241.57,164.51 241.62,164.57" fill="none" stroke="rgb(0, 0, 0)" stroke-width="2.50" stroke-opacity="1.00" stroke-linejoin="round"/>
<path d="M290.61,153.43 C290.62,153.42 290.62,153.41 290.62,153.41 C290.63,153.40 290.64,153.40 290.65,153.38 C290.65,153.38 290.62,153.44 290.62,153.44" fill="none" stroke="rgb(0, 0, 0)" stroke-width="2.50" stroke-opacity="1.00" stroke-linejoin="round"/>
<path d="M297.01,150.14 C297.02,150.14 297.03,150.13 297.03,150.13 C297.04,150.14 297.05,150.14 297.06,150.14 C297.06,150.14 297.00,150.15 297.00,150.15" fill="none" stroke="rgb(0, 0, 0)" stroke-width="2.50" stroke-opacity="1.00" stroke-linejoin="round"/>
<path d="M303.20,153.74 C303.21,153.74 303.21,153.75 303.22,153.76 C303.22,153.76 303.22,153.77 303.23,153.79 C303.23,153.79 303.19,153.74 303.19,153.74" fill="none" stroke="rgb(0, 0, 0)" stroke-width="2.50" stroke-opacity="1.00" stroke-linejoin="round"/>
<path d="M304.52,161.52 C304.52,161.53 304.52,161.54 304.52,161.55 C304.52,161.55 304.51,161.56 304.51,161.58 C304.51,161.58 304.52,161.51 304.52,161.51" fill="none" stroke="rgb(0, 0, 0)" stroke-width="2.50" stroke-opacity="1.00" stroke-linejoin="round"/>
<path d="M299.98,167.62 C299.97,167.63 299.97,167.64 299.96,167.64 C299.96,167.64 299.95,167.64 299.93,167.65 C299.93,167.65 299.98,167.61 299.98,167.61" fill="none" stroke="rgb(0, 0, 0)" stroke-width="2.50" stroke-opacity="1.00" stroke-linejoin="round"/>
<path d="M293.00,167.46 C292.99,167.45 292.98,167.45 292.98,167.45 C292.97,167.44 292.96,167.44 292.95,167.42 C292.95,167.42 293.00,167.45 293.00,167.45" fill="none" stroke="rgb(0, 0, 0)" stroke-width="2.50" stroke-opacity="1.00" stroke-linejoin="round"/>
<path d="M288.83,161.14 C288.82,161.13 288.82,161.12 288.82,161.11 C288.82,161.11 288.82,161.10 288.82,161.08 C288.82,161.08 288.84,161.14 288.84,161.14" fill="none" stroke="rgb(0, 0, 0)" stroke-width="2.50" stroke-opacity="1.00" stroke-linejoin="round"/>
<path d="M290.62,153.44 L296.82,149.95" fill="none" stroke="rgb(0, 0, 0)" stroke-width="2.50" stroke-opacity="1.00" stroke-linejoin="round"/>
<path d="M296.82,149.95 C296.82,149.93 296.82,149.92 296.82,149.91 C296.82,149.91 296.82,149.90 296.82,149.88 C296.82,149.88 296.77,149.94 296.77,149.94" fill="none" stroke="rgb(0, 0, 0)" stroke-width="2.50" stroke-opacity="1.00" stroke-linejoin="round"/>
<path d="M297.00,150.15 L303.22,153.45" fill="none" stroke="rgb(0, 0, 0)" stroke-width="2.50" stroke-opacity="1.00" stroke-linejoin="round"/>
<path d="M303.22,153.45 C303.23,153.44 303.24,153.43 303.24,153.43 C303.24,153.42 303.25,153.42 303.26,153.41 C303.26,153.41 303.19,153.40 303.19,153.40" fill="none" stroke="rgb(0, 0, 0)" stroke-width="2.50" stroke-opacity="1.00" stroke-linejoin="round"/>
<path d="M303.19,153.74 L304.73,161.36" fill="none" stroke="rgb(0, 0, 0)" stroke-width="2.50" stroke-opacity="1.00" stroke-linejoin="round"/>
<path d="M304.73,161.36 C304.75,161.36 304.76,161.36 304.76,161.36 C304.77,161.36 304.77,161.36 304.78,161.37 C304.78,161.37 304.75,161.29 304.75,161.29" fill="none" stroke="rgb(0, 0, 0)" stroke-width="2.50" stroke-opacity="1.00" stroke-linejoin="round"/>
<path d="M304.52,161.51 L300.22,167.71" fill="none" stroke="rgb(0, 0, 0)" stroke-width="2.50" stroke-opacity="1.00" stroke-linejoin="round"/>
<path d="M300.22,167.71 C300.23,167.72 300.24,167.73 300.24,167.74 C300.24,167.74 300.24,167.75 300.25,167.76 C300.25,167.76 300.28,167.68 300.28,167.68" fill="none" stroke="rgb(0, 0, 0)" stroke-width="2.50" stroke-opacity="1.00" stroke-linejoin="round"/>
<path d="M299.98,167.61 L293.09,167.72" fill="none" stroke="rgb(0, 0, 0)" stroke-width="2.50" stroke-opacity="1.00" stroke-linejoin="round"/>
<path d="M293.09,167.72 C293.08,167.74 293.08,167.75 293.08,167.75 C293.08,167.76 293.07,167.77 293.07,167.78 C293.07,167.78 293.14,167.75 293.14,167.75" fill="none" stroke="rgb(0, 0, 0)" stroke-width="2.50" stroke-opacity="1.00" stroke-linejoin="round"/>
<path d="M293.00,167.45 L288.70,161.39" fill="none" stroke="rgb(0, 0, 0)" stroke-width="2.50" stroke-opacity="1.00" stroke-linejoin="round"/>
<path d="M288.70,161.39 C288.69,161.39 288.68,161.40 288.67,161.40 C288.67,161.40 288.66,161.40 288.65,161.41 C288.65,161.41 288.71,161.45 288.71,161.45" fill="none" stroke="rgb(0, 0, 0)" stroke-width="2.50" stroke-opacity="1.00" stroke-linejoin="round"/>
<path d="M288.84,161.14 L290.36,153.48" fill="none" stroke="rgb(0, 0, 0)" stroke-width="2.50" stroke-opacity="1.00" stroke-linejoin="round"/>
<path d="M290.36,153.48 C290.35,153.47 290.34,153.46 290.34,153.46 C290.33,153.46 290.33,153.45 290.32,153.44 C290.32,153.44 290.32,153.53 290.32,153.53" fill="none" stroke="rgb(0, 0, 0)" stroke-width="2.50" stroke-opacity="1.00" stroke-linejoin="round"/>
<path d="M282.71,171.40 C282.74,171.38 282.76,171.36 282.77,171.35 C282.78,171.33 282.80,171.31 282.82,171.29 C282.86,171.23 283.10,171.11 283.19,171.05 C283.25,171.02 283.37,170.94 283.53,170.83" fill="none" stroke="rgb(0, 0, 0)" stroke-width="2.50" stroke-opacity="1.00" stroke-linejoin="round"/>
<path d="M279.80,154.50 C279.83,154.51 279.86,154.51 279.87,154.51 C279.89,154.52 279.91,154.52 279.94,154.52 C280.01,154.52 280.24,154.65 280.34,154.70 C280.40,154.73 280.52,154.79 280.69,154.86" fill="none" stroke="rgb(0, 0, 0)" stroke-width="2.50" stroke-opacity="1.00" stroke-linejoin="round"/>
<path d="M289.64,141.20 C289.65,141.24 289.66,141.26 289.67,141.27 C289.68,141.29 289.70,141.32 289.72,141.34 C289.75,141.40 289.80,141.63 289.83,141.81 C289.85,141.88 289.88,142.02 289.94,142.23" fill="none" stroke="rgb(0, 0, 0)" stroke-width="2.50" stroke-opacity="1.00" stroke-linejoin="round"/>
<path d="M304.82,141.53 C304.81,141.56 304.80,141.59 304.79,141.60 C304.79,141.62 304.78,141.65 304.77,141.69 C304.76,141.75 304.63,141.94 304.52,142.08 C304.48,142.14 304.41,142.26 304.30,142.44" fill="none" stroke="rgb(0, 0, 0)" stroke-width="2.50" stroke-opacity="1.00" stroke-linejoin="round"/>
<path d="M313.91,155.23 C313.88,155.24 313.86,155.25 313.85,155.25 C313.83,155.26 313.80,155.27 313.78,155.29 C313.72,155.32 313.46,155.31 313.35,155.31 C313.28,155.32 313.15,155.33 312.97,155.34" fill="none" stroke="rgb(0, 0, 0)" stroke-width="2.50" stroke-opacity="1.00" stroke-linejoin="round"/>
<path d="M310.07,171.99 C310.05,171.97 310.03,171.95 310.02,171.94 C310.00,171.93 309.98,171.92 309.95,171.91 C309.89,171.87 309.74,171.64 309.67,171.54 C309.62,171.48 309.54,171.38 309.41,171.22" fill="none" stroke="rgb(0, 0, 0)" stroke-width="2.50" stroke-opacity="1.00" stroke-linejoin="round"/>
<path d="M296.19,179.19 C296.19,179.15 296.19,179.12 296.18,179.11 C296.18,179.09 296.18,179.06 296.17,179.03 C296.16,178.96 296.21,178.72 296.25,178.55 C296.26,178.47 296.28,178.33 296.31,178.11" fill="none" stroke="rgb(0, 0, 0)" stroke-width="2.50" stroke-opacity="1.00" stroke-linejoin="round"/>
<path d="M283.53,170.83 L290.78,164.27" fill="none" stroke="rgb(0, 0, 0)" stroke-width="2.50" stroke-opacity="1.00" stroke-linejoin="round"/>
<path d="M290.78,164.27 C290.79,164.25 290.80,164.24 290.80,164.23 C290.81,164.23 290.82,164.21 290.83,164.20 C290.83,164.20 290.75,164.23 290.75,164.23" fill="none" stroke="rgb(0, 0, 0)" stroke-width="2.50" stroke-opacity="1.00" stroke-linejoin="round"/>
<path d="M280.69,154.86 L289.66,157.15" fill="none" stroke="rgb(0, 0, 0)" stroke-width="2.50" stroke-opacity="1.00" stroke-linejoin="round"/>
<path d="M289.66,157.15 C289.67,157.15 289.69,157.15 289.70,157.15 C289.70,157.15 289.72,157.15 289.74,157.15 C289.74,157.15 289.67,157.10 289.67,157.10" fill="none" stroke="rgb(0, 0, 0)" stroke-width="2.50" stroke-opacity="1.00" stroke-linejoin="round"/>
<path d="M289.94,142.23 L293.87,151.64" fill="none" stroke="rgb(0, 0, 0)" stroke-width="2.50" stroke-opacity="1.00" stroke-linejoin="round"/>
<path d="M293.87,151.64 C293.88,151.66 293.88,151.67 293.89,151.68 C293.89,151.69 293.90,151.70 293.91,151.72 C293.91,151.72 293.91,151.62 293.91,151.62" fill="none" stroke="rgb(0, 0, 0)" stroke-width="2.50" stroke-opacity="1.00" stroke-linejoin="round"/>
<path d="M304.30,142.44 L300.24,151.90" fill="none" stroke="rgb(0, 0, 0)" stroke-width="2.50" stroke-opacity="1.00" stroke-linejoin="round"/>
<path d="M300.24,151.90 C300.23,151.92 300.23,151.93 300.23,151.94 C300.22,151.95 300.22,151.97 300.21,151.99 C300.21,151.99 300.28,151.92 300.28,151.92" fill="none" stroke="rgb(0, 0, 0)" stroke-width="2.50" stroke-opacity="1.00" stroke-linejoin="round"/>
<path d="M312.97,155.34 L303.97,157.72" fill="none" stroke="rgb(0, 0, 0)" stroke-width="2.50" stroke-opacity="1.00" stroke-linejoin="round"/>
<path d="M303.97,157.72 C303.95,157.73 303.94,157.74 303.93,157.74 C303.93,157.74 303.91,157.75 303.89,157.76 C303.89,157.76 303.98,157.77 303.98,157.77" fill="none" stroke="rgb(0, 0, 0)" stroke-width="2.50" stroke-opacity="1.00" stroke-linejoin="round"/>
<path d="M309.41,171.22 L302.26,164.73" fill="none" stroke="rgb(0, 0, 0)" stroke-width="2.50" stroke-opacity="1.00" stroke-linejoin="round"/>
<path d="M302.26,164.73 C302.24,164.72 302.23,164.71 302.22,164.71 C302.21,164.70 302.20,164.69 302.18,164.68 C302.18,164.68 302.23,164.77 302.23,164.77" fill="none" stroke="rgb(0, 0, 0)" stroke-width="2.50" stroke-opacity="1.00" stroke-linejoin="round"/>
<path d="M296.31,178.11 L296.38,167.64" fill="none" stroke="rgb(0, 0, 0)" stroke-width="2.50" stroke-opacity="1.00" stroke-linejoin="round"/>
<path d="M296.38,167.64 C296.38,167.62 296.38,167.61 296.38,167.60 C296.38,167.59 296.37,167.57 296.37,167.55 C296.37,167.55 296.34,167.64 296.34,167.64" fill="none" stroke="rgb(0, 0, 0)" stroke-width="2.50" stroke-opacity="1.00" stroke-linejoin="round"/>
<path d="M311.94,97.87 C314.96,98.81 322.15,102.30 325.34,104.38 C328.91,106.73 333.84,111.09 336.71,114.44 C339.27,117.46 343.92,124.40 345.53,127.60 C348.28,133.15 352.20,148.18 352.46,154.64 C352.72,161.90 350.78,175.98 348.37,182.58 C347.15,185.89 344.21,192.09 342.36,195.24 C340.54,198.30 335.65,204.36 332.85,207.12 C330.09,209.81 323.96,214.56 320.66,216.33 C317.24,218.13 310.38,220.75 306.70,221.65 C303.14,222.50 295.76,222.89 292.17,222.63 C288.57,222.34 281.33,220.81 277.93,219.43 C274.42,217.97 268.00,214.32 264.87,212.01 C261.86,209.75 256.46,204.11 254.11,201.03 C251.74,197.87 247.75,191.13 246.38,187.82 C243.68,181.17 240.77,167.47 240.78,160.36 C240.80,156.79 241.46,149.71 242.10,146.11 C243.28,139.75 249.27,125.49 252.77,120.43 C254.81,117.51 260.39,111.36 263.34,108.77 C266.66,105.90 272.15,102.34 276.01,100.56 C279.46,99.00 287.06,96.66 290.18,96.19 C296.92,95.22 308.92,96.95 311.94,97.87 Z" fill="none" stroke="rgb(0, 0, 0)" stroke-width="4.31" stroke-opacity="1.00" stroke-linejoin="round"/>
<path d="M315.72,83.16 C318.87,84.15 326.60,87.72 330.09,89.81 C333.48,91.88 339.83,96.71 342.42,99.32 C347.59,104.62 356.31,117.24 358.95,123.48 C361.90,130.56 365.69,146.16 366.01,153.11 C366.34,160.97 364.57,177.11 362.53,183.70 C360.19,191.14 353.13,205.36 349.03,210.59 C344.37,216.48 332.98,226.72 327.14,229.93 C323.57,231.87 316.17,234.92 312.38,236.03 C308.02,237.27 301.53,238.22 297.06,238.27 C293.15,238.30 285.43,237.48 281.50,236.62 C277.73,235.77 270.33,232.82 266.91,231.01 C263.34,229.10 256.29,224.29 253.62,221.96 C248.87,217.76 239.06,204.80 236.05,198.74 C233.07,192.67 228.45,176.47 227.72,169.53 C227.03,162.60 228.24,145.54 229.90,138.78 C231.60,132.04 238.45,116.73 242.25,111.18 C246.08,105.65 257.61,94.33 262.90,90.91 C265.86,89.02 273.52,85.35 277.32,84.01 C280.96,82.75 288.69,80.96 292.54,80.70 C300.48,80.22 312.58,82.21 315.72,83.16 Z" fill="none" stroke="rgb(0, 0, 0)" stroke-width="5.35" stroke-opacity="1.00" stroke-linejoin="round"/>
<path d="M307.13,73.63 C307.13,73.63 307.02,73.73 307.02,73.73 C307.02,73.73 306.10,75.54 306.10,75.54 C306.10,75.54 305.09,75.77 305.09,75.77 C305.09,75.77 303.54,75.52 303.54,75.52 C303.54,75.52 302.56,75.31 302.56,75.31 C302.56,75.31 301.32,75.00 301.32,75.00 C301.32,75.00 299.77,74.74 299.77,74.74 C299.77,74.74 297.96,74.54 297.96,74.54 C297.96,74.54 296.72,73.71 296.72,73.71 C296.72,73.71 297.91,72.83 297.91,72.83 C297.91,72.83 298.99,72.62 298.99,72.62 C298.99,72.62 300.18,72.21 300.18,72.21 C300.18,72.21 301.16,71.69 301.16,71.69 C301.16,71.69 302.82,70.51 302.82,70.51 C302.82,70.51 303.74,70.09 303.74,70.09 C303.74,70.09 304.44,71.31 304.44,71.31 C304.44,71.31 303.95,72.13 303.95,72.13" fill="none" stroke="rgb(255, 255, 255)" stroke-width="5.81" stroke-opacity="1.00" stroke-linejoin="round"/>
<path d="M304.88,62.50 C304.88,62.50 304.75,62.63 304.75,62.63 C304.75,62.63 302.66,63.33 302.66,63.33 C302.66,63.33 301.86,61.08 301.86,61.08 C301.86,61.08 302.51,60.15 302.51,60.15 C302.51,60.15 303.64,58.83 303.64,58.83 C303.64,58.83 304.47,58.11 304.47,58.11 C304.47,58.11 306.20,58.65 306.20,58.65 C306.20,58.65 306.25,60.36 306.25,60.36 C306.25,60.36 305.40,61.52 305.40,61.52 C305.40,61.52 303.90,62.60 303.90,62.60 C303.90,62.60 302.63,63.27 302.63,63.27" fill="none" stroke="rgb(255, 255, 255)" stroke-width="5.81" stroke-opacity="1.00" stroke-linejoin="round"/>
<path d="M305.55,50.88 C305.55,50.88 304.67,51.39 304.67,51.39 C304.67,51.39 303.67,50.75 303.67,50.75 C303.67,50.75 303.00,49.46 303.00,49.46 C303.00,49.46 302.89,48.01 302.89,48.01 C302.89,48.01 303.64,47.16 303.64,47.16 C303.64,47.16 306.10,48.79 306.10,48.79 C306.10,48.79 305.99,49.02 305.99,49.02" fill="none" stroke="rgb(255, 255, 255)" stroke-width="5.81" stroke-opacity="1.00" stroke-linejoin="round"/>
<path d="M292.91,90.04 C292.91,90.04 292.77,90.04 292.77,90.04 C292.77,90.04 291.36,90.30 291.36,90.30 C291.36,90.30 290.39,90.57 290.39,90.57 C290.39,90.57 289.06,91.01 289.06,91.01 C289.06,91.01 287.47,91.89 287.47,91.89 C287.47,91.89 290.12,92.42 290.12,92.42 C290.12,92.42 288.89,92.60 288.89,92.60 C288.89,92.60 287.30,92.78 287.30,92.78 C287.30,92.78 287.92,91.85 287.92,91.85 C287.92,91.85 289.06,90.43 289.06,90.43 C289.06,90.43 289.68,89.46 289.68,89.46 C289.68,89.46 290.65,88.18 290.65,88.18 C290.65,88.18 291.63,87.56 291.63,87.56 C292.03,87.31 292.68,86.78 290.83,86.86 C290.83,86.86 291.45,85.62 291.45,85.62 C291.45,85.62 292.33,85.00 292.33,85.00 C292.33,85.00 294.10,84.12 294.10,84.12 C294.10,84.12 295.51,84.38 295.51,84.38 C295.51,84.38 296.09,84.56 296.09,84.56" fill="none" stroke="rgb(255, 255, 255)" stroke-width="5.81" stroke-opacity="1.00" stroke-linejoin="round"/>
<path d="M200.78,176.05 C200.78,176.05 201.31,177.70 201.31,177.70 C201.31,177.70 200.88,176.50 200.88,176.50 C200.88,176.50 202.51,176.43 202.51,176.43 C202.51,176.43 203.25,177.24 203.25,177.24 C203.25,177.24 203.53,176.05 203.53,176.05 C203.53,176.05 204.20,176.93 204.20,176.93 C204.20,176.93 204.34,177.24 204.34,177.24" fill="none" stroke="rgb(255, 255, 255)" stroke-width="5.81" stroke-opacity="1.00" stroke-linejoin="round"/>
<path d="M212.74,173.79 C212.74,173.79 212.56,173.79 212.56,173.79 C212.56,173.79 211.15,174.56 211.15,174.56 C211.15,174.56 210.30,173.65 210.30,173.65 C210.30,173.65 211.15,174.63 211.15,174.63 C211.15,174.63 212.38,174.67 212.38,174.67 C212.38,174.67 213.16,173.68 213.16,173.68 C213.16,173.68 214.43,173.40 214.43,173.40 C214.43,173.40 214.71,174.81 214.71,174.81 C214.71,174.81 214.22,173.61 214.22,173.61 C214.22,173.61 214.96,172.87 214.96,172.87 C214.96,172.87 215.42,174.46 215.42,174.46 C215.42,174.46 215.21,174.70 215.21,174.70" fill="none" stroke="rgb(255, 255, 255)" stroke-width="5.81" stroke-opacity="1.00" stroke-linejoin="round"/>
<path d="M223.04,173.65 C223.04,173.65 222.86,173.65 222.86,173.65 C222.86,173.65 222.47,172.06 222.47,172.06 C222.47,172.06 222.19,170.58 222.19,170.58 C222.19,170.58 221.77,169.52 221.77,169.52 C221.77,169.52 221.56,168.04 221.56,168.04 C221.56,168.04 222.19,168.88 222.19,168.88 C222.19,168.88 222.54,169.94 222.54,169.94 C222.54,169.94 222.68,171.85 222.68,171.85 C222.68,171.85 222.90,174.25 222.90,174.25 C222.90,174.25 222.58,175.20 222.58,175.20 C222.58,175.20 222.68,173.54 222.68,173.54 C222.68,173.54 222.68,172.06 222.68,172.06 C222.68,172.06 222.05,170.72 222.05,170.72 C222.05,170.72 221.20,169.66 221.20,169.66 C221.20,169.66 221.49,171.00 221.49,171.00 C221.49,171.00 221.91,172.48 221.91,172.48 C221.91,172.48 222.54,175.13 222.54,175.13" fill="none" stroke="rgb(255, 255, 255)" stroke-width="5.81" stroke-opacity="1.00" stroke-linejoin="round"/>
</g>
</svg>
